<svg width="23" height="23" viewBox="0 0 23 23" fill="none" xmlns="http://www.w3.org/2000/svg">
<path d="M5.38298 11.2553H5.87234V11.7447H5.38298V11.2553Z" fill="#7DADC8"/>
<path d="M22.5106 11.2553H22.0213V10.766H22.5106V11.2553Z" fill="#7DADC8"/>
<path d="M22.0213 10.766H21.5319V10.2766H22.0213V10.766Z" fill="#7DADC8"/>
<path d="M21.5319 10.2766H21.0426V9.78723H21.5319V10.2766Z" fill="#7DADC8"/>
<path d="M21.0426 9.78723H20.5532V9.29787H21.0426V9.78723Z" fill="#7DADC8"/>
<path d="M20.5532 9.29787H20.0638V8.80851H20.5532V9.29787Z" fill="#7DADC8"/>
<path d="M20.0638 8.80851H19.5745V8.31915H20.0638V8.80851Z" fill="#7DADC8"/>
<path d="M19.5745 8.31915H19.0851V7.82979H19.5745V8.31915Z" fill="#7DADC8"/>
<path d="M19.0851 7.82979H18.5957V7.34043H19.0851V7.82979Z" fill="#7DADC8"/>
<path d="M18.5957 7.34043H18.1064V6.85106H18.5957V7.34043Z" fill="#7DADC8"/>
<path d="M18.1064 6.85106H17.617V6.3617H18.1064V6.85106Z" fill="#7DADC8"/>
<path d="M17.617 6.3617H17.1277V5.87234H17.617V6.3617Z" fill="#7DADC8"/>
<path d="M17.1277 5.87234H16.6383V5.38298H17.1277V5.87234Z" fill="#7DADC8"/>
<path d="M16.6383 5.38298H16.1489V4.89362H16.6383V5.38298Z" fill="#7DADC8"/>
<path d="M16.1489 4.89362H15.6596V4.40426H16.1489V4.89362Z" fill="#7DADC8"/>
<path d="M15.6596 4.40426H15.1702V3.91489H15.6596V4.40426Z" fill="#7DADC8"/>
<path d="M15.1702 3.91489H14.6809V3.42553H15.1702V3.91489Z" fill="#7DADC8"/>
<path d="M14.6809 3.42553H14.1915V2.93617H14.6809V3.42553Z" fill="#7DADC8"/>
<path d="M14.1915 2.93617H13.7021V2.44681H14.1915V2.93617Z" fill="#7DADC8"/>
<path d="M13.7021 2.44681H13.2128V1.95745H13.7021V2.44681Z" fill="#7DADC8"/>
<path d="M13.2128 1.95745H12.7234V1.46809H13.2128V1.95745Z" fill="#7DADC8"/>
<path d="M12.7234 1.46809H12.234V0.978723H12.7234V1.46809Z" fill="#7DADC8"/>
<path d="M12.234 0.978723H11.7447V0.489362H12.234V0.978723Z" fill="#7DADC8"/>
<path d="M11.7447 0.489362H11.2553V0H11.7447V0.489362Z" fill="#7DADC8"/>
<path d="M22.5106 12.234H22.0213V11.7447H22.5106V12.234Z" fill="#7DADC8"/>
<path d="M22.0213 12.7234H21.5319V12.234H22.0213V12.7234Z" fill="#7DADC8"/>
<path d="M21.5319 13.2128H21.0426V12.7234H21.5319V13.2128Z" fill="#7DADC8"/>
<path d="M21.0426 13.7021H20.5532V13.2128H21.0426V13.7021Z" fill="#7DADC8"/>
<path d="M20.5532 14.1915H20.0638V13.7021H20.5532V14.1915Z" fill="#7DADC8"/>
<path d="M20.0638 14.6809H19.5745V14.1915H20.0638V14.6809Z" fill="#7DADC8"/>
<path d="M19.5745 15.1702H19.0851V14.6809H19.5745V15.1702Z" fill="#7DADC8"/>
<path d="M19.0851 15.6596H18.5957V15.1702H19.0851V15.6596Z" fill="#7DADC8"/>
<path d="M18.5957 16.1489H18.1064V15.6596H18.5957V16.1489Z" fill="#7DADC8"/>
<path d="M18.1064 16.6383H17.617V16.1489H18.1064V16.6383Z" fill="#7DADC8"/>
<path d="M17.617 17.1277H17.1277V16.6383H17.617V17.1277Z" fill="#7DADC8"/>
<path d="M17.1277 17.617H16.6383V17.1277H17.1277V17.617Z" fill="#7DADC8"/>
<path d="M16.6383 18.1064H16.1489V17.617H16.6383V18.1064Z" fill="#7DADC8"/>
<path d="M16.1489 18.5957H15.6596V18.1064H16.1489V18.5957Z" fill="#7DADC8"/>
<path d="M15.6596 19.0851H15.1702V18.5957H15.6596V19.0851Z" fill="#7DADC8"/>
<path d="M15.1702 19.5745H14.6809V19.0851H15.1702V19.5745Z" fill="#7DADC8"/>
<path d="M14.6809 20.0638H14.1915V19.5745H14.6809V20.0638Z" fill="#7DADC8"/>
<path d="M14.1915 20.5532H13.7021V20.0638H14.1915V20.5532Z" fill="#7DADC8"/>
<path d="M13.7021 21.0426H13.2128V20.5532H13.7021V21.0426Z" fill="#7DADC8"/>
<path d="M13.2128 21.5319H12.7234V21.0426H13.2128V21.5319Z" fill="#7DADC8"/>
<path d="M12.7234 22.0213H12.234V21.5319H12.7234V22.0213Z" fill="#7DADC8"/>
<path d="M12.234 22.5106H11.7447V22.0213H12.234V22.5106Z" fill="#7DADC8"/>
<path d="M11.7447 23H11.2553V22.5106H11.7447V23Z" fill="#7DADC8"/>
<path d="M23 11.7447H22.5106V11.2553H23V11.7447Z" fill="#7DADC8"/>
<path d="M0.489362 11.2553H0.978723V10.766H0.489362V11.2553Z" fill="#7DADC8"/>
<path d="M0.978723 10.766H1.46809V10.2766H0.978723V10.766Z" fill="#7DADC8"/>
<path d="M1.46809 10.2766H1.95745V9.78723H1.46809V10.2766Z" fill="#7DADC8"/>
<path d="M1.95745 9.78723H2.44681V9.29787H1.95745V9.78723Z" fill="#7DADC8"/>
<path d="M2.44681 9.29787H2.93617V8.80851H2.44681V9.29787Z" fill="#7DADC8"/>
<path d="M2.93617 8.80851H3.42553V8.31915H2.93617V8.80851Z" fill="#7DADC8"/>
<path d="M3.42553 8.31915H3.91489V7.82979H3.42553V8.31915Z" fill="#7DADC8"/>
<path d="M3.91489 7.82979H4.40426V7.34043H3.91489V7.82979Z" fill="#7DADC8"/>
<path d="M4.40426 7.34043H4.89362V6.85106H4.40426V7.34043Z" fill="#7DADC8"/>
<path d="M4.89362 6.85106H5.38298V6.3617H4.89362V6.85106Z" fill="#7DADC8"/>
<path d="M5.38298 6.3617H5.87234V5.87234H5.38298V6.3617Z" fill="#7DADC8"/>
<path d="M5.87234 5.87234H6.3617V5.38298H5.87234V5.87234Z" fill="#7DADC8"/>
<path d="M6.3617 5.38298H6.85106V4.89362H6.3617V5.38298Z" fill="#7DADC8"/>
<path d="M6.85106 4.89362H7.34043V4.40426H6.85106V4.89362Z" fill="#7DADC8"/>
<path d="M7.34043 4.40426H7.82979V3.91489H7.34043V4.40426Z" fill="#7DADC8"/>
<path d="M7.82979 3.91489H8.31915V3.42553H7.82979V3.91489Z" fill="#7DADC8"/>
<path d="M8.31915 3.42553H8.80851V2.93617H8.31915V3.42553Z" fill="#7DADC8"/>
<path d="M8.80851 2.93617H9.29787V2.44681H8.80851V2.93617Z" fill="#7DADC8"/>
<path d="M9.29787 2.44681H9.78723V1.95745H9.29787V2.44681Z" fill="#7DADC8"/>
<path d="M9.78723 1.95745H10.2766V1.46809H9.78723V1.95745Z" fill="#7DADC8"/>
<path d="M10.2766 1.46809H10.766V0.978723H10.2766V1.46809Z" fill="#7DADC8"/>
<path d="M10.766 0.978723H11.2553V0.489362H10.766V0.978723Z" fill="#7DADC8"/>
<path d="M11.2553 0.489362H11.7447V0H11.2553V0.489362Z" fill="#7DADC8"/>
<path d="M0.489362 12.234H0.978723V11.7447H0.489362V12.234Z" fill="#7DADC8"/>
<path d="M0.978723 12.7234H1.46809V12.234H0.978723V12.7234Z" fill="#7DADC8"/>
<path d="M1.46809 13.2128H1.95745V12.7234H1.46809V13.2128Z" fill="#7DADC8"/>
<path d="M1.95745 13.7021H2.44681V13.2128H1.95745V13.7021Z" fill="#7DADC8"/>
<path d="M2.44681 14.1915H2.93617V13.7021H2.44681V14.1915Z" fill="#7DADC8"/>
<path d="M2.93617 14.6809H3.42553V14.1915H2.93617V14.6809Z" fill="#7DADC8"/>
<path d="M3.42553 15.1702H3.91489V14.6809H3.42553V15.1702Z" fill="#7DADC8"/>
<path d="M3.91489 15.6596H4.40426V15.1702H3.91489V15.6596Z" fill="#7DADC8"/>
<path d="M4.40426 16.1489H4.89362V15.6596H4.40426V16.1489Z" fill="#7DADC8"/>
<path d="M4.89362 16.6383H5.38298V16.1489H4.89362V16.6383Z" fill="#7DADC8"/>
<path d="M5.38298 17.1277H5.87234V16.6383H5.38298V17.1277Z" fill="#7DADC8"/>
<path d="M5.87234 17.617H6.3617V17.1277H5.87234V17.617Z" fill="#7DADC8"/>
<path d="M6.3617 18.1064H6.85106V17.617H6.3617V18.1064Z" fill="#7DADC8"/>
<path d="M6.85106 18.5957H7.34043V18.1064H6.85106V18.5957Z" fill="#7DADC8"/>
<path d="M7.34043 19.0851H7.82979V18.5957H7.34043V19.0851Z" fill="#7DADC8"/>
<path d="M7.82979 19.5745H8.31915V19.0851H7.82979V19.5745Z" fill="#7DADC8"/>
<path d="M8.31915 20.0638H8.80851V19.5745H8.31915V20.0638Z" fill="#7DADC8"/>
<path d="M8.80851 20.5532H9.29787V20.0638H8.80851V20.5532Z" fill="#7DADC8"/>
<path d="M9.29787 21.0426H9.78723V20.5532H9.29787V21.0426Z" fill="#7DADC8"/>
<path d="M9.78723 21.5319H10.2766V21.0426H9.78723V21.5319Z" fill="#7DADC8"/>
<path d="M10.2766 22.0213H10.766V21.5319H10.2766V22.0213Z" fill="#7DADC8"/>
<path d="M10.766 22.5106H11.2553V22.0213H10.766V22.5106Z" fill="#7DADC8"/>
<path d="M11.2553 23H11.7447V22.5106H11.2553V23Z" fill="#7DADC8"/>
<path d="M0 11.7447H0.489362V11.2553H0V11.7447Z" fill="#7DADC8"/>
<path d="M10.2766 11.2553H10.766V10.766H10.2766V11.2553Z" fill="#7DADC8"/>
<path d="M10.2766 10.766H10.766V10.2766H10.2766V10.766Z" fill="#7DADC8"/>
<path d="M9.78723 10.766H10.2766V10.2766H9.78723V10.766Z" fill="#7DADC8"/>
<path d="M9.78723 10.2766H10.2766V9.78723H9.78723V10.2766Z" fill="#7DADC8"/>
<path d="M9.29787 10.2766H9.78723V9.78723H9.29787V10.2766Z" fill="#7DADC8"/>
<path d="M9.29787 9.78723H9.78723V9.29787H9.29787V9.78723Z" fill="#7DADC8"/>
<path d="M8.80851 9.78723H9.29787V9.29787H8.80851V9.78723Z" fill="#7DADC8"/>
<path d="M8.80851 9.29787H9.29787V8.80851H8.80851V9.29787Z" fill="#7DADC8"/>
<path d="M9.29787 9.29787H9.78723V8.80851H9.29787V9.29787Z" fill="#7DADC8"/>
<path d="M9.78723 9.78723H10.2766V9.29787H9.78723V9.78723Z" fill="#7DADC8"/>
<path d="M10.2766 10.2766H10.766V9.78723H10.2766V10.2766Z" fill="#7DADC8"/>
<path d="M10.766 10.766H11.2553V10.2766H10.766V10.766Z" fill="#7DADC8"/>
<path d="M8.31915 9.29787H8.80851V8.80851H8.31915V9.29787Z" fill="#7DADC8"/>
<path d="M8.31915 8.80851H8.80851V8.31915H8.31915V8.80851Z" fill="#7DADC8"/>
<path d="M8.80851 8.80851H9.29787V8.31915H8.80851V8.80851Z" fill="#7DADC8"/>
<path d="M10.2766 11.7447H10.766V12.234H10.2766V11.7447Z" fill="#7DADC8"/>
<path d="M10.2766 12.234H10.766V12.7234H10.2766V12.234Z" fill="#7DADC8"/>
<path d="M9.78723 12.234H10.2766V12.7234H9.78723V12.234Z" fill="#7DADC8"/>
<path d="M9.78723 12.7234H10.2766V13.2128H9.78723V12.7234Z" fill="#7DADC8"/>
<path d="M9.29787 12.7234H9.78723V13.2128H9.29787V12.7234Z" fill="#7DADC8"/>
<path d="M9.29787 13.2128H9.78723V13.7021H9.29787V13.2128Z" fill="#7DADC8"/>
<path d="M8.80851 13.2128H9.29787V13.7021H8.80851V13.2128Z" fill="#7DADC8"/>
<path d="M8.80851 13.7021H9.29787V14.1915H8.80851V13.7021Z" fill="#7DADC8"/>
<path d="M9.29787 13.7021H9.78723V14.1915H9.29787V13.7021Z" fill="#7DADC8"/>
<path d="M9.78723 13.2128H10.2766V13.7021H9.78723V13.2128Z" fill="#7DADC8"/>
<path d="M10.2766 12.7234H10.766V13.2128H10.2766V12.7234Z" fill="#7DADC8"/>
<path d="M10.766 12.234H11.2553V12.7234H10.766V12.234Z" fill="#7DADC8"/>
<path d="M8.31915 13.7021H8.80851V14.1915H8.31915V13.7021Z" fill="#7DADC8"/>
<path d="M8.31915 14.1915H8.80851V14.6809H8.31915V14.1915Z" fill="#7DADC8"/>
<path d="M8.80851 14.1915H9.29787V14.6809H8.80851V14.1915Z" fill="#7DADC8"/>
<path d="M12.7234 11.2553H12.234V10.766H12.7234V11.2553Z" fill="#7DADC8"/>
<path d="M12.7234 10.766H12.234V10.2766H12.7234V10.766Z" fill="#7DADC8"/>
<path d="M13.2128 10.766H12.7234V10.2766H13.2128V10.766Z" fill="#7DADC8"/>
<path d="M13.2128 10.2766H12.7234V9.78723H13.2128V10.2766Z" fill="#7DADC8"/>
<path d="M13.7021 10.2766H13.2128V9.78723H13.7021V10.2766Z" fill="#7DADC8"/>
<path d="M13.7021 9.78723H13.2128V9.29787H13.7021V9.78723Z" fill="#7DADC8"/>
<path d="M14.1915 9.78723H13.7021V9.29787H14.1915V9.78723Z" fill="#7DADC8"/>
<path d="M14.1915 9.29787H13.7021V8.80851H14.1915V9.29787Z" fill="#7DADC8"/>
<path d="M13.7021 9.29787H13.2128V8.80851H13.7021V9.29787Z" fill="#7DADC8"/>
<path d="M13.2128 9.78723H12.7234V9.29787H13.2128V9.78723Z" fill="#7DADC8"/>
<path d="M12.7234 10.2766H12.234V9.78723H12.7234V10.2766Z" fill="#7DADC8"/>
<path d="M12.234 10.766H11.7447V10.2766H12.234V10.766Z" fill="#7DADC8"/>
<path d="M14.6809 9.29787H14.1915V8.80851H14.6809V9.29787Z" fill="#7DADC8"/>
<path d="M14.6809 8.80851H14.1915V8.31915H14.6809V8.80851Z" fill="#7DADC8"/>
<path d="M14.1915 8.80851H13.7021V8.31915H14.1915V8.80851Z" fill="#7DADC8"/>
<path d="M12.7234 11.7447H12.234V12.234H12.7234V11.7447Z" fill="#7DADC8"/>
<path d="M12.7234 12.234H12.234V12.7234H12.7234V12.234Z" fill="#7DADC8"/>
<path d="M13.2128 12.234H12.7234V12.7234H13.2128V12.234Z" fill="#7DADC8"/>
<path d="M13.2128 12.7234H12.7234V13.2128H13.2128V12.7234Z" fill="#7DADC8"/>
<path d="M13.7021 12.7234H13.2128V13.2128H13.7021V12.7234Z" fill="#7DADC8"/>
<path d="M13.7021 13.2128H13.2128V13.7021H13.7021V13.2128Z" fill="#7DADC8"/>
<path d="M14.1915 13.2128H13.7021V13.7021H14.1915V13.2128Z" fill="#7DADC8"/>
<path d="M14.1915 13.7021H13.7021V14.1915H14.1915V13.7021Z" fill="#7DADC8"/>
<path d="M13.7021 13.7021H13.2128V14.1915H13.7021V13.7021Z" fill="#7DADC8"/>
<path d="M13.2128 13.2128H12.7234V13.7021H13.2128V13.2128Z" fill="#7DADC8"/>
<path d="M12.7234 12.7234H12.234V13.2128H12.7234V12.7234Z" fill="#7DADC8"/>
<path d="M12.234 12.234H11.7447V12.7234H12.234V12.234Z" fill="#7DADC8"/>
<path d="M14.6809 13.7021H14.1915V14.1915H14.6809V13.7021Z" fill="#7DADC8"/>
<path d="M14.6809 14.1915H14.1915V14.6809H14.6809V14.1915Z" fill="#7DADC8"/>
<path d="M14.1915 14.1915H13.7021V14.6809H14.1915V14.1915Z" fill="#7DADC8"/>
<path d="M10.766 11.2553H11.2553V10.766H10.766V11.2553Z" fill="#7DADC8"/>
<path d="M10.766 12.234H11.2553V11.7447H10.766V12.234Z" fill="#7DADC8"/>
<path d="M11.7447 11.2553H12.234V10.766H11.7447V11.2553Z" fill="#7DADC8"/>
<path d="M11.7447 12.234H12.234V11.7447H11.7447V12.234Z" fill="#7DADC8"/>
<path d="M5.87234 11.7447H10.766V11.2553H5.87234V11.7447Z" fill="#7DADC8"/>
<path d="M5.87234 7.82979H6.3617V8.31915H5.87234V7.82979Z" fill="#7DADC8"/>
<path d="M5.38298 7.82979H5.87234V8.31915H5.38298V7.82979Z" fill="#7DADC8"/>
<path d="M4.89362 7.82979H5.38298V8.31915H4.89362V7.82979Z" fill="#7DADC8"/>
<path d="M4.40426 7.82979H4.89362V8.31915H4.40426V7.82979Z" fill="#7DADC8"/>
<path d="M4.40426 8.31915H4.89362V8.80851H4.40426V8.31915Z" fill="#7DADC8"/>
<path d="M3.91489 8.31915H4.40426V8.80851H3.91489V8.31915Z" fill="#7DADC8"/>
<path d="M3.91489 8.80851H4.40426V9.29787H3.91489V8.80851Z" fill="#7DADC8"/>
<path d="M3.91489 9.29787H4.40426V9.78723H3.91489V9.29787Z" fill="#7DADC8"/>
<path d="M3.91489 9.78723H4.40426V10.2766H3.91489V9.78723Z" fill="#7DADC8"/>
<path d="M4.40426 9.78723H4.89362V10.2766H4.40426V9.78723Z" fill="#7DADC8"/>
<path d="M4.40426 10.2766H4.89362V10.766H4.40426V10.2766Z" fill="#7DADC8"/>
<path d="M4.89362 10.2766H5.38298V10.766H4.89362V10.2766Z" fill="#7DADC8"/>
<path d="M4.89362 10.766H5.38298V11.2553H4.89362V10.766Z" fill="#7DADC8"/>
<path d="M5.38298 10.766H5.87234V11.2553H5.38298V10.766Z" fill="#7DADC8"/>
<path d="M5.87234 8.31915H6.3617V8.80851H5.87234V8.31915Z" fill="#7DADC8"/>
<path d="M6.3617 8.31915H6.85106V8.80851H6.3617V8.31915Z" fill="#7DADC8"/>
<path d="M6.3617 8.80851H6.85106V9.29787H6.3617V8.80851Z" fill="#7DADC8"/>
<path d="M6.3617 9.29787H6.85106V9.78723H6.3617V9.29787Z" fill="#7DADC8"/>
<path d="M5.87234 9.29787H6.3617V9.78723H5.87234V9.29787Z" fill="#7DADC8"/>
<path d="M5.87234 15.1702H6.3617V14.6809H5.87234V15.1702Z" fill="#7DADC8"/>
<path d="M5.38298 15.1702H5.87234V14.6809H5.38298V15.1702Z" fill="#7DADC8"/>
<path d="M4.89362 15.1702H5.38298V14.6809H4.89362V15.1702Z" fill="#7DADC8"/>
<path d="M4.40426 15.1702H4.89362V14.6809H4.40426V15.1702Z" fill="#7DADC8"/>
<path d="M4.40426 14.6809H4.89362V14.1915H4.40426V14.6809Z" fill="#7DADC8"/>
<path d="M3.91489 14.6809H4.40426V14.1915H3.91489V14.6809Z" fill="#7DADC8"/>
<path d="M3.91489 14.1915H4.40426V13.7021H3.91489V14.1915Z" fill="#7DADC8"/>
<path d="M3.91489 13.7021H4.40426V13.2128H3.91489V13.7021Z" fill="#7DADC8"/>
<path d="M3.91489 13.2128H4.40426V12.7234H3.91489V13.2128Z" fill="#7DADC8"/>
<path d="M4.40426 13.2128H4.89362V12.7234H4.40426V13.2128Z" fill="#7DADC8"/>
<path d="M4.40426 12.7234H4.89362V12.234H4.40426V12.7234Z" fill="#7DADC8"/>
<path d="M4.89362 12.7234H5.38298V12.234H4.89362V12.7234Z" fill="#7DADC8"/>
<path d="M4.89362 12.234H5.38298V11.7447H4.89362V12.234Z" fill="#7DADC8"/>
<path d="M5.38298 12.234H5.87234V11.7447H5.38298V12.234Z" fill="#7DADC8"/>
<path d="M5.87234 14.6809H6.3617V14.1915H5.87234V14.6809Z" fill="#7DADC8"/>
<path d="M6.3617 14.6809H6.85106V14.1915H6.3617V14.6809Z" fill="#7DADC8"/>
<path d="M6.3617 14.1915H6.85106V13.7021H6.3617V14.1915Z" fill="#7DADC8"/>
<path d="M6.3617 13.7021H6.85106V13.2128H6.3617V13.7021Z" fill="#7DADC8"/>
<path d="M5.87234 13.7021H6.3617V13.2128H5.87234V13.7021Z" fill="#7DADC8"/>
<path d="M3.42553 10.766H3.91489V11.2553H3.42553V10.766Z" fill="#7DADC8"/>
<path d="M3.42553 11.2553H3.91489V11.7447H3.42553V11.2553Z" fill="#7DADC8"/>
<path d="M2.93617 11.2553H3.42553V11.7447H2.93617V11.2553Z" fill="#7DADC8"/>
<path d="M3.91489 11.2553H4.40426V11.7447H3.91489V11.2553Z" fill="#7DADC8"/>
<path d="M3.42553 11.7447H3.91489V12.234H3.42553V11.7447Z" fill="#7DADC8"/>
<path d="M3.42553 8.80851H3.91489V9.29787H3.42553V8.80851Z" fill="#7DADC8"/>
<path d="M3.42553 9.29787H3.91489V9.78723H3.42553V9.29787Z" fill="#7DADC8"/>
<path d="M2.93617 9.29787H3.42553V9.78723H2.93617V9.29787Z" fill="#7DADC8"/>
<path d="M2.93617 13.7021H3.42553V13.2128H2.93617V13.7021Z" fill="#7DADC8"/>
<path d="M2.93617 9.78723H3.42553V10.2766H2.93617V9.78723Z" fill="#7DADC8"/>
<path d="M2.93617 13.2128H3.42553V12.7234H2.93617V13.2128Z" fill="#7DADC8"/>
<path d="M3.42553 13.7021H3.91489V13.2128H3.42553V13.7021Z" fill="#7DADC8"/>
<path d="M3.42553 14.1915H3.91489V13.7021H3.42553V14.1915Z" fill="#7DADC8"/>
<path d="M2.44681 9.78723H2.93617V10.2766H2.44681V9.78723Z" fill="#7DADC8"/>
<path d="M2.44681 13.2128H2.93617V12.7234H2.44681V13.2128Z" fill="#7DADC8"/>
<path d="M2.44681 10.2766H2.93617V10.766H2.44681V10.2766Z" fill="#7DADC8"/>
<path d="M2.44681 12.7234H2.93617V12.234H2.44681V12.7234Z" fill="#7DADC8"/>
<path d="M0.978723 11.7447H1.46809V11.2553H0.978723V11.7447Z" fill="#7DADC8"/>
<path d="M1.95745 10.2766H2.44681V10.766H1.95745V10.2766Z" fill="#7DADC8"/>
<path d="M1.95745 12.7234H2.44681V12.234H1.95745V12.7234Z" fill="#7DADC8"/>
<path d="M1.46809 11.7447H1.95745V11.2553H1.46809V11.7447Z" fill="#7DADC8"/>
<path d="M1.95745 10.766H2.44681V11.2553H1.95745V10.766Z" fill="#7DADC8"/>
<path d="M1.95745 12.234H2.44681V11.7447H1.95745V12.234Z" fill="#7DADC8"/>
<path d="M1.46809 10.766H1.95745V11.2553H1.46809V10.766Z" fill="#7DADC8"/>
<path d="M1.46809 12.234H1.95745V11.7447H1.46809V12.234Z" fill="#7DADC8"/>
<path d="M17.1277 11.7447H12.234V11.2553H17.1277V11.7447Z" fill="#7DADC8"/>
<path d="M17.1277 7.82979H16.6383V8.31915H17.1277V7.82979Z" fill="#7DADC8"/>
<path d="M17.617 7.82979H17.1277V8.31915H17.617V7.82979Z" fill="#7DADC8"/>
<path d="M18.1064 7.82979H17.617V8.31915H18.1064V7.82979Z" fill="#7DADC8"/>
<path d="M18.5957 7.82979H18.1064V8.31915H18.5957V7.82979Z" fill="#7DADC8"/>
<path d="M18.5957 8.31915H18.1064V8.80851H18.5957V8.31915Z" fill="#7DADC8"/>
<path d="M19.0851 8.31915H18.5957V8.80851H19.0851V8.31915Z" fill="#7DADC8"/>
<path d="M19.0851 8.80851H18.5957V9.29787H19.0851V8.80851Z" fill="#7DADC8"/>
<path d="M19.0851 9.29787H18.5957V9.78723H19.0851V9.29787Z" fill="#7DADC8"/>
<path d="M19.0851 9.78723H18.5957V10.2766H19.0851V9.78723Z" fill="#7DADC8"/>
<path d="M18.5957 9.78723H18.1064V10.2766H18.5957V9.78723Z" fill="#7DADC8"/>
<path d="M18.5957 10.2766H18.1064V10.766H18.5957V10.2766Z" fill="#7DADC8"/>
<path d="M18.1064 10.2766H17.617V10.766H18.1064V10.2766Z" fill="#7DADC8"/>
<path d="M18.1064 10.766H17.617V11.2553H18.1064V10.766Z" fill="#7DADC8"/>
<path d="M17.617 10.766H17.1277V11.2553H17.617V10.766Z" fill="#7DADC8"/>
<path d="M17.1277 8.31915H16.6383V8.80851H17.1277V8.31915Z" fill="#7DADC8"/>
<path d="M16.6383 8.31915H16.1489V8.80851H16.6383V8.31915Z" fill="#7DADC8"/>
<path d="M16.6383 8.80851H16.1489V9.29787H16.6383V8.80851Z" fill="#7DADC8"/>
<path d="M16.6383 9.29787H16.1489V9.78723H16.6383V9.29787Z" fill="#7DADC8"/>
<path d="M17.1277 9.29787H16.6383V9.78723H17.1277V9.29787Z" fill="#7DADC8"/>
<path d="M17.1277 15.1702H16.6383V14.6809H17.1277V15.1702Z" fill="#7DADC8"/>
<path d="M17.617 15.1702H17.1277V14.6809H17.617V15.1702Z" fill="#7DADC8"/>
<path d="M18.1064 15.1702H17.617V14.6809H18.1064V15.1702Z" fill="#7DADC8"/>
<path d="M18.5957 15.1702H18.1064V14.6809H18.5957V15.1702Z" fill="#7DADC8"/>
<path d="M18.5957 14.6809H18.1064V14.1915H18.5957V14.6809Z" fill="#7DADC8"/>
<path d="M19.0851 14.6809H18.5957V14.1915H19.0851V14.6809Z" fill="#7DADC8"/>
<path d="M19.0851 14.1915H18.5957V13.7021H19.0851V14.1915Z" fill="#7DADC8"/>
<path d="M19.0851 13.7021H18.5957V13.2128H19.0851V13.7021Z" fill="#7DADC8"/>
<path d="M19.0851 13.2128H18.5957V12.7234H19.0851V13.2128Z" fill="#7DADC8"/>
<path d="M18.5957 13.2128H18.1064V12.7234H18.5957V13.2128Z" fill="#7DADC8"/>
<path d="M18.5957 12.7234H18.1064V12.234H18.5957V12.7234Z" fill="#7DADC8"/>
<path d="M18.1064 12.7234H17.617V12.234H18.1064V12.7234Z" fill="#7DADC8"/>
<path d="M18.1064 12.234H17.617V11.7447H18.1064V12.234Z" fill="#7DADC8"/>
<path d="M17.617 12.234H17.1277V11.7447H17.617V12.234Z" fill="#7DADC8"/>
<path d="M17.1277 14.6809H16.6383V14.1915H17.1277V14.6809Z" fill="#7DADC8"/>
<path d="M16.6383 14.6809H16.1489V14.1915H16.6383V14.6809Z" fill="#7DADC8"/>
<path d="M16.6383 14.1915H16.1489V13.7021H16.6383V14.1915Z" fill="#7DADC8"/>
<path d="M16.6383 13.7021H16.1489V13.2128H16.6383V13.7021Z" fill="#7DADC8"/>
<path d="M17.1277 13.7021H16.6383V13.2128H17.1277V13.7021Z" fill="#7DADC8"/>
<path d="M19.5745 10.766H19.0851V11.2553H19.5745V10.766Z" fill="#7DADC8"/>
<path d="M19.5745 11.2553H19.0851V11.7447H19.5745V11.2553Z" fill="#7DADC8"/>
<path d="M20.0638 11.2553H19.5745V11.7447H20.0638V11.2553Z" fill="#7DADC8"/>
<path d="M19.0851 11.2553H18.5957V11.7447H19.0851V11.2553Z" fill="#7DADC8"/>
<path d="M19.5745 11.7447H19.0851V12.234H19.5745V11.7447Z" fill="#7DADC8"/>
<path d="M19.5745 8.80851H19.0851V9.29787H19.5745V8.80851Z" fill="#7DADC8"/>
<path d="M19.5745 9.29787H19.0851V9.78723H19.5745V9.29787Z" fill="#7DADC8"/>
<path d="M20.0638 9.29787H19.5745V9.78723H20.0638V9.29787Z" fill="#7DADC8"/>
<path d="M20.0638 13.7021H19.5745V13.2128H20.0638V13.7021Z" fill="#7DADC8"/>
<path d="M20.0638 9.78723H19.5745V10.2766H20.0638V9.78723Z" fill="#7DADC8"/>
<path d="M20.0638 13.2128H19.5745V12.7234H20.0638V13.2128Z" fill="#7DADC8"/>
<path d="M19.5745 13.7021H19.0851V13.2128H19.5745V13.7021Z" fill="#7DADC8"/>
<path d="M19.5745 14.1915H19.0851V13.7021H19.5745V14.1915Z" fill="#7DADC8"/>
<path d="M20.5532 9.78723H20.0638V10.2766H20.5532V9.78723Z" fill="#7DADC8"/>
<path d="M20.5532 13.2128H20.0638V12.7234H20.5532V13.2128Z" fill="#7DADC8"/>
<path d="M20.5532 10.2766H20.0638V10.766H20.5532V10.2766Z" fill="#7DADC8"/>
<path d="M20.5532 12.7234H20.0638V12.234H20.5532V12.7234Z" fill="#7DADC8"/>
<path d="M22.0213 11.7447H21.5319V11.2553H22.0213V11.7447Z" fill="#7DADC8"/>
<path d="M21.0426 10.2766H20.5532V10.766H21.0426V10.2766Z" fill="#7DADC8"/>
<path d="M21.0426 12.7234H20.5532V12.234H21.0426V12.7234Z" fill="#7DADC8"/>
<path d="M21.5319 11.7447H21.0426V11.2553H21.5319V11.7447Z" fill="#7DADC8"/>
<path d="M21.0426 10.766H20.5532V11.2553H21.0426V10.766Z" fill="#7DADC8"/>
<path d="M21.0426 12.234H20.5532V11.7447H21.0426V12.234Z" fill="#7DADC8"/>
<path d="M21.5319 10.766H21.0426V11.2553H21.5319V10.766Z" fill="#7DADC8"/>
<path d="M21.5319 12.234H21.0426V11.7447H21.5319V12.234Z" fill="#7DADC8"/>
<path d="M11.7447 5.87234V10.766H11.2553V5.87234H11.7447Z" fill="#7DADC8"/>
<path d="M7.82979 5.87234V6.3617H8.31915V5.87234H7.82979Z" fill="#7DADC8"/>
<path d="M7.82979 5.38298V5.87234H8.31915V5.38298H7.82979Z" fill="#7DADC8"/>
<path d="M7.82979 4.89362V5.38298H8.31915V4.89362H7.82979Z" fill="#7DADC8"/>
<path d="M7.82979 4.40426V4.89362H8.31915V4.40426H7.82979Z" fill="#7DADC8"/>
<path d="M8.31915 4.40426V4.89362H8.80851V4.40426H8.31915Z" fill="#7DADC8"/>
<path d="M8.31915 3.91489V4.40426H8.80851V3.91489H8.31915Z" fill="#7DADC8"/>
<path d="M8.80851 3.91489V4.40426H9.29787V3.91489H8.80851Z" fill="#7DADC8"/>
<path d="M9.29787 3.91489V4.40426H9.78723V3.91489H9.29787Z" fill="#7DADC8"/>
<path d="M9.78723 3.91489V4.40426H10.2766V3.91489H9.78723Z" fill="#7DADC8"/>
<path d="M9.78723 4.40426V4.89362H10.2766V4.40426H9.78723Z" fill="#7DADC8"/>
<path d="M10.2766 4.40426V4.89362H10.766V4.40426H10.2766Z" fill="#7DADC8"/>
<path d="M10.2766 4.89362V5.38298H10.766V4.89362H10.2766Z" fill="#7DADC8"/>
<path d="M10.766 4.89362V5.38298H11.2553V4.89362H10.766Z" fill="#7DADC8"/>
<path d="M10.766 5.38298V5.87234H11.2553V5.38298H10.766Z" fill="#7DADC8"/>
<path d="M8.31915 5.87234V6.3617H8.80851V5.87234H8.31915Z" fill="#7DADC8"/>
<path d="M8.31915 6.3617V6.85106H8.80851V6.3617H8.31915Z" fill="#7DADC8"/>
<path d="M8.80851 6.3617V6.85106H9.29787V6.3617H8.80851Z" fill="#7DADC8"/>
<path d="M9.29787 6.3617V6.85106H9.78723V6.3617H9.29787Z" fill="#7DADC8"/>
<path d="M9.29787 5.87234V6.3617H9.78723V5.87234H9.29787Z" fill="#7DADC8"/>
<path d="M15.1702 5.87234V6.3617H14.6809V5.87234H15.1702Z" fill="#7DADC8"/>
<path d="M15.1702 5.38298V5.87234H14.6809V5.38298H15.1702Z" fill="#7DADC8"/>
<path d="M15.1702 4.89362V5.38298H14.6809V4.89362H15.1702Z" fill="#7DADC8"/>
<path d="M15.1702 4.40426V4.89362H14.6809V4.40426L15.1702 4.40426Z" fill="#7DADC8"/>
<path d="M14.6809 4.40426V4.89362H14.1915V4.40426H14.6809Z" fill="#7DADC8"/>
<path d="M14.6809 3.91489V4.40426H14.1915V3.91489L14.6809 3.91489Z" fill="#7DADC8"/>
<path d="M14.1915 3.91489V4.40426H13.7021V3.91489H14.1915Z" fill="#7DADC8"/>
<path d="M13.7021 3.91489V4.40426H13.2128V3.91489H13.7021Z" fill="#7DADC8"/>
<path d="M13.2128 3.91489V4.40426L12.7234 4.40426V3.91489L13.2128 3.91489Z" fill="#7DADC8"/>
<path d="M13.2128 4.40426V4.89362L12.7234 4.89362V4.40426L13.2128 4.40426Z" fill="#7DADC8"/>
<path d="M12.7234 4.40426V4.89362H12.234V4.40426H12.7234Z" fill="#7DADC8"/>
<path d="M12.7234 4.89362V5.38298H12.234V4.89362H12.7234Z" fill="#7DADC8"/>
<path d="M12.234 4.89362V5.38298H11.7447V4.89362H12.234Z" fill="#7DADC8"/>
<path d="M12.234 5.38298V5.87234H11.7447V5.38298H12.234Z" fill="#7DADC8"/>
<path d="M14.6809 5.87234V6.3617H14.1915V5.87234H14.6809Z" fill="#7DADC8"/>
<path d="M14.6809 6.3617V6.85106H14.1915V6.3617H14.6809Z" fill="#7DADC8"/>
<path d="M14.1915 6.3617V6.85106H13.7021V6.3617H14.1915Z" fill="#7DADC8"/>
<path d="M13.7021 6.3617V6.85106H13.2128V6.3617H13.7021Z" fill="#7DADC8"/>
<path d="M13.7021 5.87234V6.3617H13.2128V5.87234H13.7021Z" fill="#7DADC8"/>
<path d="M10.766 3.42553V3.91489H11.2553V3.42553H10.766Z" fill="#7DADC8"/>
<path d="M11.2553 3.42553V3.91489H11.7447V3.42553H11.2553Z" fill="#7DADC8"/>
<path d="M11.2553 2.93617V3.42553H11.7447V2.93617H11.2553Z" fill="#7DADC8"/>
<path d="M11.2553 3.91489V4.40426H11.7447V3.91489H11.2553Z" fill="#7DADC8"/>
<path d="M11.7447 3.42553V3.91489H12.234V3.42553H11.7447Z" fill="#7DADC8"/>
<path d="M8.80851 3.42553V3.91489H9.29787V3.42553H8.80851Z" fill="#7DADC8"/>
<path d="M9.29787 3.42553V3.91489H9.78723V3.42553H9.29787Z" fill="#7DADC8"/>
<path d="M9.29787 2.93617V3.42553H9.78723V2.93617H9.29787Z" fill="#7DADC8"/>
<path d="M13.7021 2.93617V3.42553H13.2128V2.93617L13.7021 2.93617Z" fill="#7DADC8"/>
<path d="M9.78723 2.93617V3.42553H10.2766V2.93617H9.78723Z" fill="#7DADC8"/>
<path d="M13.2128 2.93617V3.42553H12.7234V2.93617H13.2128Z" fill="#7DADC8"/>
<path d="M13.7021 3.42553V3.91489H13.2128V3.42553H13.7021Z" fill="#7DADC8"/>
<path d="M14.1915 3.42553V3.91489H13.7021V3.42553L14.1915 3.42553Z" fill="#7DADC8"/>
<path d="M9.78723 2.44681V2.93617H10.2766V2.44681H9.78723Z" fill="#7DADC8"/>
<path d="M13.2128 2.44681V2.93617H12.7234V2.44681L13.2128 2.44681Z" fill="#7DADC8"/>
<path d="M10.2766 2.44681V2.93617L10.766 2.93617V2.44681L10.2766 2.44681Z" fill="#7DADC8"/>
<path d="M12.7234 2.44681V2.93617H12.234V2.44681H12.7234Z" fill="#7DADC8"/>
<path d="M11.7447 0.978723V1.46809L11.2553 1.46809V0.978723H11.7447Z" fill="#7DADC8"/>
<path d="M10.2766 1.95745V2.44681L10.766 2.44681V1.95745L10.2766 1.95745Z" fill="#7DADC8"/>
<path d="M12.7234 1.95745V2.44681H12.234V1.95745L12.7234 1.95745Z" fill="#7DADC8"/>
<path d="M11.7447 1.46809V1.95745H11.2553V1.46809L11.7447 1.46809Z" fill="#7DADC8"/>
<path d="M10.766 1.95745V2.44681H11.2553V1.95745H10.766Z" fill="#7DADC8"/>
<path d="M12.234 1.95745V2.44681H11.7447V1.95745H12.234Z" fill="#7DADC8"/>
<path d="M10.766 1.46809V1.95745H11.2553V1.46809L10.766 1.46809Z" fill="#7DADC8"/>
<path d="M12.234 1.46809V1.95745H11.7447V1.46809L12.234 1.46809Z" fill="#7DADC8"/>
<path d="M11.7447 17.1277V12.234H11.2553V17.1277H11.7447Z" fill="#7DADC8"/>
<path d="M7.82979 17.1277V16.6383H8.31915V17.1277H7.82979Z" fill="#7DADC8"/>
<path d="M7.82979 17.617V17.1277H8.31915V17.617H7.82979Z" fill="#7DADC8"/>
<path d="M7.82979 18.1064V17.617H8.31915V18.1064H7.82979Z" fill="#7DADC8"/>
<path d="M7.82979 18.5957V18.1064H8.31915V18.5957H7.82979Z" fill="#7DADC8"/>
<path d="M8.31915 18.5957V18.1064H8.80851V18.5957H8.31915Z" fill="#7DADC8"/>
<path d="M8.31915 19.0851V18.5957H8.80851V19.0851H8.31915Z" fill="#7DADC8"/>
<path d="M8.80851 19.0851V18.5957H9.29787V19.0851H8.80851Z" fill="#7DADC8"/>
<path d="M9.29787 19.0851V18.5957H9.78723V19.0851H9.29787Z" fill="#7DADC8"/>
<path d="M9.78723 19.0851V18.5957H10.2766V19.0851H9.78723Z" fill="#7DADC8"/>
<path d="M9.78723 18.5957V18.1064H10.2766V18.5957H9.78723Z" fill="#7DADC8"/>
<path d="M10.2766 18.5957V18.1064H10.766V18.5957H10.2766Z" fill="#7DADC8"/>
<path d="M10.2766 18.1064V17.617H10.766V18.1064H10.2766Z" fill="#7DADC8"/>
<path d="M10.766 18.1064V17.617H11.2553V18.1064H10.766Z" fill="#7DADC8"/>
<path d="M10.766 17.617V17.1277H11.2553V17.617H10.766Z" fill="#7DADC8"/>
<path d="M8.31915 17.1277V16.6383H8.80851V17.1277H8.31915Z" fill="#7DADC8"/>
<path d="M8.31915 16.6383V16.1489H8.80851V16.6383H8.31915Z" fill="#7DADC8"/>
<path d="M8.80851 16.6383V16.1489H9.29787V16.6383H8.80851Z" fill="#7DADC8"/>
<path d="M9.29787 16.6383V16.1489H9.78723V16.6383H9.29787Z" fill="#7DADC8"/>
<path d="M9.29787 17.1277V16.6383H9.78723V17.1277H9.29787Z" fill="#7DADC8"/>
<path d="M15.1702 17.1277V16.6383H14.6809V17.1277H15.1702Z" fill="#7DADC8"/>
<path d="M15.1702 17.617V17.1277H14.6809V17.617H15.1702Z" fill="#7DADC8"/>
<path d="M15.1702 18.1064V17.617H14.6809V18.1064H15.1702Z" fill="#7DADC8"/>
<path d="M15.1702 18.5957V18.1064H14.6809V18.5957H15.1702Z" fill="#7DADC8"/>
<path d="M14.6809 18.5957V18.1064H14.1915V18.5957H14.6809Z" fill="#7DADC8"/>
<path d="M14.6809 19.0851V18.5957H14.1915V19.0851H14.6809Z" fill="#7DADC8"/>
<path d="M14.1915 19.0851V18.5957H13.7021V19.0851H14.1915Z" fill="#7DADC8"/>
<path d="M13.7021 19.0851V18.5957H13.2128V19.0851H13.7021Z" fill="#7DADC8"/>
<path d="M13.2128 19.0851V18.5957H12.7234V19.0851H13.2128Z" fill="#7DADC8"/>
<path d="M13.2128 18.5957V18.1064H12.7234V18.5957H13.2128Z" fill="#7DADC8"/>
<path d="M12.7234 18.5957V18.1064H12.234V18.5957H12.7234Z" fill="#7DADC8"/>
<path d="M12.7234 18.1064V17.617H12.234V18.1064H12.7234Z" fill="#7DADC8"/>
<path d="M12.234 18.1064V17.617H11.7447V18.1064H12.234Z" fill="#7DADC8"/>
<path d="M12.234 17.617V17.1277H11.7447V17.617H12.234Z" fill="#7DADC8"/>
<path d="M14.6809 17.1277V16.6383H14.1915V17.1277H14.6809Z" fill="#7DADC8"/>
<path d="M14.6809 16.6383V16.1489H14.1915V16.6383H14.6809Z" fill="#7DADC8"/>
<path d="M14.1915 16.6383V16.1489H13.7021V16.6383H14.1915Z" fill="#7DADC8"/>
<path d="M13.7021 16.6383V16.1489H13.2128V16.6383H13.7021Z" fill="#7DADC8"/>
<path d="M13.7021 17.1277V16.6383H13.2128V17.1277H13.7021Z" fill="#7DADC8"/>
<path d="M10.766 19.5745V19.0851H11.2553V19.5745H10.766Z" fill="#7DADC8"/>
<path d="M11.2553 19.5745V19.0851H11.7447V19.5745H11.2553Z" fill="#7DADC8"/>
<path d="M11.2553 20.0638V19.5745H11.7447V20.0638H11.2553Z" fill="#7DADC8"/>
<path d="M11.2553 19.0851V18.5957H11.7447V19.0851H11.2553Z" fill="#7DADC8"/>
<path d="M11.7447 19.5745V19.0851H12.234V19.5745H11.7447Z" fill="#7DADC8"/>
<path d="M8.80851 19.5745V19.0851H9.29787V19.5745H8.80851Z" fill="#7DADC8"/>
<path d="M9.29787 19.5745V19.0851H9.78723V19.5745H9.29787Z" fill="#7DADC8"/>
<path d="M9.29787 20.0638V19.5745H9.78723V20.0638H9.29787Z" fill="#7DADC8"/>
<path d="M13.7021 20.0638V19.5745H13.2128V20.0638H13.7021Z" fill="#7DADC8"/>
<path d="M9.78723 20.0638V19.5745H10.2766V20.0638H9.78723Z" fill="#7DADC8"/>
<path d="M13.2128 20.0638V19.5745H12.7234V20.0638H13.2128Z" fill="#7DADC8"/>
<path d="M13.7021 19.5745V19.0851H13.2128V19.5745H13.7021Z" fill="#7DADC8"/>
<path d="M14.1915 19.5745V19.0851H13.7021V19.5745H14.1915Z" fill="#7DADC8"/>
<path d="M9.78723 20.5532V20.0638H10.2766V20.5532H9.78723Z" fill="#7DADC8"/>
<path d="M13.2128 20.5532V20.0638H12.7234V20.5532H13.2128Z" fill="#7DADC8"/>
<path d="M10.2766 20.5532V20.0638H10.766V20.5532H10.2766Z" fill="#7DADC8"/>
<path d="M12.7234 20.5532V20.0638H12.234V20.5532H12.7234Z" fill="#7DADC8"/>
<path d="M11.7447 22.0213V21.5319H11.2553V22.0213H11.7447Z" fill="#7DADC8"/>
<path d="M10.2766 21.0426V20.5532H10.766V21.0426H10.2766Z" fill="#7DADC8"/>
<path d="M12.7234 21.0426V20.5532H12.234V21.0426H12.7234Z" fill="#7DADC8"/>
<path d="M11.7447 21.5319V21.0426H11.2553V21.5319H11.7447Z" fill="#7DADC8"/>
<path d="M10.766 21.0426V20.5532H11.2553V21.0426H10.766Z" fill="#7DADC8"/>
<path d="M12.234 21.0426V20.5532H11.7447V21.0426H12.234Z" fill="#7DADC8"/>
<path d="M10.766 21.5319V21.0426H11.2553V21.5319H10.766Z" fill="#7DADC8"/>
<path d="M12.234 21.5319V21.0426H11.7447V21.5319H12.234Z" fill="#7DADC8"/>
</svg>
