<svg width="45" height="45" viewBox="0 0 45 45" fill="none" xmlns="http://www.w3.org/2000/svg">
<rect x="0.5" y="0.5" width="44" height="44" rx="22" stroke="#7DADC8"/>
<path d="M17.7143 17.6991L19.3305 16L20.9468 17.6991L19.3305 19.3981L17.7143 17.6991Z" fill="#7DADC8"/>
<path d="M20.9468 17.6991L22.563 16L24.1793 17.6991L22.563 19.3981L20.9468 17.6991Z" fill="#7DADC8"/>
<path d="M24.1793 17.6991L25.7955 16L27.4117 17.6991L25.7955 19.3981L24.1793 17.6991Z" fill="#7DADC8"/>
<path d="M21.3571 26.5971H23.6429V29H21.3571V26.5971Z" fill="#7DADC8"/>
<path d="M23.6429 24.1943H25.9286V26.5971H23.6429V24.1943Z" fill="#7DADC8"/>
<path d="M19.0714 24.1943H21.3571V26.5971H19.0714V24.1943Z" fill="#7DADC8"/>
<path d="M21.3571 21.7914H23.6429V24.1943H21.3571V21.7914Z" fill="#7DADC8"/>
<path d="M25.9286 21.7914H28.2143V24.1943H25.9286V21.7914Z" fill="#7DADC8"/>
<path d="M19.0714 21.7914H16.7857V24.1943H19.0714V21.7914Z" fill="#7DADC8"/>
<path d="M28.2143 19.3886H30.5V21.7914H28.2143V19.3886Z" fill="#7DADC8"/>
<path d="M16.7857 19.3886H14.5V21.7914H16.7857V19.3886Z" fill="#7DADC8"/>
</svg>
