<svg width="32" height="32" viewBox="0 0 32 32" fill="none" xmlns="http://www.w3.org/2000/svg">
<path d="M12.8 12.8H19.2V19.2H12.8V12.8Z" fill="#7DADC8"/>
<path d="M19.2 6.4H25.6V12.8H19.2V6.4Z" fill="#7DADC8"/>
<path d="M25.6 1.39876e-06H32V6.4H25.6V1.39876e-06Z" fill="#7DADC8"/>
<path d="M6.4 19.2H12.8V25.6H6.4V19.2Z" fill="#7DADC8"/>
<path d="M2.79753e-07 25.6H6.4V32H2.79753e-07V25.6Z" fill="#7DADC8"/>
<path d="M19.2 12.8V19.2H12.8V12.8H19.2Z" fill="#7DADC8"/>
<path d="M25.6 19.2L25.6 25.6H19.2L19.2 19.2H25.6Z" fill="#7DADC8"/>
<path d="M32 25.6V32H25.6V25.6H32Z" fill="#7DADC8"/>
<path d="M12.8 6.4V12.8L6.4 12.8L6.4 6.4L12.8 6.4Z" fill="#7DADC8"/>
<path d="M6.4 2.79753e-07V6.4H0L2.79753e-07 0L6.4 2.79753e-07Z" fill="#7DADC8"/>
</svg>
