<?xml version="1.0" encoding="UTF-8" standalone="no"?>
<!-- Created with Inkscape (http://www.inkscape.org/) -->

<svg
   width="511.99997"
   height="511.99997"
   viewBox="0 0 135.46666 135.46666"
   version="1.1"
   id="svg5"
   xmlns="http://www.w3.org/2000/svg"
   xmlns:svg="http://www.w3.org/2000/svg">
  <defs
     id="defs2">
    <clipPath
       clipPathUnits="userSpaceOnUse"
       id="clipPath838">
      <path
         d="M 0,595.276 H 841.89 V 0 H 0 Z"
         id="path836" />
    </clipPath>
  </defs>
  <g
     id="layer1"
     transform="translate(-41.588753,-100.87386)">
    <circle
       style="fill:none;stroke-width:0.820208;stroke-linecap:round;paint-order:stroke markers fill"
       id="path1210"
       cx="109.32208"
       cy="168.60719"
       r="67.73333" />
    <g
       id="g1320"
       transform="matrix(2.4223355,0,0,2.4223355,-85.778977,-405.73698)"
       style="stroke-width:0.412824">
      <g
         id="g964"
         transform="matrix(0.35277777,0,0,-0.35277777,83.996364,238.33308)"
         style="stroke-width:0.412824">
        <path
           d="M 0,0 C -1.941,-0.001 -3.704,1.259 -4.136,2.464 -4.942,4.713 -3.14,5.959 -0.88,6.336 1.387,6.715 3.638,7.185 6.105,7.654 6.198,3.275 3.768,0.002 0,0 m -7.437,4.883 c -1.251,-2.877 -3.248,-4.98 -6.745,-4.881 -3.65,0.104 -5.67,2.339 -6.638,5.511 -1.329,4.355 -3.64,6.965 -8.598,5.574 0.108,5.777 2.82,7.777 8.452,7.145 2.642,3.171 4.801,5.763 7.527,9.036 2.499,-3.334 4.623,-6.167 7.115,-9.492 5.973,-0.142 8.261,-2.1 7.827,-7.846 -4.993,1.907 -7.202,-1.052 -8.94,-5.047 M -23.131,3.385 c -0.432,-1.205 -2.184,-2.464 -4.135,-2.464 -3.769,0 -6.199,3.274 -6.105,7.654 2.467,-0.47 4.718,-0.94 6.985,-1.318 2.26,-0.378 4.062,-1.623 3.255,-3.872 M 53.622,28.871 C 41.55,45.878 21.945,37.876 13.156,32.31 10.539,30.653 6.784,28.477 6.784,28.477 c 0,0 -2.679,4.775 -12.034,19.181 -0.15,0.232 -0.823,1.295 -1.06,1.643 -3.653,5.37 -12.53,6.195 -24.158,1.939 -1.569,-0.575 -1.792,-2.218 -2.091,-3.862 -1.058,-5.798 -3.494,-16.121 -10.588,-25.22 -3.225,-4.137 -6.683,-7.421 -10.129,-10.003 8.345,-13.653 32.008,-53.402 32.008,-53.402 3.036,-5.197 9.693,-6.976 14.916,-3.985 l 41.394,23.701 c 0,0 39.857,20.426 18.58,50.402"
           style="fill:#7dadc8;fill-opacity:1;fill-rule:nonzero;stroke:none;stroke-width:0.412824"
           id="path966" />
      </g>
      <g
         id="g968"
         transform="matrix(0.35277777,0,0,-0.35277777,66.268011,230.12281)"
         style="stroke-width:0.412824">
        <path
           d="m 0,0 c -10.128,-11.104 -22.296,-16.495 -27.177,-12.043 -4.882,4.453 -0.629,17.064 9.499,28.167 C -7.55,27.228 4.618,32.62 9.499,28.167 14.381,23.714 10.128,11.104 0,0"
           style="fill:#bd1622;fill-opacity:1;fill-rule:nonzero;stroke:none;stroke-width:0.412824"
           id="path970" />
      </g>
      <g
         id="g972"
         transform="matrix(0.35277777,0,0,-0.35277777,83.996364,238.33308)"
         style="stroke-width:0.412824">
        <path
           d="M 0,0 C -2.012,0.05 -3.704,1.259 -4.136,2.464 -4.942,4.713 -3.14,5.959 -0.88,6.336 1.387,6.715 3.638,7.185 6.105,7.654 6.198,3.275 3.767,-0.093 0,0 m -7.437,4.883 c -1.251,-2.877 -3.248,-4.98 -6.745,-4.881 -3.643,0.104 -5.661,2.33 -6.631,5.492 -0.012,0.037 -0.028,0.07 -0.04,0.107 -0.505,1.615 -1.147,2.986 -2.007,3.997 -0.113,0.132 -0.23,0.267 -0.352,0.386 -0.179,0.178 -0.368,0.333 -0.565,0.482 -1.362,1.012 -3.173,1.313 -5.641,0.621 0,0.003 0,0.005 0,0.008 -0.013,-0.003 -0.024,-0.003 -0.037,-0.007 0.065,5.753 2.876,7.732 8.489,7.144 2.608,3.177 7.493,8.995 7.527,9.036 2.464,-3.287 4.668,-6.227 7.115,-9.492 2.83,-0.084 5.035,-0.601 6.209,-1.744 C 1.22,14.811 1.725,12.873 1.503,9.93 -3.49,11.837 -5.699,8.878 -7.437,4.883 M -23.131,3.385 c -0.432,-1.205 -2.167,-2.465 -4.135,-2.464 -3.667,0.001 -6.047,3.106 -6.088,7.311 -10e-4,0.111 -0.02,0.214 -0.019,0.326 10e-4,0 0.002,0 0.003,-10e-4 0,0.006 -0.001,0.012 -0.001,0.018 0.775,-0.148 1.503,-0.291 2.242,-0.436 1.607,-0.302 3.174,-0.596 4.721,-0.842 1.702,-0.272 3.142,-1.04 3.409,-2.366 0.105,-0.451 0.077,-0.963 -0.132,-1.546 M 30.822,44.164 C 14.511,57.161 -2.11,44.042 -9.013,36.259 c -2.056,-2.317 -5.061,-5.448 -5.061,-5.448 0,0 -3.897,3.846 -16.876,15.097 -4,3.467 -0.262,-9.451 -15.867,-27.598 C -62.276,0.332 -78.023,8.205 -69.922,0.912 c 8.603,-7.744 48.209,-44.867 48.209,-44.867 4.356,-4.153 11.246,-4.018 15.436,0.302 l 33.209,34.24 c 0,0 32.639,30.669 3.89,53.577"
           style="fill:#bd1622;fill-opacity:1;fill-rule:nonzero;stroke:none;stroke-width:0.412824"
           id="path974" />
      </g>
    </g>
  </g>
</svg>
