<svg viewBox="0 0 44 32" fill="none" xmlns="http://www.w3.org/2000/svg">
<path d="M25.0918 17.1054C24.4788 17.1057 23.9221 16.7062 23.7857 16.3242C23.5311 15.6112 24.1002 15.2162 24.8139 15.0967C25.5298 14.9765 26.2407 14.8275 27.0198 14.6788C27.0492 16.0671 26.2818 17.1047 25.0918 17.1054ZM22.7432 15.5573C22.3481 16.4694 21.7175 17.1361 20.6131 17.1047C19.4605 17.0718 18.8225 16.3632 18.5168 15.3576C18.0971 13.9769 17.3673 13.1495 15.8016 13.5905C15.8357 11.759 16.6921 11.1249 18.4707 11.3253C19.3051 10.32 19.9869 9.49828 20.8478 8.46065C21.637 9.51762 22.3077 10.4158 23.0947 11.4699C24.981 11.5149 25.7035 12.1356 25.5665 13.9573C23.9897 13.3527 23.2921 14.2908 22.7432 15.5573ZM17.787 16.0322C17.6506 16.4142 17.0973 16.8134 16.4812 16.8134C15.2909 16.8134 14.5235 15.7754 14.5532 14.3868C15.3323 14.5358 16.0432 14.6849 16.7591 14.8047C17.4728 14.9245 18.0419 15.3192 17.787 16.0322ZM42.0257 7.95245C38.2133 2.56076 32.0221 5.09761 29.2465 6.86219C28.42 7.38751 27.2342 8.07736 27.2342 8.07736C27.2342 8.07736 26.3882 6.56355 23.4339 1.99645C23.3865 1.9229 23.174 1.5859 23.0991 1.47557C21.9455 -0.226868 19.1421 -0.488415 15.47 0.860853C14.9745 1.04314 14.9041 1.56402 14.8097 2.08521C14.4755 3.92334 13.7063 7.19602 11.466 10.0807C10.4475 11.3922 9.35546 12.4333 8.26721 13.2519C10.9026 17.5803 18.3754 30.1818 18.3754 30.1818C19.3341 31.8294 21.4364 32.3934 23.0859 31.4452L36.1581 23.9313C36.1581 23.9313 48.745 17.4557 42.0257 7.95245Z" fill="#7DADC8"/>
<path d="M9.22168 9.72793C6.02325 13.2482 2.18058 14.9573 0.639161 13.5459C-0.902579 12.1342 0.440522 8.13613 3.63895 4.61617C6.83738 1.09589 10.68 -0.613523 12.2215 0.798203C13.7632 2.20993 12.4201 6.20765 9.22168 9.72793Z" fill="#BD1622"/>
<path d="M25.0918 17.1059C24.4564 17.0901 23.9221 16.7068 23.7857 16.3247C23.5311 15.6118 24.1002 15.2167 24.8139 15.0972C25.5299 14.9771 26.2407 14.8281 27.0198 14.6794C27.0492 16.0676 26.2815 17.1354 25.0918 17.1059ZM22.7432 15.5579C22.3482 16.4699 21.7175 17.1367 20.6131 17.1053C19.4627 17.0723 18.8254 16.3666 18.5191 15.3642C18.5153 15.3524 18.5102 15.342 18.5064 15.3302C18.347 14.8182 18.1442 14.3836 17.8726 14.0631C17.8369 14.0212 17.8 13.9784 17.7615 13.9407C17.7049 13.8843 17.6453 13.8351 17.583 13.7879C17.1529 13.4671 16.581 13.3716 15.8016 13.591C15.8016 13.5901 15.8016 13.5894 15.8016 13.5885C15.7975 13.5894 15.794 13.5894 15.7899 13.5907C15.8104 11.7668 16.6982 11.1394 18.4708 11.3259C19.2944 10.3187 20.8371 8.47419 20.8478 8.46119C21.6259 9.50326 22.3219 10.4353 23.0947 11.4704C23.9884 11.497 24.6848 11.661 25.0555 12.0233C25.4771 12.4104 25.6366 13.0248 25.5665 13.9578C23.9897 13.3532 23.2921 14.2913 22.7432 15.5579ZM17.787 16.0328C17.6506 16.4148 17.1027 16.8142 16.4812 16.8139C15.3232 16.8136 14.5716 15.8292 14.5586 14.4961C14.5583 14.4609 14.5523 14.4283 14.5526 14.3928C14.5529 14.3928 14.5532 14.3928 14.5536 14.3931C14.5536 14.3912 14.5532 14.3893 14.5532 14.3874C14.798 14.4343 15.0279 14.4796 15.2613 14.5256C15.7688 14.6214 16.2636 14.7146 16.7522 14.7926C17.2897 14.8788 17.7444 15.1223 17.8287 15.5426C17.8619 15.6856 17.853 15.8479 17.787 16.0328ZM34.8254 3.10469C29.6744 -1.01572 24.4255 3.14337 22.2455 5.6108C21.5962 6.34535 20.6473 7.33796 20.6473 7.33796C20.6473 7.33796 19.4166 6.11868 15.3178 2.55179C14.0546 1.45266 15.2351 5.54803 10.307 11.3011C5.42502 17.0007 0.452109 14.5047 3.01041 16.8168C5.72725 19.2718 18.2349 31.0409 18.2349 31.0409C19.6105 32.3575 21.7863 32.3147 23.1096 30.9451L33.597 20.0901C33.597 20.0901 43.9044 10.3672 34.8254 3.10469Z" fill="#BD1622"/>
</svg>
