<svg width="115" height="73" viewBox="0 0 115 73" fill="none" xmlns="http://www.w3.org/2000/svg">
<g clip-path="url(#clip0_16_41)">
<path d="M82.2715 69.3795C82.0834 69.787 81.6513 70.2096 81.2815 70.4699C80.8842 70.7489 80.4626 70.8802 80.0282 70.9744C79.6872 68.9705 79.4963 66.9808 79.4272 64.9985C80.0309 64.9921 80.6072 65.0168 81.0737 65.1082C83.0621 65.4975 84.4948 64.2387 84.3501 62.1854C84.3304 61.9096 84.0576 61.6507 84.0723 61.6759C83.0749 62.1315 82.3301 62.534 81.5424 62.8157C81.1116 62.9694 80.285 63.3143 79.4011 63.6766C79.38 61.4179 79.494 59.1652 79.7073 56.907L79.7288 56.6769C79.9865 56.429 80.3239 56.3343 80.7848 56.4409C81.189 58.5948 81.8921 60.1354 83.4273 60.4112C84.0462 60.5223 84.2719 60.4226 84.1872 59.6464C84.07 58.5715 84.2307 57.4664 84.2792 56.3746C84.2957 55.9995 84.3327 55.6254 84.3602 55.2508C83.9839 55.2691 83.6072 55.2842 83.231 55.3061C82.0349 55.3761 80.8384 55.4461 79.6423 55.5156H76.4043V72.4587H79.0441C79.0431 72.4651 79.0441 72.472 79.0431 72.4788C79.3704 72.4838 79.695 72.4774 80.0172 72.4587H80.3001C80.2983 72.4486 80.2969 72.439 80.295 72.4294C80.4923 72.412 80.6905 72.3992 80.8855 72.3677C82.9714 72.0329 84.6197 71.5443 85.537 69.4C84.882 69.1206 84.3643 68.9468 83.8938 68.6883C83.0268 68.2117 82.6972 68.4587 82.2715 69.3795Z" fill="#BD1622"/>
<path d="M62.1792 67.5329C62.0218 68.3964 61.5279 69.0684 60.8536 69.2234C60.4298 69.3213 59.9867 69.1018 59.8443 68.8291C59.0625 67.3321 60.5717 64.8767 62.4337 64.3951C62.3614 65.523 62.3747 66.4603 62.1792 67.5329ZM64.7576 55.5508C62.6736 55.4378 60.5904 55.3079 58.5068 55.1862C58.1127 55.1629 57.7186 55.1473 57.3245 55.1281C57.3533 55.5201 57.3918 55.9121 57.4092 56.305C57.46 57.4485 57.6284 58.6062 57.5057 59.7314C57.4169 60.5447 57.6531 60.649 58.3013 60.5323C59.9088 60.2437 60.6453 58.63 61.0692 56.3745C62.2575 56.0992 63.1464 57.0826 63.3982 58.7169C63.7625 61.0817 61.1237 62.9735 59.219 64.3951C57.7648 65.4805 56.7743 66.4991 56.7656 68.9252C56.7656 68.933 56.4539 72.3992 59.4319 72.3992C61.0678 72.3992 61.7348 71.4592 62.192 70.0596C62.171 70.8788 62.084 72.0081 62.0721 72.4307C63.162 72.4353 64.1241 72.4563 65.2158 72.4824L66.2206 55.5549C65.7917 55.5549 65.2735 55.5787 64.7576 55.5508Z" fill="#BD1622"/>
<path d="M72.1655 55.5411C72.0652 55.5411 71.9677 55.5507 71.8689 55.5552C68.9531 56.3836 67.1807 67.9746 66.6713 70.7122C66.5651 71.2835 66.2204 71.8735 65.83 72.4883H69.8205C70.2764 70.7689 70.2201 59.8155 72.0392 57.2033C71.932 62.2585 72.3376 67.4472 72.1847 72.4883H75.1357L74.526 55.5411H72.1655Z" fill="#BD1622"/>
<path d="M92.2757 55.5083L92.3348 56.9656C92.2863 58.6237 92.2382 60.2081 92.1906 61.7683C91.8848 61.9595 91.5603 62.105 91.2115 62.1905C90.8339 62.2847 90.4489 62.3071 90.0585 62.2587C89.6854 62.212 89.3266 62.0871 88.9768 61.895C89.0199 60.2946 89.1165 58.6722 89.2785 56.9542L89.4163 55.4969C87.8385 55.4969 87.7593 55.4722 86.1696 55.4722V72.5026C87.3157 72.5026 88.0142 72.5273 89.5536 72.5273C89.1549 69.3653 88.9636 66.5688 88.9549 63.7754C89.257 63.8788 89.5678 63.9483 89.8887 63.9785C90.4782 64.0334 91.0513 63.9767 91.6075 63.8097C91.6075 63.8097 91.851 63.7978 92.1284 63.7832C92.0409 66.6273 91.953 69.4413 91.8638 72.4889C93.1258 72.4889 93.9996 72.5026 94.9901 72.5026C94.9901 66.5226 94.9892 61.3429 94.9892 55.522C93.6187 55.522 93.6032 55.5083 92.2757 55.5083Z" fill="#BD1622"/>
<path d="M115 72.4785C115 66.4984 114.999 61.387 114.999 55.5661C113.628 55.5661 113.443 55.5807 112.116 55.5807L112.176 56.3427C112.101 58.9321 112.026 61.4922 111.951 64.05C111.944 64.0454 111.937 64.0417 111.93 64.0372L111.934 64.093C111.942 64.5152 111.873 64.9081 111.724 65.2722C111.576 65.6358 111.372 65.9633 111.112 66.2528C110.852 66.5428 110.546 66.7779 110.196 66.9572C109.867 67.1255 109.507 67.2221 109.118 67.2609C108.895 63.54 108.96 60.0276 109.312 56.2993L109.449 55.5373C107.871 55.5373 107.822 55.5661 106.233 55.5661C106.233 61.5347 106.233 66.6087 106.233 72.4895C107.379 72.4895 108.054 72.4611 109.594 72.4611C109.439 71.2079 109.32 70.0008 109.225 68.8143L109.327 68.7763C109.935 68.7297 110.498 68.5632 111.017 68.2773C111.323 68.1085 111.593 67.9022 111.845 67.6767C111.799 69.2763 111.751 70.879 111.704 72.4932C112.966 72.4932 114.009 72.4785 115 72.4785Z" fill="#BD1622"/>
<path d="M14.8883 67.3249C14.7309 68.1884 14.237 68.8604 13.5627 69.0154C13.1389 69.1133 12.6958 68.8938 12.5534 68.6211C11.7716 67.1241 13.2808 64.6687 15.1428 64.1871C15.0705 65.315 15.0838 66.2523 14.8883 67.3249ZM17.4668 55.3428C15.3827 55.2298 13.2995 55.0999 11.2159 54.9782C10.8218 54.9549 10.4277 54.9393 10.0336 54.9201C10.0624 55.3121 10.1009 55.7041 10.1183 56.097C10.1691 57.2405 10.3375 58.3982 10.2149 59.5234C10.1261 60.3367 10.3623 60.441 11.0104 60.3243C12.618 60.0357 13.3545 58.422 13.7783 56.1665C14.9666 55.8912 15.8555 56.8746 16.1073 58.5089C16.4716 60.8737 13.8328 62.7655 11.9282 64.1871C10.4739 65.2725 9.4834 66.2911 9.4747 68.7172C9.4747 68.725 9.16299 72.1912 12.141 72.1912C13.777 72.1912 14.4439 71.2512 14.9012 69.8516C14.8801 70.6708 14.7931 71.8001 14.7812 72.2227C15.8711 72.2273 16.8333 72.2483 17.925 72.2744L18.9297 55.3469C18.5008 55.3469 17.9826 55.3707 17.4668 55.3428Z" fill="#BD1622"/>
<path d="M31.7239 55.7098C30.3535 55.7098 30.3379 55.6961 29.0105 55.6961L29.0695 57.1534C29.0215 58.8119 28.9693 69.1693 28.9217 70.7295C28.8054 70.8023 27.9998 70.8654 27.0267 70.9056C27.0267 65.662 27.0257 60.9425 27.0257 55.7098C26.0407 55.7098 26.0293 55.6961 25.0753 55.6961L25.1179 57.1534C25.09 58.4753 25.0694 67.1641 25.1399 70.9505C24.148 70.9564 23.3144 70.9299 23.1803 70.8558C23.2233 69.2558 23.3236 58.8604 23.4861 57.142L23.6239 55.6847C22.0456 55.6847 21.9669 55.66 20.3771 55.66V72.6904H25.2131H27.0267H31.7249C31.7249 66.7104 31.7239 61.5307 31.7239 55.7098Z" fill="#BD1622"/>
<path d="M6.10619 55.1055L6.16524 56.5628C6.11672 58.2209 6.06866 59.8053 6.02105 61.3655C5.71528 61.5567 5.39075 61.7022 5.04241 61.7877C4.66432 61.8819 4.27937 61.9043 3.88892 61.8559C3.51587 61.8092 3.157 61.6843 2.80729 61.4922C2.85032 59.8918 2.9469 58.2694 3.10894 56.5514L3.24672 55.0941C1.6689 55.0941 1.58971 55.0694 0 55.0694V72.0998C1.14617 72.0998 1.84467 72.125 3.38404 72.125C2.98535 68.9625 2.79402 66.166 2.78532 63.3726C3.08742 63.476 3.39823 63.5455 3.7191 63.5757C4.30866 63.6306 4.88175 63.5739 5.4379 63.4069C5.4379 63.4069 5.68141 63.395 5.9588 63.3804C5.87137 66.2245 5.78349 69.0384 5.69423 72.0866C6.9562 72.0866 7.83002 72.0998 8.82056 72.0998C8.82056 66.1198 8.81964 60.9401 8.81964 55.1192C7.44918 55.1192 7.43362 55.1055 6.10619 55.1055Z" fill="#BD1622"/>
<path d="M42.3243 72.6563C42.3243 66.6762 42.3229 61.5647 42.3229 55.7438C40.9524 55.7438 40.767 55.7584 39.4401 55.7584L39.5005 56.5205C39.425 59.1098 39.3499 61.6699 39.2753 64.2277C39.268 64.2231 39.2611 64.2195 39.2538 64.2149L39.2583 64.2707C39.2666 64.6929 39.1975 65.0858 39.0487 65.4499C38.9004 65.8135 38.6962 66.141 38.4358 66.4306C38.1763 66.7206 37.8705 66.9557 37.5203 67.135C37.1917 67.3033 36.831 67.3998 36.4419 67.4387C36.219 63.7177 36.2844 60.2053 36.6364 56.477L36.7728 55.715C35.195 55.715 35.1465 55.7438 33.5568 55.7438C33.5568 61.7125 33.5573 66.7864 33.5573 72.6672C34.7034 72.6672 35.3786 72.6389 36.9179 72.6389C36.7637 71.3856 36.6447 70.1785 36.5495 68.992L36.6511 68.954C37.259 68.9074 37.8224 68.7409 38.3415 68.455C38.6468 68.2862 38.9173 68.08 39.1695 67.8545C39.1229 69.454 39.0757 71.0567 39.0286 72.6709C40.2905 72.6709 41.3337 72.6563 42.3243 72.6563Z" fill="#BD1622"/>
<path d="M52.6224 63.8888C52.2833 64.6238 50.9256 64.9655 50.2784 64.488C50.1804 64.4157 50.1076 64.2309 50.1168 64.1051C50.2692 61.9329 50.2756 60.3983 50.4985 58.233C50.5448 57.7852 50.7842 57.2514 50.9934 56.9687C51.2364 56.6403 51.6626 56.4445 52.2476 56.3736C52.4636 58.6652 52.8298 60.2643 52.9822 62.5092C53.0156 63.0032 52.8142 63.4734 52.6224 63.8888ZM51.9454 70.9501C50.4162 70.9501 50.2088 70.8678 49.9621 67.6541C52.0452 67.4327 53.2326 70.9501 51.9454 70.9501ZM56.5722 52.9184C56.1827 52.5909 55.3867 52.2662 55.1734 52.225C54.2236 52.042 52.7794 52.762 52.4293 53.7619C52.2448 54.2879 52.1812 54.7572 52.1812 55.1286C51.6113 55.2777 50.6501 55.5343 50.0957 55.7122C47.5974 56.5145 46.8238 57.6379 46.849 60.2364C46.8724 62.6121 47.1177 64.348 47.0857 66.7228C47.061 68.5607 46.8637 70.3967 46.7273 72.4783C49.5863 72.4783 52.3428 72.5071 55.0965 72.4275C55.3382 72.4207 55.8389 71.9093 55.7529 71.3165C55.3359 68.4436 54.0465 67.2891 51.3907 66.2654C51.0652 66.1396 50.4665 65.9681 50.3804 65.9397C50.3937 65.9388 50.4075 65.937 50.4207 65.937C53.001 65.8766 55.8856 63.1798 55.676 60.8809C55.4618 58.5317 55.4046 56.7976 55.3235 54.4347C55.2979 53.6937 55.4663 53.1224 56.5722 52.9184Z" fill="#BD1622"/>
<path d="M100.435 65.3056C99.1741 64.9475 99.1009 63.7587 100.123 62.8553C101.044 62.0411 102.085 61.3614 103.032 60.5742C103.399 60.2692 103.834 59.8703 103.926 59.4467C104.202 58.1779 104.564 56.8734 104.749 55.5652H101.603C101.758 59.8474 101.255 60.7202 99.4263 61.4031C99.2405 59.4966 99.5009 57.5677 99.7032 55.5652H96.6987C96.5307 61.3075 96.863 66.869 96.6987 72.4868H100.034C99.8648 70.5406 99.7051 68.7005 99.5229 66.6083C102.664 67.9339 101.17 70.568 101.685 72.5088H105.578C105.343 71.8323 105.084 71.304 104.98 70.7464C104.483 68.0756 103.28 66.1134 100.435 65.3056Z" fill="#BD1622"/>
<path d="M62.9495 24.6792C62.0611 24.6796 61.2541 24.1033 61.0563 23.5521C60.6874 22.5234 61.5122 21.9535 62.5467 21.7811C63.5844 21.6077 64.6148 21.3927 65.744 21.1782C65.7866 23.1812 64.6743 24.6782 62.9495 24.6792ZM59.5454 22.4457C58.9727 23.7616 58.0586 24.7235 56.4579 24.6782C54.7872 24.6307 53.8626 23.6084 53.4195 22.1575C52.8112 20.1655 51.7533 18.9717 49.4839 19.6079C49.5333 16.9655 50.7747 16.0507 53.3527 16.3398C54.562 14.8894 55.5502 13.7038 56.798 12.2067C57.9419 13.7317 58.9141 15.0275 60.0548 16.5484C62.7889 16.6133 63.8362 17.5089 63.6375 20.1372C61.352 19.2649 60.3409 20.6183 59.5454 22.4457ZM52.3617 23.1309C52.1639 23.682 51.362 24.2579 50.4689 24.2579C48.7437 24.2579 47.6314 22.7604 47.6745 20.7569C48.8037 20.9719 49.834 21.1869 50.8717 21.3598C51.9062 21.5327 52.7311 22.1022 52.3617 23.1309ZM87.4942 11.4735C81.9684 3.69445 72.9945 7.35459 68.9715 9.90049C67.7736 10.6584 66.0548 11.6537 66.0548 11.6537C66.0548 11.6537 64.8285 9.46962 60.5464 2.88028C60.4778 2.77416 60.1697 2.28794 60.0612 2.12877C58.3891 -0.327484 54.3258 -0.704842 49.0033 1.24186C48.2851 1.50487 48.183 2.25638 48.0461 3.00835C47.5619 5.66037 46.4468 10.3821 43.1996 14.544C41.7234 16.4363 40.1406 17.9384 38.5632 19.1194C42.383 25.3643 53.2144 43.5456 53.2144 43.5456C54.6041 45.9228 57.6513 46.7365 60.042 45.3684L78.9895 34.5275C78.9895 34.5275 97.2335 25.1846 87.4942 11.4735Z" fill="#7DADC8"/>
<path d="M39.9467 14.034C35.3107 19.113 29.741 21.5788 27.5068 19.5425C25.2721 17.5057 27.2189 11.7374 31.8548 6.65883C36.4908 1.57983 42.0605 -0.886484 44.2947 1.15033C46.5294 3.18714 44.5826 8.95499 39.9467 14.034Z" fill="#BD1622"/>
<path d="M62.9495 24.6786C62.0286 24.6557 61.2541 24.1027 61.0563 23.5515C60.6874 22.5229 61.5122 21.9529 62.5467 21.7805C63.5844 21.6071 64.6148 21.3922 65.744 21.1776C65.7866 23.1806 64.6738 24.7211 62.9495 24.6786ZM59.5454 22.4451C58.9727 23.761 58.0586 24.723 56.4579 24.6777C54.7904 24.6301 53.8667 23.6119 53.4227 22.1656C53.4172 22.1487 53.4099 22.1336 53.4044 22.1167C53.1732 21.378 52.8794 20.7509 52.4857 20.2884C52.434 20.2281 52.3804 20.1663 52.3246 20.1119C52.2427 20.0305 52.1561 19.9596 52.066 19.8914C51.4425 19.4285 50.6136 19.2908 49.4839 19.6074C49.4839 19.606 49.4839 19.6051 49.4839 19.6037C49.4779 19.6051 49.4729 19.6051 49.4669 19.6069C49.4967 16.9755 50.7834 16.0703 53.3527 16.3392C54.5464 14.8861 56.7825 12.2249 56.798 12.2061C57.9259 13.7096 58.9347 15.0544 60.0548 16.5478C61.3502 16.5862 62.3595 16.8227 62.8969 17.3455C63.508 17.904 63.7391 18.7904 63.6375 20.1366C61.352 19.2643 60.3409 20.6178 59.5454 22.4451ZM52.3617 23.1303C52.1639 23.6815 51.3697 24.2578 50.4689 24.2573C48.7904 24.2569 47.701 22.8366 47.6822 20.9133C47.6818 20.8625 47.6731 20.8154 47.6735 20.7641C47.674 20.7641 47.6745 20.7641 47.6749 20.7646C47.6749 20.7619 47.6745 20.7591 47.6745 20.7564C48.0292 20.8241 48.3624 20.8895 48.7007 20.9558C49.4363 21.0939 50.1535 21.2284 50.8617 21.3409C51.6407 21.4653 52.2999 21.8166 52.4221 22.4231C52.4701 22.6294 52.4573 22.8636 52.3617 23.1303ZM77.0579 4.47787C69.5917 -1.46699 61.9837 4.53368 58.824 8.09364C57.8829 9.15344 56.5074 10.5856 56.5074 10.5856C56.5074 10.5856 54.7236 8.8264 48.7826 3.68016C46.9517 2.09435 48.6627 8.00307 41.5197 16.3036C34.4436 24.5267 27.2357 20.9256 30.9438 24.2614C34.8817 27.8036 53.0107 44.7837 53.0107 44.7837C55.0046 46.6833 58.1584 46.6216 60.0763 44.6456L75.2773 28.9841C75.2773 28.9841 90.2173 14.956 77.0579 4.47787Z" fill="#BD1622"/>
</g>
<defs>
<clipPath id="clip0_16_41">
<rect width="115" height="73" fill="white"/>
</clipPath>
</defs>
</svg>
