<?xml version="1.0" encoding="UTF-8" standalone="no"?>
<!-- Created with Inkscape (http://www.inkscape.org/) -->

<svg
   width="26.987501mm"
   height="18.989906mm"
   viewBox="0 0 26.987501 18.989906"
   version="1.1"
   id="svg5"
   xmlns="http://www.w3.org/2000/svg"
   xmlns:svg="http://www.w3.org/2000/svg">
  <defs
     id="defs2">
    <clipPath
       clipPathUnits="userSpaceOnUse"
       id="clipPath838">
      <path
         d="M 0,595.276 H 841.89 V 0 H 0 Z"
         id="path836" />
    </clipPath>
  </defs>
  <g
     id="layer1"
     transform="translate(-34.765327,-116.24373)">
    <g
       id="g834"
       clip-path="url(#clipPath838)"
       transform="matrix(0.10741854,0,0,-0.10741854,1.128436,160.29267)"
       style="stroke-width:3.28414">
      <g
         id="g840"
         transform="translate(394.8441,238.7737)"
         style="stroke-width:3.28414">
        <path
           d="m 0,0 v -2.139 h 0.57 c 0.188,0 0.334,0.042 0.438,0.126 0.101,0.084 0.153,0.241 0.153,0.469 v 0.948 c 0,0.229 -0.052,0.385 -0.153,0.47 C 0.904,-0.042 0.758,0 0.57,0 Z m 0.57,0.903 c 0.605,0 1.056,-0.132 1.351,-0.397 0.296,-0.265 0.443,-0.654 0.443,-1.165 V -1.48 c 0,-0.512 -0.147,-0.9 -0.443,-1.165 C 1.626,-2.91 1.175,-3.043 0.57,-3.043 H 0 v -2.374 h -1.204 v 6.32 z"
           style="fill:#37120d;fill-opacity:1;fill-rule:nonzero;stroke:none;stroke-width:3.28414"
           id="path842" />
      </g>
      <g
         id="g844"
         transform="translate(398.9711,237.0137)"
         style="stroke-width:3.28414">
        <path
           d="M 0,0 H 1.652 V -0.904 H 0 v -1.85 h 2.08 v -0.903 h -3.284 v 6.32 H 2.08 V 1.76 H 0 Z"
           style="fill:#37120d;fill-opacity:1;fill-rule:nonzero;stroke:none;stroke-width:3.28414"
           id="path846" />
      </g>
      <g
         id="g848"
         transform="translate(405.2845,235.7131)"
         style="stroke-width:3.28414">
        <path
           d="m 0,0 v -0.839 c 0,-0.512 -0.151,-0.905 -0.454,-1.179 -0.303,-0.273 -0.75,-0.411 -1.341,-0.411 -0.591,0 -1.038,0.138 -1.34,0.411 -0.303,0.274 -0.454,0.667 -0.454,1.179 v 3.286 c 0,0.511 0.151,0.904 0.454,1.178 0.302,0.274 0.749,0.411 1.34,0.411 0.591,0 1.038,-0.137 1.341,-0.411 C -0.151,3.351 0,2.958 0,2.447 V 1.833 H -1.138 V 2.51 c 0,0.228 -0.057,0.389 -0.169,0.483 -0.114,0.093 -0.265,0.14 -0.454,0.14 -0.19,0 -0.342,-0.047 -0.454,-0.14 C -2.329,2.899 -2.386,2.738 -2.386,2.51 v -3.413 c 0,-0.228 0.057,-0.388 0.171,-0.479 0.112,-0.09 0.264,-0.135 0.454,-0.135 0.189,0 0.34,0.045 0.454,0.135 0.112,0.091 0.169,0.251 0.169,0.479 V 0 Z"
           style="fill:#37120d;fill-opacity:1;fill-rule:nonzero;stroke:none;stroke-width:3.28414"
           id="path850" />
      </g>
      <g
         id="g852"
         transform="translate(405.6673,239.6764)"
         style="stroke-width:3.28414">
        <path
           d="M 0,0 H 3.721 V -0.903 H 2.462 V -6.32 H 1.259 v 5.417 H 0 Z"
           style="fill:#37120d;fill-opacity:1;fill-rule:nonzero;stroke:none;stroke-width:3.28414"
           id="path854" />
      </g>
      <g
         id="g856"
         transform="translate(411.0193,234.8104)"
         style="stroke-width:3.28414">
        <path
           d="m 0,0 c 0,-0.229 0.057,-0.39 0.169,-0.483 0.114,-0.094 0.265,-0.14 0.454,-0.14 0.191,0 0.342,0.046 0.454,0.14 C 1.191,-0.39 1.248,-0.229 1.248,0 V 3.413 C 1.248,3.641 1.191,3.802 1.077,3.896 0.965,3.989 0.814,4.035 0.623,4.035 0.434,4.035 0.283,3.989 0.169,3.896 0.057,3.802 0,3.641 0,3.413 Z m -1.204,3.35 c 0,0.511 0.157,0.903 0.47,1.178 0.314,0.274 0.766,0.411 1.357,0.411 0.591,0 1.043,-0.137 1.359,-0.411 C 2.295,4.253 2.452,3.861 2.452,3.35 V 0.063 c 0,-0.512 -0.157,-0.904 -0.47,-1.178 -0.316,-0.274 -0.768,-0.411 -1.359,-0.411 -0.591,0 -1.043,0.137 -1.357,0.411 -0.313,0.274 -0.47,0.666 -0.47,1.178 z"
           style="fill:#37120d;fill-opacity:1;fill-rule:nonzero;stroke:none;stroke-width:3.28414"
           id="path858" />
      </g>
      <g
         id="g860"
         transform="translate(415.4526,238.7737)"
         style="stroke-width:3.28414">
        <path
           d="m 0,0 v -2.139 h 0.568 c 0.19,0 0.336,0.042 0.438,0.126 0.103,0.084 0.153,0.241 0.153,0.469 v 0.948 c 0,0.229 -0.05,0.385 -0.153,0.47 C 0.904,-0.042 0.758,0 0.568,0 Z m 0.568,0.903 c 0.607,0 1.058,-0.132 1.353,-0.397 0.296,-0.265 0.443,-0.654 0.443,-1.165 V -1.48 c 0,-0.512 -0.147,-0.9 -0.443,-1.165 C 1.626,-2.91 1.175,-3.043 0.568,-3.043 H 0 v -2.374 h -1.204 v 6.32 z"
           style="fill:#37120d;fill-opacity:1;fill-rule:nonzero;stroke:none;stroke-width:3.28414"
           id="path862" />
      </g>
      <g
         id="g864"
         transform="translate(419.5227,235.3615)"
         style="stroke-width:3.28414">
        <path
           d="M 0,0 H 1.161 L 0.58,3.196 Z M 2.747,-2.005 H 1.533 l -0.208,1.147 h -1.478 l -0.208,-1.147 h -1.106 l 1.227,6.32 h 1.761 z"
           style="fill:#37120d;fill-opacity:1;fill-rule:nonzero;stroke:none;stroke-width:3.28414"
           id="path866" />
      </g>
      <g
         id="g868"
         transform="translate(424.0325,233.3567)"
         style="stroke-width:3.28414">
        <path
           d="M 0,0 H -1.204 V 6.32 H 0 V 3.612 H 1.367 V 6.32 H 2.594 V 0 H 1.367 V 2.709 H 0 Z"
           style="fill:#37120d;fill-opacity:1;fill-rule:nonzero;stroke:none;stroke-width:3.28414"
           id="path870" />
      </g>
      <g
         id="g872"
         transform="translate(431.7472,235.1897)"
         style="stroke-width:3.28414">
        <path
           d="m 0,0 0.821,4.487 h 1.675 v -6.32 H 1.358 V 2.699 L 0.525,-1.833 H -0.612 L -1.51,2.636 v -4.469 h -1.05 v 6.32 h 1.673 z"
           style="fill:#37120d;fill-opacity:1;fill-rule:nonzero;stroke:none;stroke-width:3.28414"
           id="path874" />
      </g>
      <g
         id="g876"
         transform="translate(436.3211,237.0137)"
         style="stroke-width:3.28414">
        <path
           d="M 0,0 H 1.652 V -0.904 H 0 v -1.85 h 2.08 v -0.903 h -3.284 v 6.32 H 2.08 V 1.76 H 0 Z"
           style="fill:#37120d;fill-opacity:1;fill-rule:nonzero;stroke:none;stroke-width:3.28414"
           id="path878" />
      </g>
      <g
         id="g880"
         transform="translate(442.6363,235.7131)"
         style="stroke-width:3.28414">
        <path
           d="m 0,0 v -0.839 c 0,-0.512 -0.151,-0.905 -0.454,-1.179 -0.303,-0.273 -0.75,-0.411 -1.341,-0.411 -0.591,0 -1.038,0.138 -1.34,0.411 -0.303,0.274 -0.454,0.667 -0.454,1.179 v 3.286 c 0,0.511 0.151,0.904 0.454,1.178 0.302,0.274 0.749,0.411 1.34,0.411 0.591,0 1.038,-0.137 1.341,-0.411 C -0.151,3.351 0,2.958 0,2.447 V 1.833 H -1.138 V 2.51 c 0,0.228 -0.057,0.389 -0.171,0.483 -0.112,0.093 -0.263,0.14 -0.454,0.14 -0.188,0 -0.34,-0.047 -0.454,-0.14 C -2.329,2.899 -2.386,2.738 -2.386,2.51 v -3.413 c 0,-0.228 0.057,-0.388 0.169,-0.479 0.114,-0.09 0.266,-0.135 0.454,-0.135 0.191,0 0.342,0.045 0.454,0.135 0.114,0.091 0.171,0.251 0.171,0.479 V 0 Z"
           style="fill:#37120d;fill-opacity:1;fill-rule:nonzero;stroke:none;stroke-width:3.28414"
           id="path882" />
      </g>
      <g
         id="g884"
         transform="translate(443.0191,239.6764)"
         style="stroke-width:3.28414">
        <path
           d="M 0,0 H 3.721 V -0.903 H 2.462 V -6.32 H 1.259 v 5.417 H 0 Z"
           style="fill:#37120d;fill-opacity:1;fill-rule:nonzero;stroke:none;stroke-width:3.28414"
           id="path886" />
      </g>
      <g
         id="g888"
         transform="translate(448.469,233.3567)"
         style="stroke-width:3.28414">
        <path
           d="M 0,0 H -1.204 V 6.32 H 0 V 3.612 H 1.369 V 6.32 H 2.594 V 0 H 1.369 V 2.709 H 0 Z"
           style="fill:#37120d;fill-opacity:1;fill-rule:nonzero;stroke:none;stroke-width:3.28414"
           id="path890" />
      </g>
      <g
         id="g892"
         transform="translate(453.043,234.8104)"
         style="stroke-width:3.28414">
        <path
           d="m 0,0 c 0,-0.229 0.057,-0.39 0.171,-0.483 0.112,-0.094 0.263,-0.14 0.454,-0.14 0.189,0 0.34,0.046 0.454,0.14 C 1.191,-0.39 1.248,-0.229 1.248,0 V 3.413 C 1.248,3.641 1.191,3.802 1.079,3.896 0.965,3.989 0.814,4.035 0.625,4.035 0.434,4.035 0.283,3.989 0.171,3.896 0.057,3.802 0,3.641 0,3.413 Z m -1.204,3.35 c 0,0.511 0.157,0.903 0.472,1.178 0.314,0.274 0.766,0.411 1.357,0.411 0.591,0 1.043,-0.137 1.357,-0.411 C 2.295,4.253 2.452,3.861 2.452,3.35 V 0.063 c 0,-0.512 -0.157,-0.904 -0.47,-1.178 -0.314,-0.274 -0.766,-0.411 -1.357,-0.411 -0.591,0 -1.043,0.137 -1.357,0.411 -0.315,0.274 -0.472,0.666 -0.472,1.178 z"
           style="fill:#37120d;fill-opacity:1;fill-rule:nonzero;stroke:none;stroke-width:3.28414"
           id="path894" />
      </g>
      <g
         id="g896"
         transform="translate(459.4792,241.0856)"
         style="stroke-width:3.28414">
        <path
           d="m 0,0 c 0,-0.307 -0.107,-0.551 -0.319,-0.732 -0.212,-0.18 -0.532,-0.27 -0.963,-0.27 -0.422,0 -0.733,0.09 -0.935,0.27 -0.201,0.181 -0.308,0.425 -0.322,0.732 h 0.744 c 0.015,-0.169 0.063,-0.28 0.148,-0.335 0.084,-0.054 0.205,-0.081 0.365,-0.081 0.169,0 0.297,0.027 0.39,0.081 0.091,0.055 0.144,0.166 0.158,0.335 z m -1.971,-7.729 h -1.236 v 6.32 h 1.072 v -4 l 0.438,1.391 0.985,2.609 h 1.324 v -6.32 h -1.084 v 4.451 L -0.963,-4.83 Z"
           style="fill:#37120d;fill-opacity:1;fill-rule:nonzero;stroke:none;stroke-width:3.28414"
           id="path898" />
      </g>
      <g
         id="g900"
         transform="translate(464.2401,235.876)"
         style="stroke-width:3.28414">
        <path
           d="M 0,0 -0.372,-0.578 V -2.519 H -1.576 V 3.8 h 1.204 V 1.047 L 1.204,3.8 H 2.407 L 0.734,0.984 2.407,-2.519 H 1.17 Z"
           style="fill:#37120d;fill-opacity:1;fill-rule:nonzero;stroke:none;stroke-width:3.28414"
           id="path902" />
      </g>
      <g
         id="g904"
         transform="translate(469.8646,234.9635)"
         style="stroke-width:3.28414">
        <path
           d="m 0,0 c -0.073,-0.283 -0.162,-0.531 -0.269,-0.744 -0.105,-0.215 -0.247,-0.389 -0.425,-0.525 -0.18,-0.135 -0.41,-0.233 -0.691,-0.292 -0.28,-0.061 -0.629,-0.079 -1.045,-0.055 v 0.885 c 0.306,-0.019 0.548,0.005 0.723,0.072 0.174,0.066 0.288,0.214 0.34,0.443 l 0.01,0.054 -1.664,4.875 h 1.192 l 0.657,-2.158 0.373,-1.481 0.284,1.472 0.547,2.167 h 1.259 z"
           style="fill:#37120d;fill-opacity:1;fill-rule:nonzero;stroke:none;stroke-width:3.28414"
           id="path906" />
      </g>
      <g
         id="g908"
         transform="translate(475.6759,239.6764)"
         style="stroke-width:3.28414">
        <path
           d="M 0,0 -1.259,-3.069 0.087,-6.32 H -1.182 L -2.167,-3.819 -3.162,-6.32 H -4.291 L -2.943,-3.069 -4.202,0 h 1.246 l 0.91,-2.329 0.93,2.329 z"
           style="fill:#37120d;fill-opacity:1;fill-rule:nonzero;stroke:none;stroke-width:3.28414"
           id="path910" />
      </g>
      <g
         id="g912"
         transform="translate(477.5685,233.3567)"
         style="stroke-width:3.28414">
        <path
           d="M 0,0 H -1.204 V 6.32 H 0 V 3.612 H 1.369 V 6.32 H 2.594 V 0 H 1.369 V 2.709 H 0 Z"
           style="fill:#37120d;fill-opacity:1;fill-rule:nonzero;stroke:none;stroke-width:3.28414"
           id="path914" />
      </g>
      <g
         id="g916"
         transform="translate(482.2742,233.3567)"
         style="stroke-width:3.28414">
        <path
           d="m 0,0 h -1.236 v 6.32 h 1.072 v -4 L 0.274,3.71 1.259,6.32 H 2.583 V 0 H 1.499 V 4.451 L 1.008,2.899 Z"
           style="fill:#37120d;fill-opacity:1;fill-rule:nonzero;stroke:none;stroke-width:3.28414"
           id="path918" />
      </g>
      <g
         id="g920"
         transform="translate(492.8747,258.386)"
         style="stroke-width:3.28414">
        <path
           d="m 0,0 c -0.411,-0.891 -1.355,-1.815 -2.163,-2.384 -0.868,-0.61 -1.789,-0.897 -2.738,-1.103 -0.745,4.381 -1.162,8.731 -1.313,13.065 1.319,0.014 2.578,-0.04 3.597,-0.24 4.344,-0.851 7.474,1.901 7.158,6.39 -0.043,0.603 -0.639,1.169 -0.607,1.114 -2.179,-0.996 -3.806,-1.876 -5.527,-2.492 -0.941,-0.336 -2.747,-1.09 -4.678,-1.882 -0.046,4.938 0.203,9.863 0.669,14.8 l 0.047,0.503 c 0.563,0.542 1.3,0.749 2.307,0.516 0.883,-4.709 2.419,-8.077 5.773,-8.68 1.352,-0.243 1.845,-0.025 1.66,1.672 -0.256,2.35 0.095,4.766 0.201,7.153 0.036,0.82 0.117,1.638 0.177,2.457 -0.822,-0.04 -1.645,-0.073 -2.467,-0.121 -2.613,-0.153 -5.227,-0.306 -7.84,-0.458 h -7.074 V -6.732 h 5.767 c -0.002,-0.014 0,-0.029 -0.002,-0.044 0.715,-0.011 1.424,0.003 2.128,0.044 h 0.618 c -0.004,0.022 -0.007,0.043 -0.011,0.064 0.431,0.038 0.864,0.066 1.29,0.135 4.557,0.732 8.158,1.8 10.162,6.488 C 5.703,0.566 4.572,0.946 3.544,1.511 1.65,2.553 0.93,2.013 0,0"
           style="fill:#bd1622;fill-opacity:1;fill-rule:nonzero;stroke:none;stroke-width:3.28414"
           id="path922" />
      </g>
      <g
         id="g924"
         transform="translate(448.9796,262.4235)"
         style="stroke-width:3.28414">
        <path
           d="M 0,0 C -0.344,-1.888 -1.423,-3.357 -2.896,-3.696 -3.822,-3.91 -4.79,-3.43 -5.101,-2.834 -6.809,0.439 -3.512,5.807 0.556,6.86 0.398,4.394 0.427,2.345 0,0 m 5.633,26.196 c -4.553,0.247 -9.104,0.531 -13.656,0.797 -0.861,0.051 -1.722,0.085 -2.583,0.127 0.063,-0.857 0.147,-1.714 0.185,-2.573 0.111,-2.5 0.479,-5.031 0.211,-7.491 -0.194,-1.778 0.322,-2.006 1.738,-1.751 3.512,0.631 5.121,4.159 6.047,9.09 2.596,0.602 4.538,-1.548 5.088,-5.121 0.796,-5.17 -4.969,-9.306 -9.13,-12.414 -3.177,-2.373 -5.341,-4.6 -5.36,-9.904 0,-0.017 -0.681,-7.595 5.825,-7.595 3.574,0 5.031,2.055 6.03,5.115 -0.046,-1.791 -0.236,-4.26 -0.262,-5.184 2.381,-0.01 4.483,-0.056 6.868,-0.113 l 2.195,37.008 c -0.937,0 -2.069,-0.052 -3.196,0.009"
           style="fill:#bd1622;fill-opacity:1;fill-rule:nonzero;stroke:none;stroke-width:3.28414"
           id="path926" />
      </g>
      <g
         id="g928"
         transform="translate(470.7963,288.6388)"
         style="stroke-width:3.28414">
        <path
           d="m 0,0 c -0.219,0 -0.432,-0.021 -0.648,-0.031 -6.37,-1.811 -10.242,-27.152 -11.355,-33.137 -0.232,-1.249 -0.985,-2.539 -1.838,-3.883 h 8.718 c 0.996,3.759 0.873,27.706 4.847,33.417 C -0.51,-14.686 0.376,-26.03 0.042,-37.051 H 6.489 L 5.157,0 Z"
           style="fill:#bd1622;fill-opacity:1;fill-rule:nonzero;stroke:none;stroke-width:3.28414"
           id="path930" />
      </g>
      <g
         id="g932"
         transform="translate(514.7305,288.7126)"
         style="stroke-width:3.28414">
        <path
           d="m 0,0 0.129,-3.186 c -0.106,-3.625 -0.211,-7.089 -0.315,-10.5 -0.668,-0.418 -1.377,-0.736 -2.139,-0.923 -0.825,-0.206 -1.666,-0.255 -2.519,-0.149 -0.815,0.102 -1.599,0.375 -2.363,0.795 0.094,3.499 0.305,7.046 0.659,10.802 l 0.301,3.186 c -3.447,0 -3.62,0.054 -7.093,0.054 v -37.233 c 2.504,0 4.03,-0.054 7.393,-0.054 -0.871,6.913 -1.289,13.027 -1.308,19.134 0.66,-0.226 1.339,-0.378 2.04,-0.444 1.288,-0.12 2.54,0.004 3.755,0.369 0,0 0.532,0.026 1.138,0.058 -0.191,-6.218 -0.383,-12.37 -0.578,-19.033 2.757,0 4.666,-0.03 6.83,-0.03 0,13.074 -0.002,24.398 -0.002,37.124 C 2.934,-0.03 2.9,0 0,0"
           style="fill:#bd1622;fill-opacity:1;fill-rule:nonzero;stroke:none;stroke-width:3.28414"
           id="path934" />
      </g>
      <g
         id="g936"
         transform="translate(564.3755,251.612)"
         style="stroke-width:3.28414">
        <path
           d="m 0,0 c 0,13.074 -0.003,24.249 -0.003,36.975 -2.994,0 -3.399,-0.032 -6.298,-0.032 l 0.132,-1.666 c -0.165,-5.661 -0.329,-11.258 -0.492,-16.85 -0.016,0.01 -0.031,0.018 -0.047,0.028 l 0.01,-0.122 c 0.018,-0.923 -0.133,-1.782 -0.458,-2.578 -0.324,-0.795 -0.77,-1.511 -1.339,-2.144 -0.567,-0.634 -1.235,-1.148 -2,-1.54 -0.718,-0.368 -1.506,-0.579 -2.356,-0.664 -0.487,8.135 -0.344,15.814 0.425,23.965 l 0.298,1.666 c -3.447,0 -3.553,-0.063 -7.026,-0.063 0,-13.049 0.001,-24.142 0.001,-36.999 2.504,0 3.979,0.062 7.342,0.062 -0.337,2.74 -0.597,5.379 -0.805,7.973 l 0.222,0.083 c 1.328,0.102 2.559,0.466 3.693,1.091 0.667,0.369 1.258,0.82 1.809,1.313 C -6.994,7.001 -7.097,3.497 -7.2,-0.032 -4.443,-0.032 -2.164,0 0,0"
           style="fill:#bd1622;fill-opacity:1;fill-rule:nonzero;stroke:none;stroke-width:3.28414"
           id="path938" />
      </g>
      <g
         id="g940"
         transform="translate(345.6647,262.8777)"
         style="stroke-width:3.28414">
        <path
           d="M 0,0 C -0.344,-1.888 -1.423,-3.357 -2.896,-3.696 -3.822,-3.91 -4.79,-3.43 -5.101,-2.834 -6.809,0.439 -3.512,5.807 0.556,6.86 0.398,4.394 0.427,2.345 0,0 m 5.633,26.196 c -4.553,0.247 -9.104,0.531 -13.656,0.797 -0.861,0.051 -1.722,0.085 -2.583,0.127 0.063,-0.857 0.147,-1.714 0.185,-2.573 0.111,-2.5 0.479,-5.031 0.211,-7.491 -0.194,-1.778 0.322,-2.006 1.738,-1.751 3.512,0.631 5.121,4.159 6.047,9.09 2.596,0.602 4.538,-1.548 5.088,-5.121 0.796,-5.17 -4.969,-9.306 -9.13,-12.414 -3.177,-2.373 -5.341,-4.6 -5.36,-9.904 0,-0.017 -0.681,-7.595 5.825,-7.595 3.574,0 5.031,2.055 6.03,5.115 -0.046,-1.791 -0.236,-4.26 -0.262,-5.184 2.381,-0.01 4.483,-0.056 6.868,-0.113 l 2.195,37.008 c -0.937,0 -2.069,-0.052 -3.196,0.009"
           style="fill:#bd1622;fill-opacity:1;fill-rule:nonzero;stroke:none;stroke-width:3.28414"
           id="path942" />
      </g>
      <g
         id="g944"
         transform="translate(382.4449,288.2726)"
         style="stroke-width:3.28414">
        <path
           d="m 0,0 c -2.994,0 -3.028,0.03 -5.928,0.03 l 0.129,-3.186 c -0.105,-3.626 -0.219,-26.27 -0.323,-29.681 -0.254,-0.159 -2.014,-0.297 -4.14,-0.385 0,11.464 -0.002,21.782 -0.002,33.222 -2.152,0 -2.177,0.03 -4.261,0.03 l 0.093,-3.186 c -0.061,-2.89 -0.106,-21.886 0.048,-30.164 -2.167,-0.013 -3.988,0.045 -4.281,0.207 0.094,3.498 0.313,26.225 0.668,29.982 l 0.301,3.186 c -3.448,0 -3.62,0.054 -7.093,0.054 v -37.233 h 10.565 3.962 10.264 C 0.002,-24.05 0,-12.726 0,0"
           style="fill:#bd1622;fill-opacity:1;fill-rule:nonzero;stroke:none;stroke-width:3.28414"
           id="path946" />
      </g>
      <g
         id="g948"
         transform="translate(326.4786,289.5919)"
         style="stroke-width:3.28414">
        <path
           d="m 0,0 0.129,-3.186 c -0.106,-3.625 -0.211,-7.089 -0.315,-10.5 -0.668,-0.418 -1.377,-0.736 -2.138,-0.923 -0.826,-0.206 -1.667,-0.255 -2.52,-0.149 -0.815,0.102 -1.599,0.375 -2.363,0.795 0.094,3.499 0.305,7.046 0.659,10.802 l 0.301,3.186 c -3.447,0 -3.62,0.054 -7.093,0.054 v -37.233 c 2.504,0 4.03,-0.055 7.393,-0.055 -0.871,6.914 -1.289,13.028 -1.308,19.135 0.66,-0.226 1.339,-0.378 2.04,-0.444 1.288,-0.12 2.54,0.004 3.755,0.369 0,0 0.532,0.026 1.138,0.058 -0.191,-6.218 -0.383,-12.37 -0.578,-19.034 2.757,0 4.666,-0.029 6.83,-0.029 0,13.074 -0.002,24.398 -0.002,37.124 C 2.934,-0.03 2.9,0 0,0"
           style="fill:#bd1622;fill-opacity:1;fill-rule:nonzero;stroke:none;stroke-width:3.28414"
           id="path950" />
      </g>
      <g
         id="g952"
         transform="translate(405.6031,251.2224)"
         style="stroke-width:3.28414">
        <path
           d="m 0,0 c 0,13.074 -0.003,24.249 -0.003,36.975 -2.994,0 -3.399,-0.032 -6.298,-0.032 l 0.132,-1.666 c -0.165,-5.661 -0.329,-11.258 -0.492,-16.85 -0.016,0.01 -0.031,0.018 -0.047,0.028 l 0.01,-0.122 c 0.018,-0.923 -0.133,-1.782 -0.458,-2.578 -0.324,-0.795 -0.77,-1.511 -1.339,-2.144 -0.567,-0.634 -1.235,-1.148 -2,-1.54 -0.718,-0.368 -1.506,-0.579 -2.356,-0.664 -0.487,8.135 -0.344,15.814 0.425,23.965 l 0.298,1.666 c -3.447,0 -3.553,-0.063 -7.026,-0.063 0,-13.049 0.001,-24.142 0.001,-36.999 2.504,0 3.979,0.062 7.342,0.062 -0.337,2.74 -0.597,5.379 -0.805,7.973 l 0.222,0.083 c 1.328,0.102 2.559,0.466 3.693,1.091 0.667,0.369 1.258,0.82 1.809,1.313 C -6.994,7.001 -7.097,3.497 -7.2,-0.032 -4.443,-0.032 -2.164,0 0,0"
           style="fill:#bd1622;fill-opacity:1;fill-rule:nonzero;stroke:none;stroke-width:3.28414"
           id="path954" />
      </g>
      <g
         id="g956"
         transform="translate(428.1012,270.392)"
         style="stroke-width:3.28414">
        <path
           d="m 0,0 c -0.741,-1.607 -3.707,-2.354 -5.121,-1.31 -0.214,0.158 -0.373,0.562 -0.353,0.837 0.333,4.749 0.347,8.104 0.834,12.838 0.101,0.979 0.624,2.146 1.081,2.764 0.531,0.718 1.462,1.146 2.74,1.301 C -0.347,11.42 0.453,7.924 0.786,3.016 0.859,1.936 0.419,0.908 0,0 m -1.479,-15.438 c -3.341,0 -3.794,0.18 -4.333,7.206 4.551,0.484 7.145,-7.206 4.333,-7.206 M 8.629,23.984 C 7.778,24.7 6.039,25.41 5.573,25.5 3.498,25.9 0.343,24.326 -0.422,22.14 -0.825,20.99 -0.964,19.964 -0.964,19.152 -2.209,18.826 -4.309,18.265 -5.52,17.876 c -5.458,-1.754 -7.148,-4.21 -7.093,-9.891 0.051,-5.194 0.587,-8.989 0.517,-14.181 -0.054,-4.018 -0.485,-8.032 -0.783,-12.583 6.246,0 12.268,-0.063 18.284,0.111 0.528,0.015 1.622,1.133 1.434,2.429 -0.911,6.281 -3.728,8.805 -9.53,11.043 -0.711,0.275 -2.019,0.65 -2.207,0.712 0.029,0.002 0.059,0.006 0.088,0.006 5.637,0.132 11.939,6.028 11.481,11.054 -0.468,5.136 -0.593,8.927 -0.77,14.093 -0.056,1.62 0.312,2.869 2.728,3.315"
           style="fill:#bd1622;fill-opacity:1;fill-rule:nonzero;stroke:none;stroke-width:3.28414"
           id="path958" />
      </g>
      <g
         id="g960"
         transform="translate(532.5552,267.2918)"
         style="stroke-width:3.28414">
        <path
           d="m 0,0 c -2.754,0.783 -2.914,3.382 -0.681,5.357 2.013,1.78 4.286,3.266 6.355,4.987 0.801,0.667 1.753,1.539 1.954,2.465 0.603,2.774 1.393,5.626 1.797,8.486 H 2.552 C 2.892,11.933 1.793,10.025 -2.203,8.532 -2.609,12.7 -2.04,16.917 -1.598,21.295 h -6.564 c -0.367,-12.554 0.359,-24.713 0,-36.995 h 7.287 c -0.37,4.255 -0.719,8.278 -1.117,12.852 6.863,-2.898 3.599,-8.657 4.723,-12.9 h 8.506 c -0.513,1.479 -1.08,2.634 -1.307,3.853 C 8.844,-6.056 6.216,-1.766 0,0"
           style="fill:#bd1622;fill-opacity:1;fill-rule:nonzero;stroke:none;stroke-width:3.28414"
           id="path962" />
      </g>
      <g
         id="g964"
         transform="translate(450.6625,356.1139)"
         style="stroke-width:3.28414">
        <path
           d="M 0,0 C -1.941,-0.001 -3.704,1.259 -4.136,2.464 -4.942,4.713 -3.14,5.959 -0.88,6.336 1.387,6.715 3.638,7.185 6.105,7.654 6.198,3.275 3.768,0.002 0,0 m -7.437,4.883 c -1.251,-2.877 -3.248,-4.98 -6.745,-4.881 -3.65,0.104 -5.67,2.339 -6.638,5.511 -1.329,4.355 -3.64,6.965 -8.598,5.574 0.108,5.777 2.82,7.777 8.452,7.145 2.642,3.171 4.801,5.763 7.527,9.036 2.499,-3.334 4.623,-6.167 7.115,-9.492 5.973,-0.142 8.261,-2.1 7.827,-7.846 -4.993,1.907 -7.202,-1.052 -8.94,-5.047 M -23.131,3.385 c -0.432,-1.205 -2.184,-2.464 -4.135,-2.464 -3.769,0 -6.199,3.274 -6.105,7.654 2.467,-0.47 4.718,-0.94 6.985,-1.318 2.26,-0.378 4.062,-1.623 3.255,-3.872 M 53.622,28.871 C 41.55,45.878 21.945,37.876 13.156,32.31 10.539,30.653 6.784,28.477 6.784,28.477 c 0,0 -2.679,4.775 -12.034,19.181 -0.15,0.232 -0.823,1.295 -1.06,1.643 -3.653,5.37 -12.53,6.195 -24.158,1.939 -1.569,-0.575 -1.792,-2.218 -2.091,-3.862 -1.058,-5.798 -3.494,-16.121 -10.588,-25.22 -3.225,-4.137 -6.683,-7.421 -10.129,-10.003 8.345,-13.653 32.008,-53.402 32.008,-53.402 3.036,-5.197 9.693,-6.976 14.916,-3.985 l 41.394,23.701 c 0,0 39.857,20.426 18.58,50.402"
           style="fill:#7dadc8;fill-opacity:1;fill-rule:nonzero;stroke:none;stroke-width:3.28414"
           id="path966" />
      </g>
      <g
         id="g968"
         transform="translate(400.4089,379.3871)"
         style="stroke-width:3.28414">
        <path
           d="m 0,0 c -10.128,-11.104 -22.296,-16.495 -27.177,-12.043 -4.882,4.453 -0.629,17.064 9.499,28.167 C -7.55,27.228 4.618,32.62 9.499,28.167 14.381,23.714 10.128,11.104 0,0"
           style="fill:#bd1622;fill-opacity:1;fill-rule:nonzero;stroke:none;stroke-width:3.28414"
           id="path970" />
      </g>
      <g
         id="g972"
         transform="translate(450.6625,356.1139)"
         style="stroke-width:3.28414">
        <path
           d="M 0,0 C -2.012,0.05 -3.704,1.259 -4.136,2.464 -4.942,4.713 -3.14,5.959 -0.88,6.336 1.387,6.715 3.638,7.185 6.105,7.654 6.198,3.275 3.767,-0.093 0,0 m -7.437,4.883 c -1.251,-2.877 -3.248,-4.98 -6.745,-4.881 -3.643,0.104 -5.661,2.33 -6.631,5.492 -0.012,0.037 -0.028,0.07 -0.04,0.107 -0.505,1.615 -1.147,2.986 -2.007,3.997 -0.113,0.132 -0.23,0.267 -0.352,0.386 -0.179,0.178 -0.368,0.333 -0.565,0.482 -1.362,1.012 -3.173,1.313 -5.641,0.621 0,0.003 0,0.005 0,0.008 -0.013,-0.003 -0.024,-0.003 -0.037,-0.007 0.065,5.753 2.876,7.732 8.489,7.144 2.608,3.177 7.493,8.995 7.527,9.036 2.464,-3.287 4.668,-6.227 7.115,-9.492 2.83,-0.084 5.035,-0.601 6.209,-1.744 C 1.22,14.811 1.725,12.873 1.503,9.93 -3.49,11.837 -5.699,8.878 -7.437,4.883 M -23.131,3.385 c -0.432,-1.205 -2.167,-2.465 -4.135,-2.464 -3.667,0.001 -6.047,3.106 -6.088,7.311 -10e-4,0.111 -0.02,0.214 -0.019,0.326 10e-4,0 0.002,0 0.003,-10e-4 0,0.006 -0.001,0.012 -0.001,0.018 0.775,-0.148 1.503,-0.291 2.242,-0.436 1.607,-0.302 3.174,-0.596 4.721,-0.842 1.702,-0.272 3.142,-1.04 3.409,-2.366 0.105,-0.451 0.077,-0.963 -0.132,-1.546 M 30.822,44.164 C 14.511,57.161 -2.11,44.042 -9.013,36.259 c -2.056,-2.317 -5.061,-5.448 -5.061,-5.448 0,0 -3.897,3.846 -16.876,15.097 -4,3.467 -0.262,-9.451 -15.867,-27.598 C -62.276,0.332 -78.023,8.205 -69.922,0.912 c 8.603,-7.744 48.209,-44.867 48.209,-44.867 4.356,-4.153 11.246,-4.018 15.436,0.302 l 33.209,34.24 c 0,0 32.639,30.669 3.89,53.577"
           style="fill:#bd1622;fill-opacity:1;fill-rule:nonzero;stroke:none;stroke-width:3.28414"
           id="path974" />
      </g>
    </g>
  </g>
</svg>
