<svg width="215" height="152" viewBox="0 0 215 152" fill="none" xmlns="http://www.w3.org/2000/svg">
<g clip-path="url(#clip0_18_1810)">
<mask id="mask0_18_1810" style="mask-type:luminance" maskUnits="userSpaceOnUse" x="-268" y="-160" width="721" height="513">
<path d="M-267.973 -159.243H452.487V352.578H-267.973V-159.243Z" fill="white"/>
</mask>
<g mask="url(#mask0_18_1810)">
<path d="M69.9208 147.281V149.12H70.4085C70.5694 149.12 70.6944 149.084 70.7834 149.012C70.8698 148.939 70.9143 148.804 70.9143 148.608V147.793C70.9143 147.596 70.8698 147.462 70.7834 147.389C70.6944 147.317 70.5694 147.281 70.4085 147.281H69.9208ZM70.4085 146.505C70.9263 146.505 71.3122 146.618 71.5647 146.846C71.818 147.074 71.9438 147.408 71.9438 147.848V148.553C71.9438 148.994 71.818 149.327 71.5647 149.555C71.3122 149.783 70.9263 149.897 70.4085 149.897H69.9208V151.938H68.8904V146.505H70.4085Z" fill="#37120D"/>
<path d="M73.4525 148.794H74.8662V149.571H73.4525V151.162H75.2325V151.938H72.4222V146.505H75.2325V147.281H73.4525V148.794Z" fill="#37120D"/>
<path d="M78.8553 149.912V150.633C78.8553 151.073 78.7261 151.411 78.4668 151.647C78.2075 151.881 77.825 152 77.3192 152C76.8135 152 76.431 151.881 76.1725 151.647C75.9132 151.411 75.784 151.073 75.784 150.633V147.808C75.784 147.368 75.9132 147.03 76.1725 146.795C76.431 146.559 76.8135 146.441 77.3192 146.441C77.825 146.441 78.2075 146.559 78.4668 146.795C78.7261 147.03 78.8553 147.368 78.8553 147.808V148.336H77.8815V147.753C77.8815 147.557 77.8327 147.419 77.7369 147.338C77.6393 147.258 77.5101 147.218 77.3483 147.218C77.1857 147.218 77.0557 147.258 76.9598 147.338C76.8623 147.419 76.8135 147.557 76.8135 147.753V150.688C76.8135 150.884 76.8623 151.022 76.9598 151.1C77.0557 151.177 77.1857 151.216 77.3483 151.216C77.5101 151.216 77.6393 151.177 77.7369 151.1C77.8327 151.022 77.8815 150.884 77.8815 150.688V149.912H78.8553Z" fill="#37120D"/>
<path d="M79.1829 146.504H82.3672V147.28H81.2898V151.938H80.2603V147.28H79.1829V146.504Z" fill="#37120D"/>
<path d="M83.7629 150.688C83.7629 150.885 83.8117 151.023 83.9076 151.103C84.0051 151.184 84.1343 151.224 84.2961 151.224C84.4595 151.224 84.5888 151.184 84.6846 151.103C84.7822 151.023 84.8309 150.885 84.8309 150.688V147.753C84.8309 147.557 84.7822 147.419 84.6846 147.338C84.5888 147.258 84.4595 147.219 84.2961 147.219C84.1343 147.219 84.0051 147.258 83.9076 147.338C83.8117 147.419 83.7629 147.557 83.7629 147.753V150.688ZM82.7326 147.808C82.7326 147.368 82.867 147.031 83.1348 146.795C83.4035 146.559 83.7903 146.441 84.2961 146.441C84.8018 146.441 85.1887 146.559 85.4591 146.795C85.7269 147.031 85.8613 147.368 85.8613 147.808V150.634C85.8613 151.074 85.7269 151.411 85.4591 151.647C85.1887 151.882 84.8018 152 84.2961 152C83.7903 152 83.4035 151.882 83.1348 151.647C82.867 151.411 82.7326 151.074 82.7326 150.634V147.808Z" fill="#37120D"/>
<path d="M87.5568 147.281V149.12H88.0429C88.2055 149.12 88.3304 149.084 88.4177 149.012C88.5059 148.939 88.5487 148.804 88.5487 148.608V147.793C88.5487 147.596 88.5059 147.462 88.4177 147.389C88.3304 147.317 88.2055 147.281 88.0429 147.281H87.5568ZM88.0429 146.505C88.5624 146.505 88.9483 146.618 89.2008 146.846C89.4541 147.074 89.5799 147.408 89.5799 147.848V148.553C89.5799 148.994 89.4541 149.327 89.2008 149.555C88.9483 149.783 88.5624 149.897 88.0429 149.897H87.5568V151.938H86.5265V146.505H88.0429Z" fill="#37120D"/>
<path d="M91.0399 150.214H92.0334L91.5362 147.466L91.0399 150.214ZM93.3907 151.938H92.3518L92.1738 150.951H90.909L90.731 151.938H89.7845L90.8345 146.504H92.3415L93.3907 151.938Z" fill="#37120D"/>
<path d="M94.8992 151.938H93.8689V146.505H94.8992V148.833H96.0691V146.505H97.1191V151.938H96.0691V149.609H94.8992V151.938Z" fill="#37120D"/>
<path d="M101.501 150.362L102.204 146.505H103.637V151.938H102.663V148.042L101.95 151.938H100.977L100.209 148.096V151.938H99.3104V146.505H100.742L101.501 150.362Z" fill="#37120D"/>
<path d="M105.415 148.794H106.829V149.571H105.415V151.162H107.195V151.938H104.385V146.505H107.195V147.281H105.415V148.794Z" fill="#37120D"/>
<path d="M110.82 149.912V150.633C110.82 151.073 110.691 151.411 110.431 151.647C110.172 151.881 109.789 152 109.284 152C108.778 152 108.395 151.881 108.137 151.647C107.878 151.411 107.748 151.073 107.748 150.633V147.808C107.748 147.368 107.878 147.03 108.137 146.795C108.395 146.559 108.778 146.441 109.284 146.441C109.789 146.441 110.172 146.559 110.431 146.795C110.691 147.03 110.82 147.368 110.82 147.808V148.336H109.846V147.753C109.846 147.557 109.797 147.419 109.7 147.338C109.604 147.258 109.474 147.218 109.311 147.218C109.15 147.218 109.02 147.258 108.922 147.338C108.827 147.419 108.778 147.557 108.778 147.753V150.688C108.778 150.884 108.827 151.022 108.922 151.1C109.02 151.177 109.15 151.216 109.311 151.216C109.474 151.216 109.604 151.177 109.7 151.1C109.797 151.022 109.846 150.884 109.846 150.688V149.912H110.82Z" fill="#37120D"/>
<path d="M111.147 146.504H114.332V147.28H113.254V151.938H112.225V147.28H111.147V146.504Z" fill="#37120D"/>
<path d="M115.811 151.938H114.781V146.505H115.811V148.833H116.983V146.505H118.031V151.938H116.983V149.609H115.811V151.938Z" fill="#37120D"/>
<path d="M119.725 150.688C119.725 150.885 119.774 151.023 119.872 151.103C119.968 151.184 120.097 151.224 120.26 151.224C120.422 151.224 120.551 151.184 120.649 151.103C120.745 151.023 120.793 150.885 120.793 150.688V147.753C120.793 147.557 120.745 147.419 120.649 147.338C120.551 147.258 120.422 147.219 120.26 147.219C120.097 147.219 119.968 147.258 119.872 147.338C119.774 147.419 119.725 147.557 119.725 147.753V150.688ZM118.695 147.808C118.695 147.368 118.829 147.031 119.099 146.795C119.368 146.559 119.755 146.441 120.26 146.441C120.766 146.441 121.153 146.559 121.422 146.795C121.689 147.031 121.824 147.368 121.824 147.808V150.634C121.824 151.074 121.689 151.411 121.422 151.647C121.153 151.882 120.766 152 120.26 152C119.755 152 119.368 151.882 119.099 151.647C118.829 151.411 118.695 151.074 118.695 150.634V147.808Z" fill="#37120D"/>
<path d="M125.233 145.292C125.233 145.556 125.142 145.766 124.96 145.921C124.779 146.076 124.505 146.154 124.136 146.154C123.775 146.154 123.509 146.076 123.336 145.921C123.164 145.766 123.072 145.556 123.061 145.292H123.697C123.71 145.437 123.751 145.533 123.824 145.58C123.896 145.627 123.999 145.65 124.136 145.65C124.281 145.65 124.39 145.627 124.47 145.58C124.548 145.533 124.593 145.437 124.605 145.292H125.233ZM123.547 151.938H122.489V146.504H123.406V149.943L123.781 148.747L124.624 146.504H125.757V151.938H124.829V148.111L124.409 149.445L123.547 151.938Z" fill="#37120D"/>
<path d="M129.308 149.773L128.989 150.27V151.938H127.959V146.505H128.989V148.872L130.338 146.505H131.367L129.936 148.927L131.367 151.938H130.309L129.308 149.773Z" fill="#37120D"/>
<path d="M134.121 150.556C134.058 150.799 133.982 151.012 133.891 151.196C133.801 151.38 133.679 151.53 133.527 151.647C133.373 151.763 133.176 151.847 132.936 151.898C132.696 151.95 132.397 151.966 132.041 151.945V151.184C132.303 151.201 132.51 151.18 132.66 151.122C132.809 151.066 132.906 150.938 132.951 150.742L132.96 150.695L131.536 146.504H132.556L133.118 148.359L133.437 149.632L133.68 148.367L134.148 146.504H135.226L134.121 150.556Z" fill="#37120D"/>
<path d="M139.094 146.504L138.016 149.142L139.168 151.938H138.082L137.239 149.787L136.388 151.938H135.422L136.575 149.142L135.498 146.504H136.564L137.343 148.506L138.139 146.504H139.094Z" fill="#37120D"/>
<path d="M140.714 151.938H139.683V146.505H140.714V148.833H141.885V146.505H142.933V151.938H141.885V149.609H140.714V151.938Z" fill="#37120D"/>
<path d="M144.741 151.938H143.683V146.505H144.6V149.944L144.975 148.749L145.818 146.505H146.951V151.938H146.023V148.111L145.603 149.446L144.741 151.938Z" fill="#37120D"/>
<path d="M153.812 130.418C153.46 131.184 152.652 131.978 151.961 132.468C151.218 132.992 150.43 133.239 149.618 133.416C148.98 129.649 148.624 125.909 148.494 122.183C149.623 122.171 150.7 122.217 151.573 122.389C155.29 123.121 157.968 120.755 157.698 116.895C157.661 116.376 157.151 115.89 157.179 115.937C155.314 116.793 153.922 117.55 152.449 118.08C151.644 118.369 150.098 119.017 148.446 119.698C148.406 115.452 148.619 111.218 149.018 106.973L149.058 106.54C149.54 106.074 150.171 105.896 151.033 106.097C151.788 110.145 153.103 113.041 155.973 113.56C157.13 113.769 157.552 113.581 157.393 112.122C157.174 110.102 157.475 108.024 157.565 105.972C157.596 105.267 157.666 104.564 157.717 103.859C157.013 103.894 156.309 103.922 155.606 103.963C153.37 104.095 151.133 104.227 148.897 104.357H142.843V136.206H147.778C147.776 136.218 147.778 136.231 147.776 136.244C148.388 136.253 148.995 136.241 149.597 136.206H150.126C150.123 136.187 150.12 136.169 150.117 136.151C150.486 136.118 150.856 136.094 151.221 136.035C155.121 135.406 158.202 134.487 159.917 130.457C158.692 129.931 157.725 129.605 156.845 129.119C155.224 128.223 154.608 128.687 153.812 130.418Z" fill="#BD1622"/>
<path d="M116.248 126.945C115.954 128.568 115.03 129.831 113.77 130.123C112.977 130.307 112.149 129.894 111.883 129.382C110.421 126.568 113.243 121.952 116.724 121.047C116.589 123.167 116.614 124.929 116.248 126.945ZM121.069 104.422C117.172 104.209 113.278 103.965 109.382 103.736C108.645 103.693 107.909 103.663 107.172 103.627C107.226 104.364 107.298 105.101 107.33 105.839C107.425 107.989 107.74 110.165 107.511 112.28C107.345 113.809 107.786 114.005 108.998 113.786C112.004 113.243 113.38 110.21 114.173 105.97C116.394 105.453 118.056 107.301 118.527 110.373C119.208 114.818 114.275 118.375 110.714 121.047C107.995 123.087 106.143 125.002 106.127 129.562C106.127 129.577 105.544 136.093 111.112 136.093C114.17 136.093 115.417 134.326 116.272 131.695C116.233 133.235 116.07 135.357 116.048 136.152C118.085 136.16 119.884 136.2 121.925 136.249L123.804 104.429C123.002 104.429 122.033 104.474 121.069 104.422Z" fill="#BD1622"/>
<path d="M134.918 104.405C134.731 104.405 134.548 104.423 134.364 104.432C128.912 105.989 125.599 127.777 124.646 132.923C124.448 133.997 123.803 135.106 123.073 136.262H130.534C131.386 133.03 131.281 112.44 134.682 107.53C134.482 117.032 135.24 126.786 134.954 136.262H140.471L139.331 104.405H134.918Z" fill="#BD1622"/>
<path d="M172.516 104.342L172.626 107.082C172.535 110.198 172.445 113.177 172.356 116.11C171.785 116.469 171.178 116.742 170.526 116.903C169.82 117.08 169.1 117.122 168.37 117.031C167.673 116.944 167.002 116.709 166.348 116.348C166.428 113.339 166.609 110.29 166.912 107.06L167.17 104.321C164.22 104.321 164.072 104.274 161.1 104.274V136.288C163.242 136.288 164.548 136.334 167.426 136.334C166.681 130.39 166.323 125.133 166.307 119.882C166.872 120.077 167.453 120.207 168.053 120.264C169.155 120.367 170.226 120.261 171.266 119.947C171.266 119.947 171.721 119.925 172.24 119.897C172.077 125.243 171.912 130.533 171.745 136.262C174.105 136.262 175.738 136.288 177.59 136.288C177.59 125.046 177.589 115.31 177.589 104.368C175.026 104.368 174.997 104.342 172.516 104.342Z" fill="#BD1622"/>
<path d="M215 136.242C215 125.001 214.997 115.393 214.997 104.451C212.435 104.451 212.089 104.478 209.608 104.478L209.721 105.911C209.58 110.778 209.439 115.59 209.3 120.398C209.286 120.39 209.273 120.383 209.26 120.374L209.268 120.479C209.283 121.273 209.154 122.011 208.876 122.696C208.599 123.379 208.217 123.995 207.73 124.539C207.245 125.084 206.673 125.526 206.019 125.863C205.404 126.18 204.73 126.361 204.003 126.434C203.586 119.44 203.708 112.837 204.366 105.829L204.621 104.397C201.671 104.397 201.581 104.451 198.609 104.451C198.609 115.67 198.609 125.208 198.609 136.263C200.752 136.263 202.015 136.209 204.893 136.209C204.604 133.853 204.382 131.584 204.204 129.354L204.394 129.283C205.53 129.195 206.584 128.882 207.554 128.345C208.125 128.027 208.631 127.64 209.102 127.216C209.015 130.223 208.927 133.235 208.838 136.27C211.198 136.27 213.148 136.242 215 136.242Z" fill="#BD1622"/>
<path d="M27.8347 126.555C27.5403 128.179 26.617 129.442 25.3564 129.733C24.564 129.917 23.7356 129.505 23.4695 128.992C22.0078 126.178 24.8293 121.563 28.3105 120.657C28.1753 122.777 28.2001 124.539 27.8347 126.555ZM32.6552 104.032C28.7589 103.82 24.8643 103.575 20.9689 103.347C20.2321 103.303 19.4953 103.274 18.7585 103.238C18.8124 103.974 18.8843 104.711 18.9168 105.45C19.0118 107.599 19.3267 109.775 19.0973 111.891C18.9313 113.419 19.3729 113.615 20.5847 113.396C23.5901 112.854 24.967 109.82 25.7595 105.58C27.981 105.063 29.6429 106.911 30.1136 109.984C30.7948 114.429 25.8613 117.985 22.3005 120.657C19.5817 122.697 17.7298 124.612 17.7136 129.173C17.7136 129.187 17.1308 135.703 22.6984 135.703C25.7569 135.703 27.0038 133.936 27.8587 131.305C27.8193 132.845 27.6567 134.968 27.6345 135.762C29.672 135.771 31.4709 135.81 33.5119 135.859L35.3903 104.04C34.5884 104.04 33.6197 104.084 32.6552 104.032Z" fill="#BD1622"/>
<path d="M59.31 104.721C56.7478 104.721 56.7187 104.695 54.237 104.695L54.3474 107.435C54.2575 110.552 54.16 130.022 54.071 132.955C53.8536 133.091 52.3475 133.21 50.5281 133.286C50.5281 123.429 50.5264 114.557 50.5264 104.721C48.6848 104.721 48.6634 104.695 46.88 104.695L46.9596 107.435C46.9074 109.92 46.8689 126.252 47.0007 133.37C45.1462 133.381 43.5879 133.331 43.3371 133.192C43.4176 130.184 43.605 110.644 43.9088 107.413L44.1664 104.674C41.2157 104.674 41.0685 104.627 38.0964 104.627V136.641H47.1376H50.5281H59.3117C59.3117 125.4 59.31 115.663 59.31 104.721Z" fill="#BD1622"/>
<path d="M11.4159 103.587L11.5263 106.326C11.4356 109.443 11.3457 112.421 11.2567 115.354C10.6851 115.713 10.0784 115.987 9.42712 116.148C8.72026 116.325 8.00056 116.367 7.27059 116.276C6.57314 116.188 5.90222 115.953 5.24841 115.592C5.32886 112.584 5.50942 109.534 5.81236 106.304L6.06995 103.565C3.12012 103.565 2.97208 103.519 0 103.519V135.532C2.14284 135.532 3.44874 135.579 6.32668 135.579C5.58131 129.634 5.2236 124.378 5.20734 119.127C5.77214 119.321 6.35321 119.452 6.9531 119.508C8.05533 119.612 9.12675 119.505 10.1665 119.191C10.1665 119.191 10.6218 119.169 11.1404 119.141C10.9769 124.488 10.8126 129.777 10.6457 135.507C13.0051 135.507 14.6387 135.532 16.4906 135.532C16.4906 124.291 16.4889 114.554 16.4889 103.612C13.9267 103.612 13.8976 103.587 11.4159 103.587Z" fill="#BD1622"/>
<path d="M79.128 136.577C79.128 125.336 79.1254 115.728 79.1254 104.786C76.5632 104.786 76.2167 104.813 73.7358 104.813L73.8488 106.246C73.7076 111.113 73.5672 115.925 73.4277 120.733C73.414 120.725 73.4012 120.718 73.3875 120.709L73.3961 120.814C73.4115 121.608 73.2822 122.346 73.0041 123.031C72.7268 123.714 72.3452 124.33 71.8582 124.874C71.373 125.419 70.8014 125.861 70.1467 126.198C69.5323 126.515 68.8579 126.696 68.1305 126.769C67.7138 119.775 67.8361 113.172 68.4942 106.164L68.7492 104.732C65.7994 104.732 65.7087 104.786 62.7366 104.786C62.7366 116.005 62.7375 125.543 62.7375 136.598C64.8803 136.598 66.1426 136.544 69.0205 136.544C68.7321 134.188 68.5096 131.919 68.3316 129.689L68.5216 129.618C69.6581 129.53 70.7115 129.217 71.682 128.68C72.2528 128.362 72.7585 127.975 73.23 127.551C73.1427 130.557 73.0546 133.57 72.9665 136.604C75.3258 136.604 77.2761 136.577 79.128 136.577Z" fill="#BD1622"/>
<path d="M98.3811 120.095C97.747 121.477 95.2088 122.119 93.9987 121.221C93.8156 121.086 93.6795 120.738 93.6966 120.502C93.9816 116.419 93.9936 113.534 94.4103 109.464C94.4968 108.622 94.9443 107.619 95.3354 107.087C95.7898 106.47 96.5865 106.102 97.6802 105.969C98.0841 110.276 98.7688 113.282 99.0537 117.502C99.1162 118.431 98.7397 119.314 98.3811 120.095ZM97.1154 133.369C94.2563 133.369 93.8686 133.214 93.4074 127.173C97.302 126.757 99.5218 133.369 97.1154 133.369ZM105.765 99.4736C105.037 98.858 103.549 98.2475 103.15 98.1701C101.375 97.8262 98.6746 99.1795 98.02 101.059C97.6751 102.048 97.5561 102.93 97.5561 103.628C96.4907 103.908 94.6936 104.391 93.6573 104.725C88.9865 106.233 87.5402 108.345 87.5873 113.23C87.631 117.695 88.0896 120.958 88.0297 125.422C87.9835 128.877 87.6147 132.328 87.3597 136.241C92.7048 136.241 97.8582 136.296 103.007 136.146C103.458 136.133 104.395 135.172 104.234 134.058C103.454 128.657 101.043 126.487 96.0782 124.563C95.4698 124.326 94.3504 124.004 94.1895 123.951C94.2144 123.949 94.24 123.945 94.2649 123.945C99.0888 123.832 104.482 118.762 104.09 114.441C103.689 110.025 103.582 106.766 103.431 102.324C103.383 100.931 103.698 99.8571 105.765 99.4736Z" fill="#BD1622"/>
<path d="M187.769 122.76C185.412 122.086 185.276 119.852 187.186 118.154C188.909 116.623 190.854 115.345 192.625 113.866C193.31 113.292 194.125 112.543 194.297 111.746C194.813 109.361 195.489 106.909 195.835 104.45H189.953C190.244 112.5 189.304 114.14 185.884 115.424C185.537 111.84 186.023 108.214 186.402 104.45H180.784C180.47 115.244 181.092 125.698 180.784 136.259H187.02C186.704 132.6 186.405 129.141 186.065 125.208C191.938 127.7 189.144 132.652 190.106 136.3H197.385C196.946 135.028 196.461 134.035 196.267 132.987C195.338 127.967 193.089 124.278 187.769 122.76Z" fill="#BD1622"/>
<path d="M117.688 46.3898C116.027 46.3906 114.519 45.3073 114.149 44.2712C113.459 42.3375 115.001 41.2662 116.935 40.942C118.875 40.6162 120.802 40.2121 122.913 39.8088C122.992 43.5739 120.913 46.388 117.688 46.3898ZM111.324 42.1913C110.253 44.665 108.544 46.4732 105.552 46.388C102.428 46.2986 100.7 44.3769 99.8712 41.6496C98.7339 37.9052 96.7562 35.6611 92.5133 36.8571C92.6058 31.89 94.9266 30.1704 99.7463 30.7138C102.007 27.9873 103.855 25.7587 106.188 22.9446C108.326 25.8112 110.144 28.247 112.276 31.1059C117.388 31.2279 119.346 32.9114 118.974 37.8519C114.702 36.2122 112.811 38.7564 111.324 42.1913ZM97.8935 43.4793C97.5238 44.5154 96.0245 45.5979 94.3549 45.5979C91.1296 45.5979 89.05 42.7829 89.1305 39.0169C91.2417 39.421 93.168 39.8251 95.108 40.1501C97.042 40.4752 98.5841 41.5456 97.8935 43.4793ZM163.576 21.5663C153.245 6.94361 136.468 13.8238 128.947 18.6095C126.707 20.0341 123.494 21.9051 123.494 21.9051C123.494 21.9051 121.201 17.7995 113.195 5.41316C113.067 5.21368 112.491 4.29971 112.288 4.0005C109.162 -0.616646 101.566 -1.32599 91.6148 2.33334C90.2721 2.82773 90.0812 4.24039 89.8254 5.65391C88.92 10.6391 86.8353 19.5148 80.7645 27.3382C78.0047 30.8952 75.0454 33.7188 72.0965 35.9388C79.2378 47.6777 99.4878 81.8541 99.4878 81.8541C102.086 86.3225 107.783 87.8521 112.252 85.2805L147.676 64.9022C147.676 64.9022 181.784 47.3398 163.576 21.5663Z" fill="#7DADC8"/>
<path d="M74.683 26.3807C66.0158 35.928 55.6028 40.5632 51.4258 36.7353C47.248 32.9066 50.8875 22.0636 59.5547 12.5172C68.2219 2.9699 78.6349 -1.66617 82.8119 2.16254C86.9897 5.99126 83.3502 16.8334 74.683 26.3807Z" fill="#BD1622"/>
<path d="M117.688 46.3895C115.966 46.3465 114.519 45.307 114.149 44.2709C113.459 42.3372 115.001 41.2659 116.935 40.9418C118.875 40.6159 120.802 40.2118 122.913 39.8085C122.992 43.5736 120.912 46.4695 117.688 46.3895ZM111.324 42.1911C110.253 44.6647 108.544 46.4729 105.552 46.3878C102.434 46.2984 100.707 44.3844 99.8772 41.6657C99.8669 41.6339 99.8532 41.6055 99.843 41.5737C99.4108 40.1851 98.8614 39.0063 98.1254 38.1371C98.0287 38.0236 97.9286 37.9075 97.8242 37.8052C97.671 37.6522 97.5093 37.5189 97.3407 37.3908C96.1752 36.5206 94.6254 36.2618 92.5133 36.8568C92.5133 36.8543 92.5133 36.8525 92.5133 36.85C92.5022 36.8525 92.4928 36.8525 92.4817 36.856C92.5373 31.9095 94.9429 30.208 99.7463 30.7135C101.978 27.9819 106.159 22.9796 106.188 22.9443C108.296 25.7705 110.182 28.2983 112.276 31.1056C114.698 31.1778 116.585 31.6223 117.59 32.6051C118.732 33.6549 119.164 35.3212 118.974 37.8516C114.702 36.212 112.811 38.7561 111.324 42.1911ZM97.8935 43.4791C97.5238 44.5151 96.0391 45.5985 94.3549 45.5976C91.2168 45.5968 89.1801 42.9271 89.145 39.3116C89.1442 39.2161 89.1279 39.1276 89.1288 39.0313C89.1296 39.0313 89.1305 39.0313 89.1313 39.0321C89.1313 39.027 89.1305 39.0218 89.1305 39.0167C89.7937 39.1439 90.4167 39.2669 91.0491 39.3915C92.4243 39.6512 93.7653 39.904 95.0892 40.1155C96.5457 40.3494 97.778 41.0097 98.0065 42.1498C98.0963 42.5376 98.0724 42.9778 97.8935 43.4791ZM144.065 8.41706C130.106 -2.75783 115.883 8.52197 109.975 15.2138C108.216 17.206 105.644 19.898 105.644 19.898C105.644 19.898 102.309 16.5912 91.2023 6.91756C87.7792 3.93662 90.9781 15.0436 77.6239 30.6465C64.3946 46.104 50.9188 39.3348 57.8514 45.6054C65.2135 52.2637 99.107 84.1822 99.107 84.1822C102.835 87.753 108.731 87.6369 112.317 83.9226L140.736 54.4828C140.736 54.4828 168.667 28.1135 144.065 8.41706Z" fill="#BD1622"/>
</g>
</g>
<defs>
<clipPath id="clip0_18_1810">
<rect width="215" height="152" fill="white"/>
</clipPath>
</defs>
</svg>
