<svg width="32" height="32" viewBox="0 0 32 32" fill="none" xmlns="http://www.w3.org/2000/svg">
<path d="M7.48936 15.6596H8.17021V16.3404H7.48936V15.6596Z" fill="#BD1622"/>
<path d="M31.3191 15.6596H30.6383V14.9787H31.3191V15.6596Z" fill="#BD1622"/>
<path d="M30.6383 14.9787H29.9574V14.2979H30.6383V14.9787Z" fill="#BD1622"/>
<path d="M29.9574 14.2979H29.2766V13.617H29.9574V14.2979Z" fill="#BD1622"/>
<path d="M29.2766 13.617H28.5957V12.9362H29.2766V13.617Z" fill="#BD1622"/>
<path d="M28.5957 12.9362H27.9149V12.2553H28.5957V12.9362Z" fill="#BD1622"/>
<path d="M27.9149 12.2553H27.234V11.5745H27.9149V12.2553Z" fill="#BD1622"/>
<path d="M27.234 11.5745H26.5532V10.8936H27.234V11.5745Z" fill="#BD1622"/>
<path d="M26.5532 10.8936H25.8723V10.2128H26.5532V10.8936Z" fill="#BD1622"/>
<path d="M25.8723 10.2128H25.1915V9.53191H25.8723V10.2128Z" fill="#BD1622"/>
<path d="M25.1915 9.53191H24.5106V8.85106H25.1915V9.53191Z" fill="#BD1622"/>
<path d="M24.5106 8.85106H23.8298V8.17021H24.5106V8.85106Z" fill="#BD1622"/>
<path d="M23.8298 8.17021H23.1489V7.48936H23.8298V8.17021Z" fill="#BD1622"/>
<path d="M23.1489 7.48936H22.4681V6.80851H23.1489V7.48936Z" fill="#BD1622"/>
<path d="M22.4681 6.80851H21.7872V6.12766H22.4681V6.80851Z" fill="#BD1622"/>
<path d="M21.7872 6.12766H21.1064V5.44681H21.7872V6.12766Z" fill="#BD1622"/>
<path d="M21.1064 5.44681H20.4255V4.76596H21.1064V5.44681Z" fill="#BD1622"/>
<path d="M20.4255 4.76596H19.7447V4.08511H20.4255V4.76596Z" fill="#BD1622"/>
<path d="M19.7447 4.08511H19.0638V3.40426H19.7447V4.08511Z" fill="#BD1622"/>
<path d="M19.0638 3.40426H18.383V2.7234H19.0638V3.40426Z" fill="#BD1622"/>
<path d="M18.383 2.7234H17.7021V2.04255H18.383V2.7234Z" fill="#BD1622"/>
<path d="M17.7021 2.04255H17.0213V1.3617H17.7021V2.04255Z" fill="#BD1622"/>
<path d="M17.0213 1.3617H16.3404V0.680851H17.0213V1.3617Z" fill="#BD1622"/>
<path d="M16.3404 0.680851H15.6596V0H16.3404V0.680851Z" fill="#BD1622"/>
<path d="M31.3191 17.0213H30.6383V16.3404H31.3191V17.0213Z" fill="#BD1622"/>
<path d="M30.6383 17.7021H29.9574V17.0213H30.6383V17.7021Z" fill="#BD1622"/>
<path d="M29.9574 18.383H29.2766V17.7021H29.9574V18.383Z" fill="#BD1622"/>
<path d="M29.2766 19.0638H28.5957V18.383H29.2766V19.0638Z" fill="#BD1622"/>
<path d="M28.5957 19.7447H27.9149V19.0638H28.5957V19.7447Z" fill="#BD1622"/>
<path d="M27.9149 20.4255H27.234V19.7447H27.9149V20.4255Z" fill="#BD1622"/>
<path d="M27.234 21.1064H26.5532V20.4255H27.234V21.1064Z" fill="#BD1622"/>
<path d="M26.5532 21.7872H25.8723V21.1064H26.5532V21.7872Z" fill="#BD1622"/>
<path d="M25.8723 22.4681H25.1915V21.7872H25.8723V22.4681Z" fill="#BD1622"/>
<path d="M25.1915 23.1489H24.5106V22.4681H25.1915V23.1489Z" fill="#BD1622"/>
<path d="M24.5106 23.8298H23.8298V23.1489H24.5106V23.8298Z" fill="#BD1622"/>
<path d="M23.8298 24.5106H23.1489V23.8298H23.8298V24.5106Z" fill="#BD1622"/>
<path d="M23.1489 25.1915H22.4681V24.5106H23.1489V25.1915Z" fill="#BD1622"/>
<path d="M22.4681 25.8723H21.7872V25.1915H22.4681V25.8723Z" fill="#BD1622"/>
<path d="M21.7872 26.5532H21.1064V25.8723H21.7872V26.5532Z" fill="#BD1622"/>
<path d="M21.1064 27.234H20.4255V26.5532H21.1064V27.234Z" fill="#BD1622"/>
<path d="M20.4255 27.9149H19.7447V27.234H20.4255V27.9149Z" fill="#BD1622"/>
<path d="M19.7447 28.5957H19.0638V27.9149H19.7447V28.5957Z" fill="#BD1622"/>
<path d="M19.0638 29.2766H18.383V28.5957H19.0638V29.2766Z" fill="#BD1622"/>
<path d="M18.383 29.9574H17.7021V29.2766H18.383V29.9574Z" fill="#BD1622"/>
<path d="M17.7021 30.6383H17.0213V29.9574H17.7021V30.6383Z" fill="#BD1622"/>
<path d="M17.0213 31.3191H16.3404V30.6383H17.0213V31.3191Z" fill="#BD1622"/>
<path d="M16.3404 32H15.6596V31.3191H16.3404V32Z" fill="#BD1622"/>
<path d="M32 16.3404H31.3191V15.6596H32V16.3404Z" fill="#BD1622"/>
<path d="M0.680851 15.6596H1.3617V14.9787H0.680851V15.6596Z" fill="#BD1622"/>
<path d="M1.3617 14.9787H2.04255V14.2979H1.3617V14.9787Z" fill="#BD1622"/>
<path d="M2.04255 14.2979H2.7234V13.617H2.04255V14.2979Z" fill="#BD1622"/>
<path d="M2.7234 13.617H3.40426V12.9362H2.7234V13.617Z" fill="#BD1622"/>
<path d="M3.40426 12.9362H4.08511V12.2553H3.40426V12.9362Z" fill="#BD1622"/>
<path d="M4.08511 12.2553H4.76596V11.5745H4.08511V12.2553Z" fill="#BD1622"/>
<path d="M4.76596 11.5745H5.44681V10.8936H4.76596V11.5745Z" fill="#BD1622"/>
<path d="M5.44681 10.8936H6.12766V10.2128H5.44681V10.8936Z" fill="#BD1622"/>
<path d="M6.12766 10.2128H6.80851V9.53191H6.12766V10.2128Z" fill="#BD1622"/>
<path d="M6.80851 9.53191H7.48936V8.85106H6.80851V9.53191Z" fill="#BD1622"/>
<path d="M7.48936 8.85106H8.17021V8.17021H7.48936V8.85106Z" fill="#BD1622"/>
<path d="M8.17021 8.17021H8.85106V7.48936H8.17021V8.17021Z" fill="#BD1622"/>
<path d="M8.85106 7.48936H9.53191V6.80851H8.85106V7.48936Z" fill="#BD1622"/>
<path d="M9.53191 6.80851H10.2128V6.12766H9.53191V6.80851Z" fill="#BD1622"/>
<path d="M10.2128 6.12766H10.8936V5.44681H10.2128V6.12766Z" fill="#BD1622"/>
<path d="M10.8936 5.44681H11.5745V4.76596H10.8936V5.44681Z" fill="#BD1622"/>
<path d="M11.5745 4.76596H12.2553V4.08511H11.5745V4.76596Z" fill="#BD1622"/>
<path d="M12.2553 4.08511H12.9362V3.40426H12.2553V4.08511Z" fill="#BD1622"/>
<path d="M12.9362 3.40426H13.617V2.7234H12.9362V3.40426Z" fill="#BD1622"/>
<path d="M13.617 2.7234H14.2979V2.04255H13.617V2.7234Z" fill="#BD1622"/>
<path d="M14.2979 2.04255H14.9787V1.3617H14.2979V2.04255Z" fill="#BD1622"/>
<path d="M14.9787 1.3617H15.6596V0.680851H14.9787V1.3617Z" fill="#BD1622"/>
<path d="M15.6596 0.680851H16.3404V0H15.6596V0.680851Z" fill="#BD1622"/>
<path d="M0.680851 17.0213H1.3617V16.3404H0.680851V17.0213Z" fill="#BD1622"/>
<path d="M1.3617 17.7021H2.04255V17.0213H1.3617V17.7021Z" fill="#BD1622"/>
<path d="M2.04255 18.383H2.7234V17.7021H2.04255V18.383Z" fill="#BD1622"/>
<path d="M2.7234 19.0638H3.40426V18.383H2.7234V19.0638Z" fill="#BD1622"/>
<path d="M3.40426 19.7447H4.08511V19.0638H3.40426V19.7447Z" fill="#BD1622"/>
<path d="M4.08511 20.4255H4.76596V19.7447H4.08511V20.4255Z" fill="#BD1622"/>
<path d="M4.76596 21.1064H5.44681V20.4255H4.76596V21.1064Z" fill="#BD1622"/>
<path d="M5.44681 21.7872H6.12766V21.1064H5.44681V21.7872Z" fill="#BD1622"/>
<path d="M6.12766 22.4681H6.80851V21.7872H6.12766V22.4681Z" fill="#BD1622"/>
<path d="M6.80851 23.1489H7.48936V22.4681H6.80851V23.1489Z" fill="#BD1622"/>
<path d="M7.48936 23.8298H8.17021V23.1489H7.48936V23.8298Z" fill="#BD1622"/>
<path d="M8.17021 24.5106H8.85106V23.8298H8.17021V24.5106Z" fill="#BD1622"/>
<path d="M8.85106 25.1915H9.53191V24.5106H8.85106V25.1915Z" fill="#BD1622"/>
<path d="M9.53191 25.8723H10.2128V25.1915H9.53191V25.8723Z" fill="#BD1622"/>
<path d="M10.2128 26.5532H10.8936V25.8723H10.2128V26.5532Z" fill="#BD1622"/>
<path d="M10.8936 27.234H11.5745V26.5532H10.8936V27.234Z" fill="#BD1622"/>
<path d="M11.5745 27.9149H12.2553V27.234H11.5745V27.9149Z" fill="#BD1622"/>
<path d="M12.2553 28.5957H12.9362V27.9149H12.2553V28.5957Z" fill="#BD1622"/>
<path d="M12.9362 29.2766H13.617V28.5957H12.9362V29.2766Z" fill="#BD1622"/>
<path d="M13.617 29.9574H14.2979V29.2766H13.617V29.9574Z" fill="#BD1622"/>
<path d="M14.2979 30.6383H14.9787V29.9574H14.2979V30.6383Z" fill="#BD1622"/>
<path d="M14.9787 31.3191H15.6596V30.6383H14.9787V31.3191Z" fill="#BD1622"/>
<path d="M15.6596 32H16.3404V31.3191H15.6596V32Z" fill="#BD1622"/>
<path d="M0 16.3404H0.680851V15.6596H0V16.3404Z" fill="#BD1622"/>
<path d="M14.2979 15.6596H14.9787V14.9787H14.2979V15.6596Z" fill="#BD1622"/>
<path d="M14.2979 14.9787H14.9787V14.2979H14.2979V14.9787Z" fill="#BD1622"/>
<path d="M13.617 14.9787H14.2979V14.2979H13.617V14.9787Z" fill="#BD1622"/>
<path d="M13.617 14.2979H14.2979V13.617H13.617V14.2979Z" fill="#BD1622"/>
<path d="M12.9362 14.2979H13.617V13.617H12.9362V14.2979Z" fill="#BD1622"/>
<path d="M12.9362 13.617H13.617V12.9362H12.9362V13.617Z" fill="#BD1622"/>
<path d="M12.2553 13.617H12.9362V12.9362H12.2553V13.617Z" fill="#BD1622"/>
<path d="M12.2553 12.9362H12.9362V12.2553H12.2553V12.9362Z" fill="#BD1622"/>
<path d="M12.9362 12.9362H13.617V12.2553H12.9362V12.9362Z" fill="#BD1622"/>
<path d="M13.617 13.617H14.2979V12.9362H13.617V13.617Z" fill="#BD1622"/>
<path d="M14.2979 14.2979H14.9787V13.617H14.2979V14.2979Z" fill="#BD1622"/>
<path d="M14.9787 14.9787H15.6596V14.2979H14.9787V14.9787Z" fill="#BD1622"/>
<path d="M11.5745 12.9362H12.2553V12.2553H11.5745V12.9362Z" fill="#BD1622"/>
<path d="M11.5745 12.2553H12.2553V11.5745H11.5745V12.2553Z" fill="#BD1622"/>
<path d="M12.2553 12.2553H12.9362V11.5745H12.2553V12.2553Z" fill="#BD1622"/>
<path d="M14.2979 16.3404H14.9787V17.0213H14.2979V16.3404Z" fill="#BD1622"/>
<path d="M14.2979 17.0213H14.9787V17.7021H14.2979V17.0213Z" fill="#BD1622"/>
<path d="M13.617 17.0213H14.2979V17.7021H13.617V17.0213Z" fill="#BD1622"/>
<path d="M13.617 17.7021H14.2979V18.383H13.617V17.7021Z" fill="#BD1622"/>
<path d="M12.9362 17.7021H13.617V18.383H12.9362V17.7021Z" fill="#BD1622"/>
<path d="M12.9362 18.383H13.617V19.0638H12.9362V18.383Z" fill="#BD1622"/>
<path d="M12.2553 18.383H12.9362V19.0638H12.2553V18.383Z" fill="#BD1622"/>
<path d="M12.2553 19.0638H12.9362V19.7447H12.2553V19.0638Z" fill="#BD1622"/>
<path d="M12.9362 19.0638H13.617V19.7447H12.9362V19.0638Z" fill="#BD1622"/>
<path d="M13.617 18.383H14.2979V19.0638H13.617V18.383Z" fill="#BD1622"/>
<path d="M14.2979 17.7021H14.9787V18.383H14.2979V17.7021Z" fill="#BD1622"/>
<path d="M14.9787 17.0213H15.6596V17.7021H14.9787V17.0213Z" fill="#BD1622"/>
<path d="M11.5745 19.0638H12.2553V19.7447H11.5745V19.0638Z" fill="#BD1622"/>
<path d="M11.5745 19.7447H12.2553V20.4255H11.5745V19.7447Z" fill="#BD1622"/>
<path d="M12.2553 19.7447H12.9362V20.4255H12.2553V19.7447Z" fill="#BD1622"/>
<path d="M17.7021 15.6596H17.0213V14.9787H17.7021V15.6596Z" fill="#BD1622"/>
<path d="M17.7021 14.9787H17.0213V14.2979H17.7021V14.9787Z" fill="#BD1622"/>
<path d="M18.383 14.9787H17.7021V14.2979H18.383V14.9787Z" fill="#BD1622"/>
<path d="M18.383 14.2979H17.7021V13.617H18.383V14.2979Z" fill="#BD1622"/>
<path d="M19.0638 14.2979H18.383V13.617H19.0638V14.2979Z" fill="#BD1622"/>
<path d="M19.0638 13.617H18.383V12.9362H19.0638V13.617Z" fill="#BD1622"/>
<path d="M19.7447 13.617H19.0638V12.9362H19.7447V13.617Z" fill="#BD1622"/>
<path d="M19.7447 12.9362H19.0638V12.2553H19.7447V12.9362Z" fill="#BD1622"/>
<path d="M19.0638 12.9362H18.383V12.2553H19.0638V12.9362Z" fill="#BD1622"/>
<path d="M18.383 13.617H17.7021V12.9362H18.383V13.617Z" fill="#BD1622"/>
<path d="M17.7021 14.2979H17.0213V13.617H17.7021V14.2979Z" fill="#BD1622"/>
<path d="M17.0213 14.9787H16.3404V14.2979H17.0213V14.9787Z" fill="#BD1622"/>
<path d="M20.4255 12.9362H19.7447V12.2553H20.4255V12.9362Z" fill="#BD1622"/>
<path d="M20.4255 12.2553H19.7447V11.5745H20.4255V12.2553Z" fill="#BD1622"/>
<path d="M19.7447 12.2553H19.0638V11.5745H19.7447V12.2553Z" fill="#BD1622"/>
<path d="M17.7021 16.3404H17.0213V17.0213H17.7021V16.3404Z" fill="#BD1622"/>
<path d="M17.7021 17.0213H17.0213V17.7021H17.7021V17.0213Z" fill="#BD1622"/>
<path d="M18.383 17.0213H17.7021V17.7021H18.383V17.0213Z" fill="#BD1622"/>
<path d="M18.383 17.7021H17.7021V18.383H18.383V17.7021Z" fill="#BD1622"/>
<path d="M19.0638 17.7021H18.383V18.383H19.0638V17.7021Z" fill="#BD1622"/>
<path d="M19.0638 18.383H18.383V19.0638H19.0638V18.383Z" fill="#BD1622"/>
<path d="M19.7447 18.383H19.0638V19.0638H19.7447V18.383Z" fill="#BD1622"/>
<path d="M19.7447 19.0638H19.0638V19.7447H19.7447V19.0638Z" fill="#BD1622"/>
<path d="M19.0638 19.0638H18.383V19.7447H19.0638V19.0638Z" fill="#BD1622"/>
<path d="M18.383 18.383H17.7021V19.0638H18.383V18.383Z" fill="#BD1622"/>
<path d="M17.7021 17.7021H17.0213V18.383H17.7021V17.7021Z" fill="#BD1622"/>
<path d="M17.0213 17.0213H16.3404V17.7021H17.0213V17.0213Z" fill="#BD1622"/>
<path d="M20.4255 19.0638H19.7447V19.7447H20.4255V19.0638Z" fill="#BD1622"/>
<path d="M20.4255 19.7447H19.7447V20.4255H20.4255V19.7447Z" fill="#BD1622"/>
<path d="M19.7447 19.7447H19.0638V20.4255H19.7447V19.7447Z" fill="#BD1622"/>
<path d="M14.9787 15.6596H15.6596V14.9787H14.9787V15.6596Z" fill="#BD1622"/>
<path d="M14.9787 17.0213H15.6596V16.3404H14.9787V17.0213Z" fill="#BD1622"/>
<path d="M16.3404 15.6596H17.0213V14.9787H16.3404V15.6596Z" fill="#BD1622"/>
<path d="M16.3404 17.0213H17.0213V16.3404H16.3404V17.0213Z" fill="#BD1622"/>
<path d="M8.17021 16.3404H14.9787V15.6596H8.17021V16.3404Z" fill="#BD1622"/>
<path d="M8.17021 10.8936H8.85106V11.5745H8.17021V10.8936Z" fill="#BD1622"/>
<path d="M7.48936 10.8936H8.17021V11.5745H7.48936V10.8936Z" fill="#BD1622"/>
<path d="M6.80851 10.8936H7.48936V11.5745H6.80851V10.8936Z" fill="#BD1622"/>
<path d="M6.12766 10.8936H6.80851V11.5745H6.12766V10.8936Z" fill="#BD1622"/>
<path d="M6.12766 11.5745H6.80851V12.2553H6.12766V11.5745Z" fill="#BD1622"/>
<path d="M5.44681 11.5745H6.12766V12.2553H5.44681V11.5745Z" fill="#BD1622"/>
<path d="M5.44681 12.2553H6.12766V12.9362H5.44681V12.2553Z" fill="#BD1622"/>
<path d="M5.44681 12.9362H6.12766V13.617H5.44681V12.9362Z" fill="#BD1622"/>
<path d="M5.44681 13.617H6.12766V14.2979H5.44681V13.617Z" fill="#BD1622"/>
<path d="M6.12766 13.617H6.80851V14.2979H6.12766V13.617Z" fill="#BD1622"/>
<path d="M6.12766 14.2979H6.80851V14.9787H6.12766V14.2979Z" fill="#BD1622"/>
<path d="M6.80851 14.2979H7.48936V14.9787H6.80851V14.2979Z" fill="#BD1622"/>
<path d="M6.80851 14.9787H7.48936V15.6596H6.80851V14.9787Z" fill="#BD1622"/>
<path d="M7.48936 14.9787H8.17021V15.6596H7.48936V14.9787Z" fill="#BD1622"/>
<path d="M8.17021 11.5745H8.85106V12.2553H8.17021V11.5745Z" fill="#BD1622"/>
<path d="M8.85106 11.5745H9.53191V12.2553H8.85106V11.5745Z" fill="#BD1622"/>
<path d="M8.85106 12.2553H9.53191V12.9362H8.85106V12.2553Z" fill="#BD1622"/>
<path d="M8.85106 12.9362H9.53191V13.617H8.85106V12.9362Z" fill="#BD1622"/>
<path d="M8.17021 12.9362H8.85106V13.617H8.17021V12.9362Z" fill="#BD1622"/>
<path d="M8.17021 21.1064H8.85106V20.4255H8.17021V21.1064Z" fill="#BD1622"/>
<path d="M7.48936 21.1064H8.17021V20.4255H7.48936V21.1064Z" fill="#BD1622"/>
<path d="M6.80851 21.1064H7.48936V20.4255H6.80851V21.1064Z" fill="#BD1622"/>
<path d="M6.12766 21.1064H6.80851V20.4255H6.12766V21.1064Z" fill="#BD1622"/>
<path d="M6.12766 20.4255H6.80851V19.7447H6.12766V20.4255Z" fill="#BD1622"/>
<path d="M5.44681 20.4255H6.12766V19.7447H5.44681V20.4255Z" fill="#BD1622"/>
<path d="M5.44681 19.7447H6.12766V19.0638H5.44681V19.7447Z" fill="#BD1622"/>
<path d="M5.44681 19.0638H6.12766V18.383H5.44681V19.0638Z" fill="#BD1622"/>
<path d="M5.44681 18.383H6.12766V17.7021H5.44681V18.383Z" fill="#BD1622"/>
<path d="M6.12766 18.383H6.80851V17.7021H6.12766V18.383Z" fill="#BD1622"/>
<path d="M6.12766 17.7021H6.80851V17.0213H6.12766V17.7021Z" fill="#BD1622"/>
<path d="M6.80851 17.7021H7.48936V17.0213H6.80851V17.7021Z" fill="#BD1622"/>
<path d="M6.80851 17.0213H7.48936V16.3404H6.80851V17.0213Z" fill="#BD1622"/>
<path d="M7.48936 17.0213H8.17021V16.3404H7.48936V17.0213Z" fill="#BD1622"/>
<path d="M8.17021 20.4255H8.85106V19.7447H8.17021V20.4255Z" fill="#BD1622"/>
<path d="M8.85106 20.4255H9.53191V19.7447H8.85106V20.4255Z" fill="#BD1622"/>
<path d="M8.85106 19.7447H9.53191V19.0638H8.85106V19.7447Z" fill="#BD1622"/>
<path d="M8.85106 19.0638H9.53191V18.383H8.85106V19.0638Z" fill="#BD1622"/>
<path d="M8.17021 19.0638H8.85106V18.383H8.17021V19.0638Z" fill="#BD1622"/>
<path d="M4.76596 14.9787H5.44681V15.6596H4.76596V14.9787Z" fill="#BD1622"/>
<path d="M4.76596 15.6596H5.44681V16.3404H4.76596V15.6596Z" fill="#BD1622"/>
<path d="M4.08511 15.6596H4.76596V16.3404H4.08511V15.6596Z" fill="#BD1622"/>
<path d="M5.44681 15.6596H6.12766V16.3404H5.44681V15.6596Z" fill="#BD1622"/>
<path d="M4.76596 16.3404H5.44681V17.0213H4.76596V16.3404Z" fill="#BD1622"/>
<path d="M4.76596 12.2553H5.44681V12.9362H4.76596V12.2553Z" fill="#BD1622"/>
<path d="M4.76596 12.9362H5.44681V13.617H4.76596V12.9362Z" fill="#BD1622"/>
<path d="M4.08511 12.9362H4.76596V13.617H4.08511V12.9362Z" fill="#BD1622"/>
<path d="M4.08511 19.0638H4.76596V18.383H4.08511V19.0638Z" fill="#BD1622"/>
<path d="M4.08511 13.617H4.76596V14.2979H4.08511V13.617Z" fill="#BD1622"/>
<path d="M4.08511 18.383H4.76596V17.7021H4.08511V18.383Z" fill="#BD1622"/>
<path d="M4.76596 19.0638H5.44681V18.383H4.76596V19.0638Z" fill="#BD1622"/>
<path d="M4.76596 19.7447H5.44681V19.0638H4.76596V19.7447Z" fill="#BD1622"/>
<path d="M3.40426 13.617H4.08511V14.2979H3.40426V13.617Z" fill="#BD1622"/>
<path d="M3.40426 18.383H4.08511V17.7021H3.40426V18.383Z" fill="#BD1622"/>
<path d="M3.40426 14.2979H4.08511V14.9787H3.40426V14.2979Z" fill="#BD1622"/>
<path d="M3.40426 17.7021H4.08511V17.0213H3.40426V17.7021Z" fill="#BD1622"/>
<path d="M1.3617 16.3404H2.04255V15.6596H1.3617V16.3404Z" fill="#BD1622"/>
<path d="M2.7234 14.2979H3.40426V14.9787H2.7234V14.2979Z" fill="#BD1622"/>
<path d="M2.7234 17.7021H3.40426V17.0213H2.7234V17.7021Z" fill="#BD1622"/>
<path d="M2.04255 16.3404H2.7234V15.6596H2.04255V16.3404Z" fill="#BD1622"/>
<path d="M2.7234 14.9787H3.40426V15.6596H2.7234V14.9787Z" fill="#BD1622"/>
<path d="M2.7234 17.0213H3.40426V16.3404H2.7234V17.0213Z" fill="#BD1622"/>
<path d="M2.04255 14.9787H2.7234V15.6596H2.04255V14.9787Z" fill="#BD1622"/>
<path d="M2.04255 17.0213H2.7234V16.3404H2.04255V17.0213Z" fill="#BD1622"/>
<path d="M23.8298 16.3404H17.0213V15.6596H23.8298V16.3404Z" fill="#BD1622"/>
<path d="M23.8298 10.8936H23.1489V11.5745H23.8298V10.8936Z" fill="#BD1622"/>
<path d="M24.5106 10.8936H23.8298V11.5745H24.5106V10.8936Z" fill="#BD1622"/>
<path d="M25.1915 10.8936H24.5106V11.5745H25.1915V10.8936Z" fill="#BD1622"/>
<path d="M25.8723 10.8936H25.1915V11.5745H25.8723V10.8936Z" fill="#BD1622"/>
<path d="M25.8723 11.5745H25.1915V12.2553H25.8723V11.5745Z" fill="#BD1622"/>
<path d="M26.5532 11.5745H25.8723V12.2553H26.5532V11.5745Z" fill="#BD1622"/>
<path d="M26.5532 12.2553H25.8723V12.9362H26.5532V12.2553Z" fill="#BD1622"/>
<path d="M26.5532 12.9362H25.8723V13.617H26.5532V12.9362Z" fill="#BD1622"/>
<path d="M26.5532 13.617H25.8723V14.2979H26.5532V13.617Z" fill="#BD1622"/>
<path d="M25.8723 13.617H25.1915V14.2979H25.8723V13.617Z" fill="#BD1622"/>
<path d="M25.8723 14.2979H25.1915V14.9787H25.8723V14.2979Z" fill="#BD1622"/>
<path d="M25.1915 14.2979H24.5106V14.9787H25.1915V14.2979Z" fill="#BD1622"/>
<path d="M25.1915 14.9787H24.5106V15.6596H25.1915V14.9787Z" fill="#BD1622"/>
<path d="M24.5106 14.9787H23.8298V15.6596H24.5106V14.9787Z" fill="#BD1622"/>
<path d="M23.8298 11.5745H23.1489V12.2553H23.8298V11.5745Z" fill="#BD1622"/>
<path d="M23.1489 11.5745H22.4681V12.2553H23.1489V11.5745Z" fill="#BD1622"/>
<path d="M23.1489 12.2553H22.4681V12.9362H23.1489V12.2553Z" fill="#BD1622"/>
<path d="M23.1489 12.9362H22.4681V13.617H23.1489V12.9362Z" fill="#BD1622"/>
<path d="M23.8298 12.9362H23.1489V13.617H23.8298V12.9362Z" fill="#BD1622"/>
<path d="M23.8298 21.1064H23.1489V20.4255H23.8298V21.1064Z" fill="#BD1622"/>
<path d="M24.5106 21.1064H23.8298V20.4255H24.5106V21.1064Z" fill="#BD1622"/>
<path d="M25.1915 21.1064H24.5106V20.4255H25.1915V21.1064Z" fill="#BD1622"/>
<path d="M25.8723 21.1064H25.1915V20.4255H25.8723V21.1064Z" fill="#BD1622"/>
<path d="M25.8723 20.4255H25.1915V19.7447H25.8723V20.4255Z" fill="#BD1622"/>
<path d="M26.5532 20.4255H25.8723V19.7447H26.5532V20.4255Z" fill="#BD1622"/>
<path d="M26.5532 19.7447H25.8723V19.0638H26.5532V19.7447Z" fill="#BD1622"/>
<path d="M26.5532 19.0638H25.8723V18.383H26.5532V19.0638Z" fill="#BD1622"/>
<path d="M26.5532 18.383H25.8723V17.7021H26.5532V18.383Z" fill="#BD1622"/>
<path d="M25.8723 18.383H25.1915V17.7021H25.8723V18.383Z" fill="#BD1622"/>
<path d="M25.8723 17.7021H25.1915V17.0213H25.8723V17.7021Z" fill="#BD1622"/>
<path d="M25.1915 17.7021H24.5106V17.0213H25.1915V17.7021Z" fill="#BD1622"/>
<path d="M25.1915 17.0213H24.5106V16.3404H25.1915V17.0213Z" fill="#BD1622"/>
<path d="M24.5106 17.0213H23.8298V16.3404H24.5106V17.0213Z" fill="#BD1622"/>
<path d="M23.8298 20.4255H23.1489V19.7447H23.8298V20.4255Z" fill="#BD1622"/>
<path d="M23.1489 20.4255H22.4681V19.7447H23.1489V20.4255Z" fill="#BD1622"/>
<path d="M23.1489 19.7447H22.4681V19.0638H23.1489V19.7447Z" fill="#BD1622"/>
<path d="M23.1489 19.0638H22.4681V18.383H23.1489V19.0638Z" fill="#BD1622"/>
<path d="M23.8298 19.0638H23.1489V18.383H23.8298V19.0638Z" fill="#BD1622"/>
<path d="M27.234 14.9787H26.5532V15.6596H27.234V14.9787Z" fill="#BD1622"/>
<path d="M27.234 15.6596H26.5532V16.3404H27.234V15.6596Z" fill="#BD1622"/>
<path d="M27.9149 15.6596H27.234V16.3404H27.9149V15.6596Z" fill="#BD1622"/>
<path d="M26.5532 15.6596H25.8723V16.3404H26.5532V15.6596Z" fill="#BD1622"/>
<path d="M27.234 16.3404H26.5532V17.0213H27.234V16.3404Z" fill="#BD1622"/>
<path d="M27.234 12.2553H26.5532V12.9362H27.234V12.2553Z" fill="#BD1622"/>
<path d="M27.234 12.9362H26.5532V13.617H27.234V12.9362Z" fill="#BD1622"/>
<path d="M27.9149 12.9362H27.234V13.617H27.9149V12.9362Z" fill="#BD1622"/>
<path d="M27.9149 19.0638H27.234V18.383H27.9149V19.0638Z" fill="#BD1622"/>
<path d="M27.9149 13.617H27.234V14.2979H27.9149V13.617Z" fill="#BD1622"/>
<path d="M27.9149 18.383H27.234V17.7021H27.9149V18.383Z" fill="#BD1622"/>
<path d="M27.234 19.0638H26.5532V18.383H27.234V19.0638Z" fill="#BD1622"/>
<path d="M27.234 19.7447H26.5532V19.0638H27.234V19.7447Z" fill="#BD1622"/>
<path d="M28.5957 13.617H27.9149V14.2979H28.5957V13.617Z" fill="#BD1622"/>
<path d="M28.5957 18.383H27.9149V17.7021H28.5957V18.383Z" fill="#BD1622"/>
<path d="M28.5957 14.2979H27.9149V14.9787H28.5957V14.2979Z" fill="#BD1622"/>
<path d="M28.5957 17.7021H27.9149V17.0213H28.5957V17.7021Z" fill="#BD1622"/>
<path d="M30.6383 16.3404H29.9574V15.6596H30.6383V16.3404Z" fill="#BD1622"/>
<path d="M29.2766 14.2979H28.5957V14.9787H29.2766V14.2979Z" fill="#BD1622"/>
<path d="M29.2766 17.7021H28.5957V17.0213H29.2766V17.7021Z" fill="#BD1622"/>
<path d="M29.9574 16.3404H29.2766V15.6596H29.9574V16.3404Z" fill="#BD1622"/>
<path d="M29.2766 14.9787H28.5957V15.6596H29.2766V14.9787Z" fill="#BD1622"/>
<path d="M29.2766 17.0213H28.5957V16.3404H29.2766V17.0213Z" fill="#BD1622"/>
<path d="M29.9574 14.9787H29.2766V15.6596H29.9574V14.9787Z" fill="#BD1622"/>
<path d="M29.9574 17.0213H29.2766V16.3404H29.9574V17.0213Z" fill="#BD1622"/>
<path d="M16.3404 8.17021V14.9787H15.6596V8.17021H16.3404Z" fill="#BD1622"/>
<path d="M10.8936 8.17021V8.85106H11.5745V8.17021H10.8936Z" fill="#BD1622"/>
<path d="M10.8936 7.48936V8.17021H11.5745V7.48936H10.8936Z" fill="#BD1622"/>
<path d="M10.8936 6.80851V7.48936H11.5745V6.80851H10.8936Z" fill="#BD1622"/>
<path d="M10.8936 6.12766V6.80851H11.5745V6.12766H10.8936Z" fill="#BD1622"/>
<path d="M11.5745 6.12766V6.80851H12.2553V6.12766H11.5745Z" fill="#BD1622"/>
<path d="M11.5745 5.44681V6.12766H12.2553V5.44681H11.5745Z" fill="#BD1622"/>
<path d="M12.2553 5.44681V6.12766H12.9362V5.44681H12.2553Z" fill="#BD1622"/>
<path d="M12.9362 5.44681V6.12766H13.617V5.44681H12.9362Z" fill="#BD1622"/>
<path d="M13.617 5.44681V6.12766H14.2979V5.44681H13.617Z" fill="#BD1622"/>
<path d="M13.617 6.12766V6.80851H14.2979V6.12766H13.617Z" fill="#BD1622"/>
<path d="M14.2979 6.12766V6.80851H14.9787V6.12766H14.2979Z" fill="#BD1622"/>
<path d="M14.2979 6.80851V7.48936H14.9787V6.80851H14.2979Z" fill="#BD1622"/>
<path d="M14.9787 6.80851V7.48936H15.6596V6.80851H14.9787Z" fill="#BD1622"/>
<path d="M14.9787 7.48936V8.17021H15.6596V7.48936H14.9787Z" fill="#BD1622"/>
<path d="M11.5745 8.17021V8.85106H12.2553V8.17021H11.5745Z" fill="#BD1622"/>
<path d="M11.5745 8.85106V9.53191H12.2553V8.85106H11.5745Z" fill="#BD1622"/>
<path d="M12.2553 8.85106V9.53191H12.9362V8.85106H12.2553Z" fill="#BD1622"/>
<path d="M12.9362 8.85106V9.53191H13.617V8.85106H12.9362Z" fill="#BD1622"/>
<path d="M12.9362 8.17021V8.85106H13.617V8.17021H12.9362Z" fill="#BD1622"/>
<path d="M21.1064 8.17021V8.85106H20.4255V8.17021H21.1064Z" fill="#BD1622"/>
<path d="M21.1064 7.48936V8.17021H20.4255V7.48936H21.1064Z" fill="#BD1622"/>
<path d="M21.1064 6.80851V7.48936H20.4255V6.80851H21.1064Z" fill="#BD1622"/>
<path d="M21.1064 6.12766V6.80851H20.4255V6.12766L21.1064 6.12766Z" fill="#BD1622"/>
<path d="M20.4255 6.12766V6.80851H19.7447V6.12766H20.4255Z" fill="#BD1622"/>
<path d="M20.4255 5.44681V6.12766H19.7447V5.44681L20.4255 5.44681Z" fill="#BD1622"/>
<path d="M19.7447 5.44681V6.12766H19.0638V5.44681H19.7447Z" fill="#BD1622"/>
<path d="M19.0638 5.44681V6.12766H18.383V5.44681H19.0638Z" fill="#BD1622"/>
<path d="M18.383 5.44681V6.12766L17.7021 6.12766V5.44681L18.383 5.44681Z" fill="#BD1622"/>
<path d="M18.383 6.12766V6.80851L17.7021 6.80851V6.12766L18.383 6.12766Z" fill="#BD1622"/>
<path d="M17.7021 6.12766V6.80851H17.0213V6.12766H17.7021Z" fill="#BD1622"/>
<path d="M17.7021 6.80851V7.48936H17.0213V6.80851H17.7021Z" fill="#BD1622"/>
<path d="M17.0213 6.80851V7.48936H16.3404V6.80851H17.0213Z" fill="#BD1622"/>
<path d="M17.0213 7.48936V8.17021H16.3404V7.48936H17.0213Z" fill="#BD1622"/>
<path d="M20.4255 8.17021V8.85106H19.7447V8.17021H20.4255Z" fill="#BD1622"/>
<path d="M20.4255 8.85106V9.53192H19.7447V8.85106H20.4255Z" fill="#BD1622"/>
<path d="M19.7447 8.85106V9.53192H19.0638V8.85106H19.7447Z" fill="#BD1622"/>
<path d="M19.0638 8.85106V9.53192H18.383V8.85106H19.0638Z" fill="#BD1622"/>
<path d="M19.0638 8.17021V8.85106H18.383V8.17021H19.0638Z" fill="#BD1622"/>
<path d="M14.9787 4.76596V5.44681H15.6596V4.76596H14.9787Z" fill="#BD1622"/>
<path d="M15.6596 4.76596V5.44681H16.3404V4.76596H15.6596Z" fill="#BD1622"/>
<path d="M15.6596 4.08511V4.76596H16.3404V4.08511H15.6596Z" fill="#BD1622"/>
<path d="M15.6596 5.44681V6.12766H16.3404V5.44681H15.6596Z" fill="#BD1622"/>
<path d="M16.3404 4.76596V5.44681H17.0213V4.76596H16.3404Z" fill="#BD1622"/>
<path d="M12.2553 4.76596V5.44681H12.9362V4.76596H12.2553Z" fill="#BD1622"/>
<path d="M12.9362 4.76596V5.44681H13.617V4.76596H12.9362Z" fill="#BD1622"/>
<path d="M12.9362 4.08511V4.76596H13.617V4.08511H12.9362Z" fill="#BD1622"/>
<path d="M19.0638 4.08511V4.76596H18.383V4.08511H19.0638Z" fill="#BD1622"/>
<path d="M13.617 4.08511V4.76596H14.2979V4.08511H13.617Z" fill="#BD1622"/>
<path d="M18.383 4.08511V4.76596H17.7021V4.08511H18.383Z" fill="#BD1622"/>
<path d="M19.0638 4.76596V5.44681H18.383V4.76596H19.0638Z" fill="#BD1622"/>
<path d="M19.7447 4.76596V5.44681H19.0638V4.76596L19.7447 4.76596Z" fill="#BD1622"/>
<path d="M13.617 3.40426V4.08511H14.2979V3.40426H13.617Z" fill="#BD1622"/>
<path d="M18.383 3.40426V4.08511H17.7021V3.40426L18.383 3.40426Z" fill="#BD1622"/>
<path d="M14.2979 3.40426V4.08511H14.9787V3.40426L14.2979 3.40426Z" fill="#BD1622"/>
<path d="M17.7021 3.40426V4.08511H17.0213V3.40426H17.7021Z" fill="#BD1622"/>
<path d="M16.3404 1.3617V2.04255L15.6596 2.04255V1.3617H16.3404Z" fill="#BD1622"/>
<path d="M14.2979 2.7234V3.40426L14.9787 3.40426V2.7234L14.2979 2.7234Z" fill="#BD1622"/>
<path d="M17.7021 2.7234V3.40426H17.0213V2.7234L17.7021 2.7234Z" fill="#BD1622"/>
<path d="M16.3404 2.04255V2.7234H15.6596V2.04255L16.3404 2.04255Z" fill="#BD1622"/>
<path d="M14.9787 2.7234V3.40426H15.6596V2.7234H14.9787Z" fill="#BD1622"/>
<path d="M17.0213 2.7234V3.40426H16.3404V2.7234H17.0213Z" fill="#BD1622"/>
<path d="M14.9787 2.04255V2.7234H15.6596V2.04255H14.9787Z" fill="#BD1622"/>
<path d="M17.0213 2.04255V2.7234H16.3404V2.04255L17.0213 2.04255Z" fill="#BD1622"/>
<path d="M16.3404 23.8298V17.0213H15.6596V23.8298H16.3404Z" fill="#BD1622"/>
<path d="M10.8936 23.8298V23.1489H11.5745V23.8298H10.8936Z" fill="#BD1622"/>
<path d="M10.8936 24.5106V23.8298H11.5745V24.5106H10.8936Z" fill="#BD1622"/>
<path d="M10.8936 25.1915V24.5106H11.5745V25.1915H10.8936Z" fill="#BD1622"/>
<path d="M10.8936 25.8723V25.1915H11.5745V25.8723H10.8936Z" fill="#BD1622"/>
<path d="M11.5745 25.8723V25.1915H12.2553V25.8723H11.5745Z" fill="#BD1622"/>
<path d="M11.5745 26.5532V25.8723H12.2553V26.5532H11.5745Z" fill="#BD1622"/>
<path d="M12.2553 26.5532V25.8723H12.9362V26.5532H12.2553Z" fill="#BD1622"/>
<path d="M12.9362 26.5532V25.8723H13.617V26.5532H12.9362Z" fill="#BD1622"/>
<path d="M13.617 26.5532V25.8723H14.2979V26.5532H13.617Z" fill="#BD1622"/>
<path d="M13.617 25.8723V25.1915H14.2979V25.8723H13.617Z" fill="#BD1622"/>
<path d="M14.2979 25.8723V25.1915H14.9787V25.8723H14.2979Z" fill="#BD1622"/>
<path d="M14.2979 25.1915V24.5106H14.9787V25.1915H14.2979Z" fill="#BD1622"/>
<path d="M14.9787 25.1915V24.5106H15.6596V25.1915H14.9787Z" fill="#BD1622"/>
<path d="M14.9787 24.5106V23.8298H15.6596V24.5106H14.9787Z" fill="#BD1622"/>
<path d="M11.5745 23.8298V23.1489H12.2553V23.8298H11.5745Z" fill="#BD1622"/>
<path d="M11.5745 23.1489V22.4681H12.2553V23.1489H11.5745Z" fill="#BD1622"/>
<path d="M12.2553 23.1489V22.4681H12.9362V23.1489H12.2553Z" fill="#BD1622"/>
<path d="M12.9362 23.1489V22.4681H13.617V23.1489H12.9362Z" fill="#BD1622"/>
<path d="M12.9362 23.8298V23.1489H13.617V23.8298H12.9362Z" fill="#BD1622"/>
<path d="M21.1064 23.8298V23.1489H20.4255V23.8298H21.1064Z" fill="#BD1622"/>
<path d="M21.1064 24.5106V23.8298H20.4255V24.5106H21.1064Z" fill="#BD1622"/>
<path d="M21.1064 25.1915V24.5106H20.4255V25.1915H21.1064Z" fill="#BD1622"/>
<path d="M21.1064 25.8723V25.1915H20.4255V25.8723H21.1064Z" fill="#BD1622"/>
<path d="M20.4255 25.8723V25.1915H19.7447V25.8723H20.4255Z" fill="#BD1622"/>
<path d="M20.4255 26.5532V25.8723H19.7447V26.5532H20.4255Z" fill="#BD1622"/>
<path d="M19.7447 26.5532V25.8723H19.0638V26.5532H19.7447Z" fill="#BD1622"/>
<path d="M19.0638 26.5532V25.8723H18.383V26.5532H19.0638Z" fill="#BD1622"/>
<path d="M18.383 26.5532V25.8723H17.7021V26.5532H18.383Z" fill="#BD1622"/>
<path d="M18.383 25.8723V25.1915H17.7021V25.8723H18.383Z" fill="#BD1622"/>
<path d="M17.7021 25.8723V25.1915H17.0213V25.8723H17.7021Z" fill="#BD1622"/>
<path d="M17.7021 25.1915V24.5106H17.0213V25.1915H17.7021Z" fill="#BD1622"/>
<path d="M17.0213 25.1915V24.5106H16.3404V25.1915H17.0213Z" fill="#BD1622"/>
<path d="M17.0213 24.5106V23.8298H16.3404V24.5106H17.0213Z" fill="#BD1622"/>
<path d="M20.4255 23.8298V23.1489H19.7447V23.8298H20.4255Z" fill="#BD1622"/>
<path d="M20.4255 23.1489V22.4681H19.7447V23.1489H20.4255Z" fill="#BD1622"/>
<path d="M19.7447 23.1489V22.4681H19.0638V23.1489H19.7447Z" fill="#BD1622"/>
<path d="M19.0638 23.1489V22.4681H18.383V23.1489H19.0638Z" fill="#BD1622"/>
<path d="M19.0638 23.8298V23.1489H18.383V23.8298H19.0638Z" fill="#BD1622"/>
<path d="M14.9787 27.234V26.5532H15.6596V27.234H14.9787Z" fill="#BD1622"/>
<path d="M15.6596 27.234V26.5532H16.3404V27.234H15.6596Z" fill="#BD1622"/>
<path d="M15.6596 27.9149V27.234H16.3404V27.9149H15.6596Z" fill="#BD1622"/>
<path d="M15.6596 26.5532V25.8723H16.3404V26.5532H15.6596Z" fill="#BD1622"/>
<path d="M16.3404 27.234V26.5532H17.0213V27.234H16.3404Z" fill="#BD1622"/>
<path d="M12.2553 27.234V26.5532H12.9362V27.234H12.2553Z" fill="#BD1622"/>
<path d="M12.9362 27.234V26.5532H13.617V27.234H12.9362Z" fill="#BD1622"/>
<path d="M12.9362 27.9149V27.234H13.617V27.9149H12.9362Z" fill="#BD1622"/>
<path d="M19.0638 27.9149V27.234H18.383V27.9149H19.0638Z" fill="#BD1622"/>
<path d="M13.617 27.9149V27.234H14.2979V27.9149H13.617Z" fill="#BD1622"/>
<path d="M18.383 27.9149V27.234H17.7021V27.9149H18.383Z" fill="#BD1622"/>
<path d="M19.0638 27.234V26.5532H18.383V27.234H19.0638Z" fill="#BD1622"/>
<path d="M19.7447 27.234V26.5532H19.0638V27.234H19.7447Z" fill="#BD1622"/>
<path d="M13.617 28.5957V27.9149H14.2979V28.5957H13.617Z" fill="#BD1622"/>
<path d="M18.383 28.5957V27.9149H17.7021V28.5957H18.383Z" fill="#BD1622"/>
<path d="M14.2979 28.5957V27.9149H14.9787V28.5957H14.2979Z" fill="#BD1622"/>
<path d="M17.7021 28.5957V27.9149H17.0213V28.5957H17.7021Z" fill="#BD1622"/>
<path d="M16.3404 30.6383V29.9574H15.6596V30.6383H16.3404Z" fill="#BD1622"/>
<path d="M14.2979 29.2766V28.5957H14.9787V29.2766H14.2979Z" fill="#BD1622"/>
<path d="M17.7021 29.2766V28.5957H17.0213V29.2766H17.7021Z" fill="#BD1622"/>
<path d="M16.3404 29.9574V29.2766H15.6596V29.9574H16.3404Z" fill="#BD1622"/>
<path d="M14.9787 29.2766V28.5957H15.6596V29.2766H14.9787Z" fill="#BD1622"/>
<path d="M17.0213 29.2766V28.5957H16.3404V29.2766H17.0213Z" fill="#BD1622"/>
<path d="M14.9787 29.9574V29.2766H15.6596V29.9574H14.9787Z" fill="#BD1622"/>
<path d="M17.0213 29.9574V29.2766H16.3404V29.9574H17.0213Z" fill="#BD1622"/>
</svg>
