<svg width="24" height="24" viewBox="0 0 24 24" fill="none" xmlns="http://www.w3.org/2000/svg">
<path d="M5.61702 11.7447H6.12766V12.2553H5.61702V11.7447Z" fill="#BD1622"/>
<path d="M23.4894 11.7447H22.9787V11.234H23.4894V11.7447Z" fill="#BD1622"/>
<path d="M22.9787 11.234H22.4681V10.7234H22.9787V11.234Z" fill="#BD1622"/>
<path d="M22.4681 10.7234H21.9574V10.2128H22.4681V10.7234Z" fill="#BD1622"/>
<path d="M21.9574 10.2128H21.4468V9.70213H21.9574V10.2128Z" fill="#BD1622"/>
<path d="M21.4468 9.70213H20.9362V9.19149H21.4468V9.70213Z" fill="#BD1622"/>
<path d="M20.9362 9.19149H20.4255V8.68085H20.9362V9.19149Z" fill="#BD1622"/>
<path d="M20.4255 8.68085H19.9149V8.17021H20.4255V8.68085Z" fill="#BD1622"/>
<path d="M19.9149 8.17021H19.4043V7.65957H19.9149V8.17021Z" fill="#BD1622"/>
<path d="M19.4043 7.65957H18.8936V7.14894H19.4043V7.65957Z" fill="#BD1622"/>
<path d="M18.8936 7.14894H18.383V6.6383H18.8936V7.14894Z" fill="#BD1622"/>
<path d="M18.383 6.6383H17.8723V6.12766H18.383V6.6383Z" fill="#BD1622"/>
<path d="M17.8723 6.12766H17.3617V5.61702H17.8723V6.12766Z" fill="#BD1622"/>
<path d="M17.3617 5.61702H16.8511V5.10638H17.3617V5.61702Z" fill="#BD1622"/>
<path d="M16.8511 5.10638H16.3404V4.59574H16.8511V5.10638Z" fill="#BD1622"/>
<path d="M16.3404 4.59574H15.8298V4.08511H16.3404V4.59574Z" fill="#BD1622"/>
<path d="M15.8298 4.08511H15.3191V3.57447H15.8298V4.08511Z" fill="#BD1622"/>
<path d="M15.3191 3.57447H14.8085V3.06383H15.3191V3.57447Z" fill="#BD1622"/>
<path d="M14.8085 3.06383H14.2979V2.55319H14.8085V3.06383Z" fill="#BD1622"/>
<path d="M14.2979 2.55319H13.7872V2.04255H14.2979V2.55319Z" fill="#BD1622"/>
<path d="M13.7872 2.04255H13.2766V1.53191H13.7872V2.04255Z" fill="#BD1622"/>
<path d="M13.2766 1.53191H12.766V1.02128H13.2766V1.53191Z" fill="#BD1622"/>
<path d="M12.766 1.02128H12.2553V0.510638H12.766V1.02128Z" fill="#BD1622"/>
<path d="M12.2553 0.510638H11.7447V0H12.2553V0.510638Z" fill="#BD1622"/>
<path d="M23.4894 12.766H22.9787V12.2553H23.4894V12.766Z" fill="#BD1622"/>
<path d="M22.9787 13.2766H22.4681V12.766H22.9787V13.2766Z" fill="#BD1622"/>
<path d="M22.4681 13.7872H21.9574V13.2766H22.4681V13.7872Z" fill="#BD1622"/>
<path d="M21.9574 14.2979H21.4468V13.7872H21.9574V14.2979Z" fill="#BD1622"/>
<path d="M21.4468 14.8085H20.9362V14.2979H21.4468V14.8085Z" fill="#BD1622"/>
<path d="M20.9362 15.3191H20.4255V14.8085H20.9362V15.3191Z" fill="#BD1622"/>
<path d="M20.4255 15.8298H19.9149V15.3191H20.4255V15.8298Z" fill="#BD1622"/>
<path d="M19.9149 16.3404H19.4043V15.8298H19.9149V16.3404Z" fill="#BD1622"/>
<path d="M19.4043 16.8511H18.8936V16.3404H19.4043V16.8511Z" fill="#BD1622"/>
<path d="M18.8936 17.3617H18.383V16.8511H18.8936V17.3617Z" fill="#BD1622"/>
<path d="M18.383 17.8723H17.8723V17.3617H18.383V17.8723Z" fill="#BD1622"/>
<path d="M17.8723 18.383H17.3617V17.8723H17.8723V18.383Z" fill="#BD1622"/>
<path d="M17.3617 18.8936H16.8511V18.383H17.3617V18.8936Z" fill="#BD1622"/>
<path d="M16.8511 19.4043H16.3404V18.8936H16.8511V19.4043Z" fill="#BD1622"/>
<path d="M16.3404 19.9149H15.8298V19.4043H16.3404V19.9149Z" fill="#BD1622"/>
<path d="M15.8298 20.4255H15.3191V19.9149H15.8298V20.4255Z" fill="#BD1622"/>
<path d="M15.3191 20.9362H14.8085V20.4255H15.3191V20.9362Z" fill="#BD1622"/>
<path d="M14.8085 21.4468H14.2979V20.9362H14.8085V21.4468Z" fill="#BD1622"/>
<path d="M14.2979 21.9574H13.7872V21.4468H14.2979V21.9574Z" fill="#BD1622"/>
<path d="M13.7872 22.4681H13.2766V21.9574H13.7872V22.4681Z" fill="#BD1622"/>
<path d="M13.2766 22.9787H12.766V22.4681H13.2766V22.9787Z" fill="#BD1622"/>
<path d="M12.766 23.4894H12.2553V22.9787H12.766V23.4894Z" fill="#BD1622"/>
<path d="M12.2553 24H11.7447V23.4894H12.2553V24Z" fill="#BD1622"/>
<path d="M24 12.2553H23.4894V11.7447H24V12.2553Z" fill="#BD1622"/>
<path d="M0.510638 11.7447H1.02128V11.234H0.510638V11.7447Z" fill="#BD1622"/>
<path d="M1.02128 11.234H1.53191V10.7234H1.02128V11.234Z" fill="#BD1622"/>
<path d="M1.53191 10.7234H2.04255V10.2128H1.53191V10.7234Z" fill="#BD1622"/>
<path d="M2.04255 10.2128H2.55319V9.70213H2.04255V10.2128Z" fill="#BD1622"/>
<path d="M2.55319 9.70213H3.06383V9.19149H2.55319V9.70213Z" fill="#BD1622"/>
<path d="M3.06383 9.19149H3.57447V8.68085H3.06383V9.19149Z" fill="#BD1622"/>
<path d="M3.57447 8.68085H4.08511V8.17021H3.57447V8.68085Z" fill="#BD1622"/>
<path d="M4.08511 8.17021H4.59574V7.65957H4.08511V8.17021Z" fill="#BD1622"/>
<path d="M4.59574 7.65957H5.10638V7.14894H4.59574V7.65957Z" fill="#BD1622"/>
<path d="M5.10638 7.14894H5.61702V6.6383H5.10638V7.14894Z" fill="#BD1622"/>
<path d="M5.61702 6.6383H6.12766V6.12766H5.61702V6.6383Z" fill="#BD1622"/>
<path d="M6.12766 6.12766H6.6383V5.61702H6.12766V6.12766Z" fill="#BD1622"/>
<path d="M6.6383 5.61702H7.14894V5.10638H6.6383V5.61702Z" fill="#BD1622"/>
<path d="M7.14894 5.10638H7.65957V4.59574H7.14894V5.10638Z" fill="#BD1622"/>
<path d="M7.65957 4.59574H8.17021V4.08511H7.65957V4.59574Z" fill="#BD1622"/>
<path d="M8.17021 4.08511H8.68085V3.57447H8.17021V4.08511Z" fill="#BD1622"/>
<path d="M8.68085 3.57447H9.19149V3.06383H8.68085V3.57447Z" fill="#BD1622"/>
<path d="M9.19149 3.06383H9.70213V2.55319H9.19149V3.06383Z" fill="#BD1622"/>
<path d="M9.70213 2.55319H10.2128V2.04255H9.70213V2.55319Z" fill="#BD1622"/>
<path d="M10.2128 2.04255H10.7234V1.53191H10.2128V2.04255Z" fill="#BD1622"/>
<path d="M10.7234 1.53191H11.234V1.02128H10.7234V1.53191Z" fill="#BD1622"/>
<path d="M11.234 1.02128H11.7447V0.510638H11.234V1.02128Z" fill="#BD1622"/>
<path d="M11.7447 0.510638H12.2553V0H11.7447V0.510638Z" fill="#BD1622"/>
<path d="M0.510638 12.766H1.02128V12.2553H0.510638V12.766Z" fill="#BD1622"/>
<path d="M1.02128 13.2766H1.53191V12.766H1.02128V13.2766Z" fill="#BD1622"/>
<path d="M1.53191 13.7872H2.04255V13.2766H1.53191V13.7872Z" fill="#BD1622"/>
<path d="M2.04255 14.2979H2.55319V13.7872H2.04255V14.2979Z" fill="#BD1622"/>
<path d="M2.55319 14.8085H3.06383V14.2979H2.55319V14.8085Z" fill="#BD1622"/>
<path d="M3.06383 15.3191H3.57447V14.8085H3.06383V15.3191Z" fill="#BD1622"/>
<path d="M3.57447 15.8298H4.08511V15.3191H3.57447V15.8298Z" fill="#BD1622"/>
<path d="M4.08511 16.3404H4.59574V15.8298H4.08511V16.3404Z" fill="#BD1622"/>
<path d="M4.59574 16.8511H5.10638V16.3404H4.59574V16.8511Z" fill="#BD1622"/>
<path d="M5.10638 17.3617H5.61702V16.8511H5.10638V17.3617Z" fill="#BD1622"/>
<path d="M5.61702 17.8723H6.12766V17.3617H5.61702V17.8723Z" fill="#BD1622"/>
<path d="M6.12766 18.383H6.6383V17.8723H6.12766V18.383Z" fill="#BD1622"/>
<path d="M6.6383 18.8936H7.14894V18.383H6.6383V18.8936Z" fill="#BD1622"/>
<path d="M7.14894 19.4043H7.65957V18.8936H7.14894V19.4043Z" fill="#BD1622"/>
<path d="M7.65957 19.9149H8.17021V19.4043H7.65957V19.9149Z" fill="#BD1622"/>
<path d="M8.17021 20.4255H8.68085V19.9149H8.17021V20.4255Z" fill="#BD1622"/>
<path d="M8.68085 20.9362H9.19149V20.4255H8.68085V20.9362Z" fill="#BD1622"/>
<path d="M9.19149 21.4468H9.70213V20.9362H9.19149V21.4468Z" fill="#BD1622"/>
<path d="M9.70213 21.9574H10.2128V21.4468H9.70213V21.9574Z" fill="#BD1622"/>
<path d="M10.2128 22.4681H10.7234V21.9574H10.2128V22.4681Z" fill="#BD1622"/>
<path d="M10.7234 22.9787H11.234V22.4681H10.7234V22.9787Z" fill="#BD1622"/>
<path d="M11.234 23.4894H11.7447V22.9787H11.234V23.4894Z" fill="#BD1622"/>
<path d="M11.7447 24H12.2553V23.4894H11.7447V24Z" fill="#BD1622"/>
<path d="M0 12.2553H0.510638V11.7447H0V12.2553Z" fill="#BD1622"/>
<path d="M10.7234 11.7447H11.234V11.234H10.7234V11.7447Z" fill="#BD1622"/>
<path d="M10.7234 11.234H11.234V10.7234H10.7234V11.234Z" fill="#BD1622"/>
<path d="M10.2128 11.234H10.7234V10.7234H10.2128V11.234Z" fill="#BD1622"/>
<path d="M10.2128 10.7234H10.7234V10.2128H10.2128V10.7234Z" fill="#BD1622"/>
<path d="M9.70213 10.7234H10.2128V10.2128H9.70213V10.7234Z" fill="#BD1622"/>
<path d="M9.70213 10.2128H10.2128V9.70213H9.70213V10.2128Z" fill="#BD1622"/>
<path d="M9.19149 10.2128H9.70213V9.70213H9.19149V10.2128Z" fill="#BD1622"/>
<path d="M9.19149 9.70213H9.70213V9.19149H9.19149V9.70213Z" fill="#BD1622"/>
<path d="M9.70213 9.70213H10.2128V9.19149H9.70213V9.70213Z" fill="#BD1622"/>
<path d="M10.2128 10.2128H10.7234V9.70213H10.2128V10.2128Z" fill="#BD1622"/>
<path d="M10.7234 10.7234H11.234V10.2128H10.7234V10.7234Z" fill="#BD1622"/>
<path d="M11.234 11.234H11.7447V10.7234H11.234V11.234Z" fill="#BD1622"/>
<path d="M8.68085 9.70213H9.19149V9.19149H8.68085V9.70213Z" fill="#BD1622"/>
<path d="M8.68085 9.19149H9.19149V8.68085H8.68085V9.19149Z" fill="#BD1622"/>
<path d="M9.19149 9.19149H9.70213V8.68085H9.19149V9.19149Z" fill="#BD1622"/>
<path d="M10.7234 12.2553H11.234V12.766H10.7234V12.2553Z" fill="#BD1622"/>
<path d="M10.7234 12.766H11.234V13.2766H10.7234V12.766Z" fill="#BD1622"/>
<path d="M10.2128 12.766H10.7234V13.2766H10.2128V12.766Z" fill="#BD1622"/>
<path d="M10.2128 13.2766H10.7234V13.7872H10.2128V13.2766Z" fill="#BD1622"/>
<path d="M9.70213 13.2766H10.2128V13.7872H9.70213V13.2766Z" fill="#BD1622"/>
<path d="M9.70213 13.7872H10.2128V14.2979H9.70213V13.7872Z" fill="#BD1622"/>
<path d="M9.19149 13.7872H9.70213V14.2979H9.19149V13.7872Z" fill="#BD1622"/>
<path d="M9.19149 14.2979H9.70213V14.8085H9.19149V14.2979Z" fill="#BD1622"/>
<path d="M9.70213 14.2979H10.2128V14.8085H9.70213V14.2979Z" fill="#BD1622"/>
<path d="M10.2128 13.7872H10.7234V14.2979H10.2128V13.7872Z" fill="#BD1622"/>
<path d="M10.7234 13.2766H11.234V13.7872H10.7234V13.2766Z" fill="#BD1622"/>
<path d="M11.234 12.766H11.7447V13.2766H11.234V12.766Z" fill="#BD1622"/>
<path d="M8.68085 14.2979H9.19149V14.8085H8.68085V14.2979Z" fill="#BD1622"/>
<path d="M8.68085 14.8085H9.19149V15.3191H8.68085V14.8085Z" fill="#BD1622"/>
<path d="M9.19149 14.8085H9.70213V15.3191H9.19149V14.8085Z" fill="#BD1622"/>
<path d="M13.2766 11.7447H12.766V11.234H13.2766V11.7447Z" fill="#BD1622"/>
<path d="M13.2766 11.234H12.766V10.7234H13.2766V11.234Z" fill="#BD1622"/>
<path d="M13.7872 11.234H13.2766V10.7234H13.7872V11.234Z" fill="#BD1622"/>
<path d="M13.7872 10.7234H13.2766V10.2128H13.7872V10.7234Z" fill="#BD1622"/>
<path d="M14.2979 10.7234H13.7872V10.2128H14.2979V10.7234Z" fill="#BD1622"/>
<path d="M14.2979 10.2128H13.7872V9.70213H14.2979V10.2128Z" fill="#BD1622"/>
<path d="M14.8085 10.2128H14.2979V9.70213H14.8085V10.2128Z" fill="#BD1622"/>
<path d="M14.8085 9.70213H14.2979V9.19149H14.8085V9.70213Z" fill="#BD1622"/>
<path d="M14.2979 9.70213H13.7872V9.19149H14.2979V9.70213Z" fill="#BD1622"/>
<path d="M13.7872 10.2128H13.2766V9.70213H13.7872V10.2128Z" fill="#BD1622"/>
<path d="M13.2766 10.7234H12.766V10.2128H13.2766V10.7234Z" fill="#BD1622"/>
<path d="M12.766 11.234H12.2553V10.7234H12.766V11.234Z" fill="#BD1622"/>
<path d="M15.3191 9.70213H14.8085V9.19149H15.3191V9.70213Z" fill="#BD1622"/>
<path d="M15.3191 9.19149H14.8085V8.68085H15.3191V9.19149Z" fill="#BD1622"/>
<path d="M14.8085 9.19149H14.2979V8.68085H14.8085V9.19149Z" fill="#BD1622"/>
<path d="M13.2766 12.2553H12.766V12.766H13.2766V12.2553Z" fill="#BD1622"/>
<path d="M13.2766 12.766H12.766V13.2766H13.2766V12.766Z" fill="#BD1622"/>
<path d="M13.7872 12.766H13.2766V13.2766H13.7872V12.766Z" fill="#BD1622"/>
<path d="M13.7872 13.2766H13.2766V13.7872H13.7872V13.2766Z" fill="#BD1622"/>
<path d="M14.2979 13.2766H13.7872V13.7872H14.2979V13.2766Z" fill="#BD1622"/>
<path d="M14.2979 13.7872H13.7872V14.2979H14.2979V13.7872Z" fill="#BD1622"/>
<path d="M14.8085 13.7872H14.2979V14.2979H14.8085V13.7872Z" fill="#BD1622"/>
<path d="M14.8085 14.2979H14.2979V14.8085H14.8085V14.2979Z" fill="#BD1622"/>
<path d="M14.2979 14.2979H13.7872V14.8085H14.2979V14.2979Z" fill="#BD1622"/>
<path d="M13.7872 13.7872H13.2766V14.2979H13.7872V13.7872Z" fill="#BD1622"/>
<path d="M13.2766 13.2766H12.766V13.7872H13.2766V13.2766Z" fill="#BD1622"/>
<path d="M12.766 12.766H12.2553V13.2766H12.766V12.766Z" fill="#BD1622"/>
<path d="M15.3191 14.2979H14.8085V14.8085H15.3191V14.2979Z" fill="#BD1622"/>
<path d="M15.3191 14.8085H14.8085V15.3191H15.3191V14.8085Z" fill="#BD1622"/>
<path d="M14.8085 14.8085H14.2979V15.3191H14.8085V14.8085Z" fill="#BD1622"/>
<path d="M11.234 11.7447H11.7447V11.234H11.234V11.7447Z" fill="#BD1622"/>
<path d="M11.234 12.766H11.7447V12.2553H11.234V12.766Z" fill="#BD1622"/>
<path d="M12.2553 11.7447H12.766V11.234H12.2553V11.7447Z" fill="#BD1622"/>
<path d="M12.2553 12.766H12.766V12.2553H12.2553V12.766Z" fill="#BD1622"/>
<path d="M6.12766 12.2553H11.234V11.7447H6.12766V12.2553Z" fill="#BD1622"/>
<path d="M6.12766 8.17021H6.6383V8.68085H6.12766V8.17021Z" fill="#BD1622"/>
<path d="M5.61702 8.17021H6.12766V8.68085H5.61702V8.17021Z" fill="#BD1622"/>
<path d="M5.10638 8.17021H5.61702V8.68085H5.10638V8.17021Z" fill="#BD1622"/>
<path d="M4.59574 8.17021H5.10638V8.68085H4.59574V8.17021Z" fill="#BD1622"/>
<path d="M4.59574 8.68085H5.10638V9.19149H4.59574V8.68085Z" fill="#BD1622"/>
<path d="M4.08511 8.68085H4.59574V9.19149H4.08511V8.68085Z" fill="#BD1622"/>
<path d="M4.08511 9.19149H4.59574V9.70213H4.08511V9.19149Z" fill="#BD1622"/>
<path d="M4.08511 9.70213H4.59574V10.2128H4.08511V9.70213Z" fill="#BD1622"/>
<path d="M4.08511 10.2128H4.59574V10.7234H4.08511V10.2128Z" fill="#BD1622"/>
<path d="M4.59574 10.2128H5.10638V10.7234H4.59574V10.2128Z" fill="#BD1622"/>
<path d="M4.59574 10.7234H5.10638V11.234H4.59574V10.7234Z" fill="#BD1622"/>
<path d="M5.10638 10.7234H5.61702V11.234H5.10638V10.7234Z" fill="#BD1622"/>
<path d="M5.10638 11.234H5.61702V11.7447H5.10638V11.234Z" fill="#BD1622"/>
<path d="M5.61702 11.234H6.12766V11.7447H5.61702V11.234Z" fill="#BD1622"/>
<path d="M6.12766 8.68085H6.6383V9.19149H6.12766V8.68085Z" fill="#BD1622"/>
<path d="M6.6383 8.68085H7.14894V9.19149H6.6383V8.68085Z" fill="#BD1622"/>
<path d="M6.6383 9.19149H7.14894V9.70213H6.6383V9.19149Z" fill="#BD1622"/>
<path d="M6.6383 9.70213H7.14894V10.2128H6.6383V9.70213Z" fill="#BD1622"/>
<path d="M6.12766 9.70213H6.6383V10.2128H6.12766V9.70213Z" fill="#BD1622"/>
<path d="M6.12766 15.8298H6.6383V15.3191H6.12766V15.8298Z" fill="#BD1622"/>
<path d="M5.61702 15.8298H6.12766V15.3191H5.61702V15.8298Z" fill="#BD1622"/>
<path d="M5.10638 15.8298H5.61702V15.3191H5.10638V15.8298Z" fill="#BD1622"/>
<path d="M4.59574 15.8298H5.10638V15.3191H4.59574V15.8298Z" fill="#BD1622"/>
<path d="M4.59574 15.3191H5.10638V14.8085H4.59574V15.3191Z" fill="#BD1622"/>
<path d="M4.08511 15.3191H4.59574V14.8085H4.08511V15.3191Z" fill="#BD1622"/>
<path d="M4.08511 14.8085H4.59574V14.2979H4.08511V14.8085Z" fill="#BD1622"/>
<path d="M4.08511 14.2979H4.59574V13.7872H4.08511V14.2979Z" fill="#BD1622"/>
<path d="M4.08511 13.7872H4.59574V13.2766H4.08511V13.7872Z" fill="#BD1622"/>
<path d="M4.59574 13.7872H5.10638V13.2766H4.59574V13.7872Z" fill="#BD1622"/>
<path d="M4.59574 13.2766H5.10638V12.766H4.59574V13.2766Z" fill="#BD1622"/>
<path d="M5.10638 13.2766H5.61702V12.766H5.10638V13.2766Z" fill="#BD1622"/>
<path d="M5.10638 12.766H5.61702V12.2553H5.10638V12.766Z" fill="#BD1622"/>
<path d="M5.61702 12.766H6.12766V12.2553H5.61702V12.766Z" fill="#BD1622"/>
<path d="M6.12766 15.3191H6.6383V14.8085H6.12766V15.3191Z" fill="#BD1622"/>
<path d="M6.6383 15.3191H7.14894V14.8085H6.6383V15.3191Z" fill="#BD1622"/>
<path d="M6.6383 14.8085H7.14894V14.2979H6.6383V14.8085Z" fill="#BD1622"/>
<path d="M6.6383 14.2979H7.14894V13.7872H6.6383V14.2979Z" fill="#BD1622"/>
<path d="M6.12766 14.2979H6.6383V13.7872H6.12766V14.2979Z" fill="#BD1622"/>
<path d="M3.57447 11.234H4.08511V11.7447H3.57447V11.234Z" fill="#BD1622"/>
<path d="M3.57447 11.7447H4.08511V12.2553H3.57447V11.7447Z" fill="#BD1622"/>
<path d="M3.06383 11.7447H3.57447V12.2553H3.06383V11.7447Z" fill="#BD1622"/>
<path d="M4.08511 11.7447H4.59574V12.2553H4.08511V11.7447Z" fill="#BD1622"/>
<path d="M3.57447 12.2553H4.08511V12.766H3.57447V12.2553Z" fill="#BD1622"/>
<path d="M3.57447 9.19149H4.08511V9.70213H3.57447V9.19149Z" fill="#BD1622"/>
<path d="M3.57447 9.70213H4.08511V10.2128H3.57447V9.70213Z" fill="#BD1622"/>
<path d="M3.06383 9.70213H3.57447V10.2128H3.06383V9.70213Z" fill="#BD1622"/>
<path d="M3.06383 14.2979H3.57447V13.7872H3.06383V14.2979Z" fill="#BD1622"/>
<path d="M3.06383 10.2128H3.57447V10.7234H3.06383V10.2128Z" fill="#BD1622"/>
<path d="M3.06383 13.7872H3.57447V13.2766H3.06383V13.7872Z" fill="#BD1622"/>
<path d="M3.57447 14.2979H4.08511V13.7872H3.57447V14.2979Z" fill="#BD1622"/>
<path d="M3.57447 14.8085H4.08511V14.2979H3.57447V14.8085Z" fill="#BD1622"/>
<path d="M2.55319 10.2128H3.06383V10.7234H2.55319V10.2128Z" fill="#BD1622"/>
<path d="M2.55319 13.7872H3.06383V13.2766H2.55319V13.7872Z" fill="#BD1622"/>
<path d="M2.55319 10.7234H3.06383V11.234H2.55319V10.7234Z" fill="#BD1622"/>
<path d="M2.55319 13.2766H3.06383V12.766H2.55319V13.2766Z" fill="#BD1622"/>
<path d="M1.02128 12.2553H1.53191V11.7447H1.02128V12.2553Z" fill="#BD1622"/>
<path d="M2.04255 10.7234H2.55319V11.234H2.04255V10.7234Z" fill="#BD1622"/>
<path d="M2.04255 13.2766H2.55319V12.766H2.04255V13.2766Z" fill="#BD1622"/>
<path d="M1.53191 12.2553H2.04255V11.7447H1.53191V12.2553Z" fill="#BD1622"/>
<path d="M2.04255 11.234H2.55319V11.7447H2.04255V11.234Z" fill="#BD1622"/>
<path d="M2.04255 12.766H2.55319V12.2553H2.04255V12.766Z" fill="#BD1622"/>
<path d="M1.53191 11.234H2.04255V11.7447H1.53191V11.234Z" fill="#BD1622"/>
<path d="M1.53191 12.766H2.04255V12.2553H1.53191V12.766Z" fill="#BD1622"/>
<path d="M17.8723 12.2553H12.766V11.7447H17.8723V12.2553Z" fill="#BD1622"/>
<path d="M17.8723 8.17021H17.3617V8.68085H17.8723V8.17021Z" fill="#BD1622"/>
<path d="M18.383 8.17021H17.8723V8.68085H18.383V8.17021Z" fill="#BD1622"/>
<path d="M18.8936 8.17021H18.383V8.68085H18.8936V8.17021Z" fill="#BD1622"/>
<path d="M19.4043 8.17021H18.8936V8.68085H19.4043V8.17021Z" fill="#BD1622"/>
<path d="M19.4043 8.68085H18.8936V9.19149H19.4043V8.68085Z" fill="#BD1622"/>
<path d="M19.9149 8.68085H19.4043V9.19149H19.9149V8.68085Z" fill="#BD1622"/>
<path d="M19.9149 9.19149H19.4043V9.70213H19.9149V9.19149Z" fill="#BD1622"/>
<path d="M19.9149 9.70213H19.4043V10.2128H19.9149V9.70213Z" fill="#BD1622"/>
<path d="M19.9149 10.2128H19.4043V10.7234H19.9149V10.2128Z" fill="#BD1622"/>
<path d="M19.4043 10.2128H18.8936V10.7234H19.4043V10.2128Z" fill="#BD1622"/>
<path d="M19.4043 10.7234H18.8936V11.234H19.4043V10.7234Z" fill="#BD1622"/>
<path d="M18.8936 10.7234H18.383V11.234H18.8936V10.7234Z" fill="#BD1622"/>
<path d="M18.8936 11.234H18.383V11.7447H18.8936V11.234Z" fill="#BD1622"/>
<path d="M18.383 11.234H17.8723V11.7447H18.383V11.234Z" fill="#BD1622"/>
<path d="M17.8723 8.68085H17.3617V9.19149H17.8723V8.68085Z" fill="#BD1622"/>
<path d="M17.3617 8.68085H16.8511V9.19149H17.3617V8.68085Z" fill="#BD1622"/>
<path d="M17.3617 9.19149H16.8511V9.70213H17.3617V9.19149Z" fill="#BD1622"/>
<path d="M17.3617 9.70213H16.8511V10.2128H17.3617V9.70213Z" fill="#BD1622"/>
<path d="M17.8723 9.70213H17.3617V10.2128H17.8723V9.70213Z" fill="#BD1622"/>
<path d="M17.8723 15.8298H17.3617V15.3191H17.8723V15.8298Z" fill="#BD1622"/>
<path d="M18.383 15.8298H17.8723V15.3191H18.383V15.8298Z" fill="#BD1622"/>
<path d="M18.8936 15.8298H18.383V15.3191H18.8936V15.8298Z" fill="#BD1622"/>
<path d="M19.4043 15.8298H18.8936V15.3191H19.4043V15.8298Z" fill="#BD1622"/>
<path d="M19.4043 15.3191H18.8936V14.8085H19.4043V15.3191Z" fill="#BD1622"/>
<path d="M19.9149 15.3191H19.4043V14.8085H19.9149V15.3191Z" fill="#BD1622"/>
<path d="M19.9149 14.8085H19.4043V14.2979H19.9149V14.8085Z" fill="#BD1622"/>
<path d="M19.9149 14.2979H19.4043V13.7872H19.9149V14.2979Z" fill="#BD1622"/>
<path d="M19.9149 13.7872H19.4043V13.2766H19.9149V13.7872Z" fill="#BD1622"/>
<path d="M19.4043 13.7872H18.8936V13.2766H19.4043V13.7872Z" fill="#BD1622"/>
<path d="M19.4043 13.2766H18.8936V12.766H19.4043V13.2766Z" fill="#BD1622"/>
<path d="M18.8936 13.2766H18.383V12.766H18.8936V13.2766Z" fill="#BD1622"/>
<path d="M18.8936 12.766H18.383V12.2553H18.8936V12.766Z" fill="#BD1622"/>
<path d="M18.383 12.766H17.8723V12.2553H18.383V12.766Z" fill="#BD1622"/>
<path d="M17.8723 15.3191H17.3617V14.8085H17.8723V15.3191Z" fill="#BD1622"/>
<path d="M17.3617 15.3191H16.8511V14.8085H17.3617V15.3191Z" fill="#BD1622"/>
<path d="M17.3617 14.8085H16.8511V14.2979H17.3617V14.8085Z" fill="#BD1622"/>
<path d="M17.3617 14.2979H16.8511V13.7872H17.3617V14.2979Z" fill="#BD1622"/>
<path d="M17.8723 14.2979H17.3617V13.7872H17.8723V14.2979Z" fill="#BD1622"/>
<path d="M20.4255 11.234H19.9149V11.7447H20.4255V11.234Z" fill="#BD1622"/>
<path d="M20.4255 11.7447H19.9149V12.2553H20.4255V11.7447Z" fill="#BD1622"/>
<path d="M20.9362 11.7447H20.4255V12.2553H20.9362V11.7447Z" fill="#BD1622"/>
<path d="M19.9149 11.7447H19.4043V12.2553H19.9149V11.7447Z" fill="#BD1622"/>
<path d="M20.4255 12.2553H19.9149V12.766H20.4255V12.2553Z" fill="#BD1622"/>
<path d="M20.4255 9.19149H19.9149V9.70213H20.4255V9.19149Z" fill="#BD1622"/>
<path d="M20.4255 9.70213H19.9149V10.2128H20.4255V9.70213Z" fill="#BD1622"/>
<path d="M20.9362 9.70213H20.4255V10.2128H20.9362V9.70213Z" fill="#BD1622"/>
<path d="M20.9362 14.2979H20.4255V13.7872H20.9362V14.2979Z" fill="#BD1622"/>
<path d="M20.9362 10.2128H20.4255V10.7234H20.9362V10.2128Z" fill="#BD1622"/>
<path d="M20.9362 13.7872H20.4255V13.2766H20.9362V13.7872Z" fill="#BD1622"/>
<path d="M20.4255 14.2979H19.9149V13.7872H20.4255V14.2979Z" fill="#BD1622"/>
<path d="M20.4255 14.8085H19.9149V14.2979H20.4255V14.8085Z" fill="#BD1622"/>
<path d="M21.4468 10.2128H20.9362V10.7234H21.4468V10.2128Z" fill="#BD1622"/>
<path d="M21.4468 13.7872H20.9362V13.2766H21.4468V13.7872Z" fill="#BD1622"/>
<path d="M21.4468 10.7234H20.9362V11.234H21.4468V10.7234Z" fill="#BD1622"/>
<path d="M21.4468 13.2766H20.9362V12.766H21.4468V13.2766Z" fill="#BD1622"/>
<path d="M22.9787 12.2553H22.4681V11.7447H22.9787V12.2553Z" fill="#BD1622"/>
<path d="M21.9574 10.7234H21.4468V11.234H21.9574V10.7234Z" fill="#BD1622"/>
<path d="M21.9574 13.2766H21.4468V12.766H21.9574V13.2766Z" fill="#BD1622"/>
<path d="M22.4681 12.2553H21.9574V11.7447H22.4681V12.2553Z" fill="#BD1622"/>
<path d="M21.9574 11.234H21.4468V11.7447H21.9574V11.234Z" fill="#BD1622"/>
<path d="M21.9574 12.766H21.4468V12.2553H21.9574V12.766Z" fill="#BD1622"/>
<path d="M22.4681 11.234H21.9574V11.7447H22.4681V11.234Z" fill="#BD1622"/>
<path d="M22.4681 12.766H21.9574V12.2553H22.4681V12.766Z" fill="#BD1622"/>
<path d="M12.2553 6.12766V11.234H11.7447V6.12766H12.2553Z" fill="#BD1622"/>
<path d="M8.17021 6.12766V6.6383H8.68085V6.12766H8.17021Z" fill="#BD1622"/>
<path d="M8.17021 5.61702V6.12766H8.68085V5.61702H8.17021Z" fill="#BD1622"/>
<path d="M8.17021 5.10638V5.61702H8.68085V5.10638H8.17021Z" fill="#BD1622"/>
<path d="M8.17021 4.59574V5.10638H8.68085V4.59574H8.17021Z" fill="#BD1622"/>
<path d="M8.68085 4.59574V5.10638H9.19149V4.59574H8.68085Z" fill="#BD1622"/>
<path d="M8.68085 4.08511V4.59574H9.19149V4.08511H8.68085Z" fill="#BD1622"/>
<path d="M9.19149 4.08511V4.59574H9.70213V4.08511H9.19149Z" fill="#BD1622"/>
<path d="M9.70213 4.08511V4.59574H10.2128V4.08511H9.70213Z" fill="#BD1622"/>
<path d="M10.2128 4.08511V4.59574H10.7234V4.08511H10.2128Z" fill="#BD1622"/>
<path d="M10.2128 4.59574V5.10638H10.7234V4.59574H10.2128Z" fill="#BD1622"/>
<path d="M10.7234 4.59574V5.10638H11.234V4.59574H10.7234Z" fill="#BD1622"/>
<path d="M10.7234 5.10638V5.61702H11.234V5.10638H10.7234Z" fill="#BD1622"/>
<path d="M11.234 5.10638V5.61702H11.7447V5.10638H11.234Z" fill="#BD1622"/>
<path d="M11.234 5.61702V6.12766H11.7447V5.61702H11.234Z" fill="#BD1622"/>
<path d="M8.68085 6.12766V6.6383H9.19149V6.12766H8.68085Z" fill="#BD1622"/>
<path d="M8.68085 6.6383V7.14894H9.19149V6.6383H8.68085Z" fill="#BD1622"/>
<path d="M9.19149 6.6383V7.14894H9.70213V6.6383H9.19149Z" fill="#BD1622"/>
<path d="M9.70213 6.6383V7.14894H10.2128V6.6383H9.70213Z" fill="#BD1622"/>
<path d="M9.70213 6.12766V6.6383H10.2128V6.12766H9.70213Z" fill="#BD1622"/>
<path d="M15.8298 6.12766V6.6383H15.3191V6.12766H15.8298Z" fill="#BD1622"/>
<path d="M15.8298 5.61702V6.12766H15.3191V5.61702H15.8298Z" fill="#BD1622"/>
<path d="M15.8298 5.10638V5.61702H15.3191V5.10638H15.8298Z" fill="#BD1622"/>
<path d="M15.8298 4.59574V5.10638H15.3191V4.59575L15.8298 4.59574Z" fill="#BD1622"/>
<path d="M15.3191 4.59575V5.10638H14.8085V4.59575H15.3191Z" fill="#BD1622"/>
<path d="M15.3191 4.08511V4.59575H14.8085V4.08511L15.3191 4.08511Z" fill="#BD1622"/>
<path d="M14.8085 4.08511V4.59575H14.2979V4.08511H14.8085Z" fill="#BD1622"/>
<path d="M14.2979 4.08511V4.59575H13.7872V4.08511H14.2979Z" fill="#BD1622"/>
<path d="M13.7872 4.08511V4.59575L13.2766 4.59574V4.08511L13.7872 4.08511Z" fill="#BD1622"/>
<path d="M13.7872 4.59575V5.10638L13.2766 5.10638V4.59574L13.7872 4.59575Z" fill="#BD1622"/>
<path d="M13.2766 4.59574V5.10638H12.766V4.59574H13.2766Z" fill="#BD1622"/>
<path d="M13.2766 5.10638V5.61702H12.766V5.10638H13.2766Z" fill="#BD1622"/>
<path d="M12.766 5.10638V5.61702H12.2553V5.10638H12.766Z" fill="#BD1622"/>
<path d="M12.766 5.61702V6.12766H12.2553V5.61702H12.766Z" fill="#BD1622"/>
<path d="M15.3191 6.12766V6.6383H14.8085V6.12766H15.3191Z" fill="#BD1622"/>
<path d="M15.3191 6.6383V7.14894H14.8085V6.6383H15.3191Z" fill="#BD1622"/>
<path d="M14.8085 6.6383V7.14894H14.2979V6.6383H14.8085Z" fill="#BD1622"/>
<path d="M14.2979 6.6383V7.14894H13.7872V6.6383H14.2979Z" fill="#BD1622"/>
<path d="M14.2979 6.12766V6.6383H13.7872V6.12766H14.2979Z" fill="#BD1622"/>
<path d="M11.234 3.57447V4.08511H11.7447V3.57447H11.234Z" fill="#BD1622"/>
<path d="M11.7447 3.57447V4.08511H12.2553V3.57447H11.7447Z" fill="#BD1622"/>
<path d="M11.7447 3.06383V3.57447H12.2553V3.06383H11.7447Z" fill="#BD1622"/>
<path d="M11.7447 4.08511V4.59574H12.2553V4.08511H11.7447Z" fill="#BD1622"/>
<path d="M12.2553 3.57447V4.08511H12.766V3.57447H12.2553Z" fill="#BD1622"/>
<path d="M9.19149 3.57447V4.08511H9.70213V3.57447H9.19149Z" fill="#BD1622"/>
<path d="M9.70213 3.57447V4.08511H10.2128V3.57447H9.70213Z" fill="#BD1622"/>
<path d="M9.70213 3.06383V3.57447H10.2128V3.06383H9.70213Z" fill="#BD1622"/>
<path d="M14.2979 3.06383V3.57447H13.7872V3.06383L14.2979 3.06383Z" fill="#BD1622"/>
<path d="M10.2128 3.06383V3.57447H10.7234V3.06383H10.2128Z" fill="#BD1622"/>
<path d="M13.7872 3.06383V3.57447H13.2766V3.06383H13.7872Z" fill="#BD1622"/>
<path d="M14.2979 3.57447V4.08511H13.7872V3.57447H14.2979Z" fill="#BD1622"/>
<path d="M14.8085 3.57447V4.08511H14.2979V3.57447L14.8085 3.57447Z" fill="#BD1622"/>
<path d="M10.2128 2.55319V3.06383H10.7234V2.55319H10.2128Z" fill="#BD1622"/>
<path d="M13.7872 2.55319V3.06383H13.2766V2.55319L13.7872 2.55319Z" fill="#BD1622"/>
<path d="M10.7234 2.55319V3.06383L11.234 3.06383V2.55319L10.7234 2.55319Z" fill="#BD1622"/>
<path d="M13.2766 2.55319V3.06383H12.766V2.55319H13.2766Z" fill="#BD1622"/>
<path d="M12.2553 1.02128V1.53192L11.7447 1.53192V1.02128H12.2553Z" fill="#BD1622"/>
<path d="M10.7234 2.04255V2.55319L11.234 2.55319V2.04255L10.7234 2.04255Z" fill="#BD1622"/>
<path d="M13.2766 2.04255V2.55319H12.766V2.04255L13.2766 2.04255Z" fill="#BD1622"/>
<path d="M12.2553 1.53192V2.04255H11.7447V1.53192L12.2553 1.53192Z" fill="#BD1622"/>
<path d="M11.234 2.04255V2.55319H11.7447V2.04255H11.234Z" fill="#BD1622"/>
<path d="M12.766 2.04255V2.55319H12.2553V2.04255H12.766Z" fill="#BD1622"/>
<path d="M11.234 1.53191V2.04255H11.7447V1.53192L11.234 1.53191Z" fill="#BD1622"/>
<path d="M12.766 1.53191V2.04255H12.2553V1.53192L12.766 1.53191Z" fill="#BD1622"/>
<path d="M12.2553 17.8723V12.766H11.7447V17.8723H12.2553Z" fill="#BD1622"/>
<path d="M8.17021 17.8723V17.3617H8.68085V17.8723H8.17021Z" fill="#BD1622"/>
<path d="M8.17021 18.383V17.8723H8.68085V18.383H8.17021Z" fill="#BD1622"/>
<path d="M8.17021 18.8936V18.383H8.68085V18.8936H8.17021Z" fill="#BD1622"/>
<path d="M8.17021 19.4043V18.8936H8.68085V19.4043H8.17021Z" fill="#BD1622"/>
<path d="M8.68085 19.4043V18.8936H9.19149V19.4043H8.68085Z" fill="#BD1622"/>
<path d="M8.68085 19.9149V19.4043H9.19149V19.9149H8.68085Z" fill="#BD1622"/>
<path d="M9.19149 19.9149V19.4043H9.70213V19.9149H9.19149Z" fill="#BD1622"/>
<path d="M9.70213 19.9149V19.4043H10.2128V19.9149H9.70213Z" fill="#BD1622"/>
<path d="M10.2128 19.9149V19.4043H10.7234V19.9149H10.2128Z" fill="#BD1622"/>
<path d="M10.2128 19.4043V18.8936H10.7234V19.4043H10.2128Z" fill="#BD1622"/>
<path d="M10.7234 19.4043V18.8936H11.234V19.4043H10.7234Z" fill="#BD1622"/>
<path d="M10.7234 18.8936V18.383H11.234V18.8936H10.7234Z" fill="#BD1622"/>
<path d="M11.234 18.8936V18.383H11.7447V18.8936H11.234Z" fill="#BD1622"/>
<path d="M11.234 18.383V17.8723H11.7447V18.383H11.234Z" fill="#BD1622"/>
<path d="M8.68085 17.8723V17.3617H9.19149V17.8723H8.68085Z" fill="#BD1622"/>
<path d="M8.68085 17.3617V16.8511H9.19149V17.3617H8.68085Z" fill="#BD1622"/>
<path d="M9.19149 17.3617V16.8511H9.70213V17.3617H9.19149Z" fill="#BD1622"/>
<path d="M9.70213 17.3617V16.8511H10.2128V17.3617H9.70213Z" fill="#BD1622"/>
<path d="M9.70213 17.8723V17.3617H10.2128V17.8723H9.70213Z" fill="#BD1622"/>
<path d="M15.8298 17.8723V17.3617H15.3191V17.8723H15.8298Z" fill="#BD1622"/>
<path d="M15.8298 18.383V17.8723H15.3191V18.383H15.8298Z" fill="#BD1622"/>
<path d="M15.8298 18.8936V18.383H15.3191V18.8936H15.8298Z" fill="#BD1622"/>
<path d="M15.8298 19.4043V18.8936H15.3191V19.4043H15.8298Z" fill="#BD1622"/>
<path d="M15.3191 19.4043V18.8936H14.8085V19.4043H15.3191Z" fill="#BD1622"/>
<path d="M15.3191 19.9149V19.4043H14.8085V19.9149H15.3191Z" fill="#BD1622"/>
<path d="M14.8085 19.9149V19.4043H14.2979V19.9149H14.8085Z" fill="#BD1622"/>
<path d="M14.2979 19.9149V19.4043H13.7872V19.9149H14.2979Z" fill="#BD1622"/>
<path d="M13.7872 19.9149V19.4043H13.2766V19.9149H13.7872Z" fill="#BD1622"/>
<path d="M13.7872 19.4043V18.8936H13.2766V19.4043H13.7872Z" fill="#BD1622"/>
<path d="M13.2766 19.4043V18.8936H12.766V19.4043H13.2766Z" fill="#BD1622"/>
<path d="M13.2766 18.8936V18.383H12.766V18.8936H13.2766Z" fill="#BD1622"/>
<path d="M12.766 18.8936V18.383H12.2553V18.8936H12.766Z" fill="#BD1622"/>
<path d="M12.766 18.383V17.8723H12.2553V18.383H12.766Z" fill="#BD1622"/>
<path d="M15.3191 17.8723V17.3617H14.8085V17.8723H15.3191Z" fill="#BD1622"/>
<path d="M15.3191 17.3617V16.8511H14.8085V17.3617H15.3191Z" fill="#BD1622"/>
<path d="M14.8085 17.3617V16.8511H14.2979V17.3617H14.8085Z" fill="#BD1622"/>
<path d="M14.2979 17.3617V16.8511H13.7872V17.3617H14.2979Z" fill="#BD1622"/>
<path d="M14.2979 17.8723V17.3617H13.7872V17.8723H14.2979Z" fill="#BD1622"/>
<path d="M11.234 20.4255V19.9149H11.7447V20.4255H11.234Z" fill="#BD1622"/>
<path d="M11.7447 20.4255V19.9149H12.2553V20.4255H11.7447Z" fill="#BD1622"/>
<path d="M11.7447 20.9362V20.4255H12.2553V20.9362H11.7447Z" fill="#BD1622"/>
<path d="M11.7447 19.9149V19.4043H12.2553V19.9149H11.7447Z" fill="#BD1622"/>
<path d="M12.2553 20.4255V19.9149H12.766V20.4255H12.2553Z" fill="#BD1622"/>
<path d="M9.19149 20.4255V19.9149H9.70213V20.4255H9.19149Z" fill="#BD1622"/>
<path d="M9.70213 20.4255V19.9149H10.2128V20.4255H9.70213Z" fill="#BD1622"/>
<path d="M9.70213 20.9362V20.4255H10.2128V20.9362H9.70213Z" fill="#BD1622"/>
<path d="M14.2979 20.9362V20.4255H13.7872V20.9362H14.2979Z" fill="#BD1622"/>
<path d="M10.2128 20.9362V20.4255H10.7234V20.9362H10.2128Z" fill="#BD1622"/>
<path d="M13.7872 20.9362V20.4255H13.2766V20.9362H13.7872Z" fill="#BD1622"/>
<path d="M14.2979 20.4255V19.9149H13.7872V20.4255H14.2979Z" fill="#BD1622"/>
<path d="M14.8085 20.4255V19.9149H14.2979V20.4255H14.8085Z" fill="#BD1622"/>
<path d="M10.2128 21.4468V20.9362H10.7234V21.4468H10.2128Z" fill="#BD1622"/>
<path d="M13.7872 21.4468V20.9362H13.2766V21.4468H13.7872Z" fill="#BD1622"/>
<path d="M10.7234 21.4468V20.9362H11.234V21.4468H10.7234Z" fill="#BD1622"/>
<path d="M13.2766 21.4468V20.9362H12.766V21.4468H13.2766Z" fill="#BD1622"/>
<path d="M12.2553 22.9787V22.4681H11.7447V22.9787H12.2553Z" fill="#BD1622"/>
<path d="M10.7234 21.9574V21.4468H11.234V21.9574H10.7234Z" fill="#BD1622"/>
<path d="M13.2766 21.9574V21.4468H12.766V21.9574H13.2766Z" fill="#BD1622"/>
<path d="M12.2553 22.4681V21.9574H11.7447V22.4681H12.2553Z" fill="#BD1622"/>
<path d="M11.234 21.9574V21.4468H11.7447V21.9574H11.234Z" fill="#BD1622"/>
<path d="M12.766 21.9574V21.4468H12.2553V21.9574H12.766Z" fill="#BD1622"/>
<path d="M11.234 22.4681V21.9574H11.7447V22.4681H11.234Z" fill="#BD1622"/>
<path d="M12.766 22.4681V21.9574H12.2553V22.4681H12.766Z" fill="#BD1622"/>
</svg>
