<svg width="46" height="46" viewBox="0 0 46 46" fill="none" xmlns="http://www.w3.org/2000/svg">
<path d="M10.766 22.5106H11.7447V23.4894H10.766V22.5106Z" fill="#F9F6F0"/>
<path d="M45.0213 22.5106H44.0426V21.5319H45.0213V22.5106Z" fill="#F9F6F0"/>
<path d="M44.0426 21.5319H43.0638V20.5532H44.0426V21.5319Z" fill="#F9F6F0"/>
<path d="M43.0638 20.5532H42.0851V19.5745H43.0638V20.5532Z" fill="#F9F6F0"/>
<path d="M42.0851 19.5745H41.1064V18.5957H42.0851V19.5745Z" fill="#F9F6F0"/>
<path d="M41.1064 18.5957H40.1277V17.617H41.1064V18.5957Z" fill="#F9F6F0"/>
<path d="M40.1277 17.617H39.1489V16.6383H40.1277V17.617Z" fill="#F9F6F0"/>
<path d="M39.1489 16.6383H38.1702V15.6596H39.1489V16.6383Z" fill="#F9F6F0"/>
<path d="M38.1702 15.6596H37.1915V14.6809H38.1702V15.6596Z" fill="#F9F6F0"/>
<path d="M37.1915 14.6809H36.2128V13.7021H37.1915V14.6809Z" fill="#F9F6F0"/>
<path d="M36.2128 13.7021H35.234V12.7234H36.2128V13.7021Z" fill="#F9F6F0"/>
<path d="M35.234 12.7234H34.2553V11.7447H35.234V12.7234Z" fill="#F9F6F0"/>
<path d="M34.2553 11.7447H33.2766V10.766H34.2553V11.7447Z" fill="#F9F6F0"/>
<path d="M33.2766 10.766H32.2979V9.78723H33.2766V10.766Z" fill="#F9F6F0"/>
<path d="M32.2979 9.78723H31.3191V8.80851H32.2979V9.78723Z" fill="#F9F6F0"/>
<path d="M31.3191 8.80851H30.3404V7.82979H31.3191V8.80851Z" fill="#F9F6F0"/>
<path d="M30.3404 7.82979H29.3617V6.85106H30.3404V7.82979Z" fill="#F9F6F0"/>
<path d="M29.3617 6.85106H28.383V5.87234H29.3617V6.85106Z" fill="#F9F6F0"/>
<path d="M28.383 5.87234H27.4043V4.89362H28.383V5.87234Z" fill="#F9F6F0"/>
<path d="M27.4043 4.89362H26.4255V3.91489H27.4043V4.89362Z" fill="#F9F6F0"/>
<path d="M26.4255 3.91489H25.4468V2.93617H26.4255V3.91489Z" fill="#F9F6F0"/>
<path d="M25.4468 2.93617H24.4681V1.95745H25.4468V2.93617Z" fill="#F9F6F0"/>
<path d="M24.4681 1.95745H23.4894V0.978723H24.4681V1.95745Z" fill="#F9F6F0"/>
<path d="M23.4894 0.978723H22.5106V0H23.4894V0.978723Z" fill="#F9F6F0"/>
<path d="M45.0213 24.4681H44.0426V23.4894H45.0213V24.4681Z" fill="#F9F6F0"/>
<path d="M44.0426 25.4468H43.0638V24.4681H44.0426V25.4468Z" fill="#F9F6F0"/>
<path d="M43.0638 26.4255H42.0851V25.4468H43.0638V26.4255Z" fill="#F9F6F0"/>
<path d="M42.0851 27.4043H41.1064V26.4255H42.0851V27.4043Z" fill="#F9F6F0"/>
<path d="M41.1064 28.383H40.1277V27.4043H41.1064V28.383Z" fill="#F9F6F0"/>
<path d="M40.1277 29.3617H39.1489V28.383H40.1277V29.3617Z" fill="#F9F6F0"/>
<path d="M39.1489 30.3404H38.1702V29.3617H39.1489V30.3404Z" fill="#F9F6F0"/>
<path d="M38.1702 31.3191H37.1915V30.3404H38.1702V31.3191Z" fill="#F9F6F0"/>
<path d="M37.1915 32.2979H36.2128V31.3191H37.1915V32.2979Z" fill="#F9F6F0"/>
<path d="M36.2128 33.2766H35.234V32.2979H36.2128V33.2766Z" fill="#F9F6F0"/>
<path d="M35.234 34.2553H34.2553V33.2766H35.234V34.2553Z" fill="#F9F6F0"/>
<path d="M34.2553 35.234H33.2766V34.2553H34.2553V35.234Z" fill="#F9F6F0"/>
<path d="M33.2766 36.2128H32.2979V35.234H33.2766V36.2128Z" fill="#F9F6F0"/>
<path d="M32.2979 37.1915H31.3191V36.2128H32.2979V37.1915Z" fill="#F9F6F0"/>
<path d="M31.3191 38.1702H30.3404V37.1915H31.3191V38.1702Z" fill="#F9F6F0"/>
<path d="M30.3404 39.1489H29.3617V38.1702H30.3404V39.1489Z" fill="#F9F6F0"/>
<path d="M29.3617 40.1277H28.383V39.1489H29.3617V40.1277Z" fill="#F9F6F0"/>
<path d="M28.383 41.1064H27.4043V40.1277H28.383V41.1064Z" fill="#F9F6F0"/>
<path d="M27.4043 42.0851H26.4255V41.1064H27.4043V42.0851Z" fill="#F9F6F0"/>
<path d="M26.4255 43.0638H25.4468V42.0851H26.4255V43.0638Z" fill="#F9F6F0"/>
<path d="M25.4468 44.0426H24.4681V43.0638H25.4468V44.0426Z" fill="#F9F6F0"/>
<path d="M24.4681 45.0213H23.4894V44.0426H24.4681V45.0213Z" fill="#F9F6F0"/>
<path d="M23.4894 46H22.5106V45.0213H23.4894V46Z" fill="#F9F6F0"/>
<path d="M46 23.4894H45.0213V22.5106H46V23.4894Z" fill="#F9F6F0"/>
<path d="M0.978723 22.5106H1.95745V21.5319H0.978723V22.5106Z" fill="#F9F6F0"/>
<path d="M1.95745 21.5319H2.93617V20.5532H1.95745V21.5319Z" fill="#F9F6F0"/>
<path d="M2.93617 20.5532H3.91489V19.5745H2.93617V20.5532Z" fill="#F9F6F0"/>
<path d="M3.91489 19.5745H4.89362V18.5957H3.91489V19.5745Z" fill="#F9F6F0"/>
<path d="M4.89362 18.5957H5.87234V17.617H4.89362V18.5957Z" fill="#F9F6F0"/>
<path d="M5.87234 17.617H6.85106V16.6383H5.87234V17.617Z" fill="#F9F6F0"/>
<path d="M6.85106 16.6383H7.82979V15.6596H6.85106V16.6383Z" fill="#F9F6F0"/>
<path d="M7.82979 15.6596H8.80851V14.6809H7.82979V15.6596Z" fill="#F9F6F0"/>
<path d="M8.80851 14.6809H9.78723V13.7021H8.80851V14.6809Z" fill="#F9F6F0"/>
<path d="M9.78723 13.7021H10.766V12.7234H9.78723V13.7021Z" fill="#F9F6F0"/>
<path d="M10.766 12.7234H11.7447V11.7447H10.766V12.7234Z" fill="#F9F6F0"/>
<path d="M11.7447 11.7447H12.7234V10.766H11.7447V11.7447Z" fill="#F9F6F0"/>
<path d="M12.7234 10.766H13.7021V9.78723H12.7234V10.766Z" fill="#F9F6F0"/>
<path d="M13.7021 9.78723H14.6809V8.80851H13.7021V9.78723Z" fill="#F9F6F0"/>
<path d="M14.6809 8.80851H15.6596V7.82979H14.6809V8.80851Z" fill="#F9F6F0"/>
<path d="M15.6596 7.82979H16.6383V6.85106H15.6596V7.82979Z" fill="#F9F6F0"/>
<path d="M16.6383 6.85106H17.617V5.87234H16.6383V6.85106Z" fill="#F9F6F0"/>
<path d="M17.617 5.87234H18.5957V4.89362H17.617V5.87234Z" fill="#F9F6F0"/>
<path d="M18.5957 4.89362H19.5745V3.91489H18.5957V4.89362Z" fill="#F9F6F0"/>
<path d="M19.5745 3.91489H20.5532V2.93617H19.5745V3.91489Z" fill="#F9F6F0"/>
<path d="M20.5532 2.93617H21.5319V1.95745H20.5532V2.93617Z" fill="#F9F6F0"/>
<path d="M21.5319 1.95745H22.5106V0.978723H21.5319V1.95745Z" fill="#F9F6F0"/>
<path d="M22.5106 0.978723H23.4894V0H22.5106V0.978723Z" fill="#F9F6F0"/>
<path d="M0.978723 24.4681H1.95745V23.4894H0.978723V24.4681Z" fill="#F9F6F0"/>
<path d="M1.95745 25.4468H2.93617V24.4681H1.95745V25.4468Z" fill="#F9F6F0"/>
<path d="M2.93617 26.4255H3.91489V25.4468H2.93617V26.4255Z" fill="#F9F6F0"/>
<path d="M3.91489 27.4043H4.89362V26.4255H3.91489V27.4043Z" fill="#F9F6F0"/>
<path d="M4.89362 28.383H5.87234V27.4043H4.89362V28.383Z" fill="#F9F6F0"/>
<path d="M5.87234 29.3617H6.85106V28.383H5.87234V29.3617Z" fill="#F9F6F0"/>
<path d="M6.85106 30.3404H7.82979V29.3617H6.85106V30.3404Z" fill="#F9F6F0"/>
<path d="M7.82979 31.3191H8.80851V30.3404H7.82979V31.3191Z" fill="#F9F6F0"/>
<path d="M8.80851 32.2979H9.78723V31.3191H8.80851V32.2979Z" fill="#F9F6F0"/>
<path d="M9.78723 33.2766H10.766V32.2979H9.78723V33.2766Z" fill="#F9F6F0"/>
<path d="M10.766 34.2553H11.7447V33.2766H10.766V34.2553Z" fill="#F9F6F0"/>
<path d="M11.7447 35.234H12.7234V34.2553H11.7447V35.234Z" fill="#F9F6F0"/>
<path d="M12.7234 36.2128H13.7021V35.234H12.7234V36.2128Z" fill="#F9F6F0"/>
<path d="M13.7021 37.1915H14.6809V36.2128H13.7021V37.1915Z" fill="#F9F6F0"/>
<path d="M14.6809 38.1702H15.6596V37.1915H14.6809V38.1702Z" fill="#F9F6F0"/>
<path d="M15.6596 39.1489H16.6383V38.1702H15.6596V39.1489Z" fill="#F9F6F0"/>
<path d="M16.6383 40.1277H17.617V39.1489H16.6383V40.1277Z" fill="#F9F6F0"/>
<path d="M17.617 41.1064H18.5957V40.1277H17.617V41.1064Z" fill="#F9F6F0"/>
<path d="M18.5957 42.0851H19.5745V41.1064H18.5957V42.0851Z" fill="#F9F6F0"/>
<path d="M19.5745 43.0638H20.5532V42.0851H19.5745V43.0638Z" fill="#F9F6F0"/>
<path d="M20.5532 44.0426H21.5319V43.0638H20.5532V44.0426Z" fill="#F9F6F0"/>
<path d="M21.5319 45.0213H22.5106V44.0426H21.5319V45.0213Z" fill="#F9F6F0"/>
<path d="M22.5106 46H23.4894V45.0213H22.5106V46Z" fill="#F9F6F0"/>
<path d="M0 23.4894H0.978723V22.5106H0V23.4894Z" fill="#F9F6F0"/>
<path d="M20.5532 22.5106H21.5319V21.5319H20.5532V22.5106Z" fill="#F9F6F0"/>
<path d="M20.5532 21.5319H21.5319V20.5532H20.5532V21.5319Z" fill="#F9F6F0"/>
<path d="M19.5745 21.5319H20.5532V20.5532H19.5745V21.5319Z" fill="#F9F6F0"/>
<path d="M19.5745 20.5532H20.5532V19.5745H19.5745V20.5532Z" fill="#F9F6F0"/>
<path d="M18.5957 20.5532H19.5745V19.5745H18.5957V20.5532Z" fill="#F9F6F0"/>
<path d="M18.5957 19.5745H19.5745V18.5957H18.5957V19.5745Z" fill="#F9F6F0"/>
<path d="M17.617 19.5745H18.5957V18.5957H17.617V19.5745Z" fill="#F9F6F0"/>
<path d="M17.617 18.5957H18.5957V17.617H17.617V18.5957Z" fill="#F9F6F0"/>
<path d="M18.5957 18.5957H19.5745V17.617H18.5957V18.5957Z" fill="#F9F6F0"/>
<path d="M19.5745 19.5745H20.5532V18.5957H19.5745V19.5745Z" fill="#F9F6F0"/>
<path d="M20.5532 20.5532H21.5319V19.5745H20.5532V20.5532Z" fill="#F9F6F0"/>
<path d="M21.5319 21.5319H22.5106V20.5532H21.5319V21.5319Z" fill="#F9F6F0"/>
<path d="M16.6383 18.5957H17.617V17.617H16.6383V18.5957Z" fill="#F9F6F0"/>
<path d="M16.6383 17.617H17.617V16.6383H16.6383V17.617Z" fill="#F9F6F0"/>
<path d="M17.617 17.617H18.5957V16.6383H17.617V17.617Z" fill="#F9F6F0"/>
<path d="M20.5532 23.4894H21.5319V24.4681H20.5532V23.4894Z" fill="#F9F6F0"/>
<path d="M20.5532 24.4681H21.5319V25.4468H20.5532V24.4681Z" fill="#F9F6F0"/>
<path d="M19.5745 24.4681H20.5532V25.4468H19.5745V24.4681Z" fill="#F9F6F0"/>
<path d="M19.5745 25.4468H20.5532V26.4255H19.5745V25.4468Z" fill="#F9F6F0"/>
<path d="M18.5957 25.4468H19.5745V26.4255H18.5957V25.4468Z" fill="#F9F6F0"/>
<path d="M18.5957 26.4255H19.5745V27.4043H18.5957V26.4255Z" fill="#F9F6F0"/>
<path d="M17.617 26.4255H18.5957V27.4043H17.617V26.4255Z" fill="#F9F6F0"/>
<path d="M17.617 27.4043H18.5957V28.383H17.617V27.4043Z" fill="#F9F6F0"/>
<path d="M18.5957 27.4043H19.5745V28.383H18.5957V27.4043Z" fill="#F9F6F0"/>
<path d="M19.5745 26.4255H20.5532V27.4043H19.5745V26.4255Z" fill="#F9F6F0"/>
<path d="M20.5532 25.4468H21.5319V26.4255H20.5532V25.4468Z" fill="#F9F6F0"/>
<path d="M21.5319 24.4681H22.5106V25.4468H21.5319V24.4681Z" fill="#F9F6F0"/>
<path d="M16.6383 27.4043H17.617V28.383H16.6383V27.4043Z" fill="#F9F6F0"/>
<path d="M16.6383 28.383H17.617V29.3617H16.6383V28.383Z" fill="#F9F6F0"/>
<path d="M17.617 28.383H18.5957V29.3617H17.617V28.383Z" fill="#F9F6F0"/>
<path d="M25.4468 22.5106H24.4681V21.5319H25.4468V22.5106Z" fill="#F9F6F0"/>
<path d="M25.4468 21.5319H24.4681V20.5532H25.4468V21.5319Z" fill="#F9F6F0"/>
<path d="M26.4255 21.5319H25.4468V20.5532H26.4255V21.5319Z" fill="#F9F6F0"/>
<path d="M26.4255 20.5532H25.4468V19.5745H26.4255V20.5532Z" fill="#F9F6F0"/>
<path d="M27.4043 20.5532H26.4255V19.5745H27.4043V20.5532Z" fill="#F9F6F0"/>
<path d="M27.4043 19.5745H26.4255V18.5957H27.4043V19.5745Z" fill="#F9F6F0"/>
<path d="M28.383 19.5745H27.4043V18.5957H28.383V19.5745Z" fill="#F9F6F0"/>
<path d="M28.383 18.5957H27.4043V17.617H28.383V18.5957Z" fill="#F9F6F0"/>
<path d="M27.4043 18.5957H26.4255V17.617H27.4043V18.5957Z" fill="#F9F6F0"/>
<path d="M26.4255 19.5745H25.4468V18.5957H26.4255V19.5745Z" fill="#F9F6F0"/>
<path d="M25.4468 20.5532H24.4681V19.5745H25.4468V20.5532Z" fill="#F9F6F0"/>
<path d="M24.4681 21.5319H23.4894V20.5532H24.4681V21.5319Z" fill="#F9F6F0"/>
<path d="M29.3617 18.5957H28.383V17.617H29.3617V18.5957Z" fill="#F9F6F0"/>
<path d="M29.3617 17.617H28.383V16.6383H29.3617V17.617Z" fill="#F9F6F0"/>
<path d="M28.383 17.617H27.4043V16.6383H28.383V17.617Z" fill="#F9F6F0"/>
<path d="M25.4468 23.4894H24.4681V24.4681H25.4468V23.4894Z" fill="#F9F6F0"/>
<path d="M25.4468 24.4681H24.4681V25.4468H25.4468V24.4681Z" fill="#F9F6F0"/>
<path d="M26.4255 24.4681H25.4468V25.4468H26.4255V24.4681Z" fill="#F9F6F0"/>
<path d="M26.4255 25.4468H25.4468V26.4255H26.4255V25.4468Z" fill="#F9F6F0"/>
<path d="M27.4043 25.4468H26.4255V26.4255H27.4043V25.4468Z" fill="#F9F6F0"/>
<path d="M27.4043 26.4255H26.4255V27.4043H27.4043V26.4255Z" fill="#F9F6F0"/>
<path d="M28.383 26.4255H27.4043V27.4043H28.383V26.4255Z" fill="#F9F6F0"/>
<path d="M28.383 27.4043H27.4043V28.383H28.383V27.4043Z" fill="#F9F6F0"/>
<path d="M27.4043 27.4043H26.4255V28.383H27.4043V27.4043Z" fill="#F9F6F0"/>
<path d="M26.4255 26.4255H25.4468V27.4043H26.4255V26.4255Z" fill="#F9F6F0"/>
<path d="M25.4468 25.4468H24.4681V26.4255H25.4468V25.4468Z" fill="#F9F6F0"/>
<path d="M24.4681 24.4681H23.4894V25.4468H24.4681V24.4681Z" fill="#F9F6F0"/>
<path d="M29.3617 27.4043H28.383V28.383H29.3617V27.4043Z" fill="#F9F6F0"/>
<path d="M29.3617 28.383H28.383V29.3617H29.3617V28.383Z" fill="#F9F6F0"/>
<path d="M28.383 28.383H27.4043V29.3617H28.383V28.383Z" fill="#F9F6F0"/>
<path d="M21.5319 22.5106H22.5106V21.5319H21.5319V22.5106Z" fill="#F9F6F0"/>
<path d="M21.5319 24.4681H22.5106V23.4894H21.5319V24.4681Z" fill="#F9F6F0"/>
<path d="M23.4894 22.5106H24.4681V21.5319H23.4894V22.5106Z" fill="#F9F6F0"/>
<path d="M23.4894 24.4681H24.4681V23.4894H23.4894V24.4681Z" fill="#F9F6F0"/>
<path d="M11.7447 23.4894H21.5319V22.5106H11.7447V23.4894Z" fill="#F9F6F0"/>
<path d="M11.7447 15.6596H12.7234V16.6383H11.7447V15.6596Z" fill="#F9F6F0"/>
<path d="M10.766 15.6596H11.7447V16.6383H10.766V15.6596Z" fill="#F9F6F0"/>
<path d="M9.78723 15.6596H10.766V16.6383H9.78723V15.6596Z" fill="#F9F6F0"/>
<path d="M8.80851 15.6596H9.78723V16.6383H8.80851V15.6596Z" fill="#F9F6F0"/>
<path d="M8.80851 16.6383H9.78723V17.617H8.80851V16.6383Z" fill="#F9F6F0"/>
<path d="M7.82979 16.6383H8.80851V17.617H7.82979V16.6383Z" fill="#F9F6F0"/>
<path d="M7.82979 17.617H8.80851V18.5957H7.82979V17.617Z" fill="#F9F6F0"/>
<path d="M7.82979 18.5957H8.80851V19.5745H7.82979V18.5957Z" fill="#F9F6F0"/>
<path d="M7.82979 19.5745H8.80851V20.5532H7.82979V19.5745Z" fill="#F9F6F0"/>
<path d="M8.80851 19.5745H9.78723V20.5532H8.80851V19.5745Z" fill="#F9F6F0"/>
<path d="M8.80851 20.5532H9.78723V21.5319H8.80851V20.5532Z" fill="#F9F6F0"/>
<path d="M9.78723 20.5532H10.766V21.5319H9.78723V20.5532Z" fill="#F9F6F0"/>
<path d="M9.78723 21.5319H10.766V22.5106H9.78723V21.5319Z" fill="#F9F6F0"/>
<path d="M10.766 21.5319H11.7447V22.5106H10.766V21.5319Z" fill="#F9F6F0"/>
<path d="M11.7447 16.6383H12.7234V17.617H11.7447V16.6383Z" fill="#F9F6F0"/>
<path d="M12.7234 16.6383H13.7021V17.617H12.7234V16.6383Z" fill="#F9F6F0"/>
<path d="M12.7234 17.617H13.7021V18.5957H12.7234V17.617Z" fill="#F9F6F0"/>
<path d="M12.7234 18.5957H13.7021V19.5745H12.7234V18.5957Z" fill="#F9F6F0"/>
<path d="M11.7447 18.5957H12.7234V19.5745H11.7447V18.5957Z" fill="#F9F6F0"/>
<path d="M11.7447 30.3404H12.7234V29.3617H11.7447V30.3404Z" fill="#F9F6F0"/>
<path d="M10.766 30.3404H11.7447V29.3617H10.766V30.3404Z" fill="#F9F6F0"/>
<path d="M9.78723 30.3404H10.766V29.3617H9.78723V30.3404Z" fill="#F9F6F0"/>
<path d="M8.80851 30.3404H9.78723V29.3617H8.80851V30.3404Z" fill="#F9F6F0"/>
<path d="M8.80851 29.3617H9.78723V28.383H8.80851V29.3617Z" fill="#F9F6F0"/>
<path d="M7.82979 29.3617H8.80851V28.383H7.82979V29.3617Z" fill="#F9F6F0"/>
<path d="M7.82979 28.383H8.80851V27.4043H7.82979V28.383Z" fill="#F9F6F0"/>
<path d="M7.82979 27.4043H8.80851V26.4255H7.82979V27.4043Z" fill="#F9F6F0"/>
<path d="M7.82979 26.4255H8.80851V25.4468H7.82979V26.4255Z" fill="#F9F6F0"/>
<path d="M8.80851 26.4255H9.78723V25.4468H8.80851V26.4255Z" fill="#F9F6F0"/>
<path d="M8.80851 25.4468H9.78723V24.4681H8.80851V25.4468Z" fill="#F9F6F0"/>
<path d="M9.78723 25.4468H10.766V24.4681H9.78723V25.4468Z" fill="#F9F6F0"/>
<path d="M9.78723 24.4681H10.766V23.4894H9.78723V24.4681Z" fill="#F9F6F0"/>
<path d="M10.766 24.4681H11.7447V23.4894H10.766V24.4681Z" fill="#F9F6F0"/>
<path d="M11.7447 29.3617H12.7234V28.383H11.7447V29.3617Z" fill="#F9F6F0"/>
<path d="M12.7234 29.3617H13.7021V28.383H12.7234V29.3617Z" fill="#F9F6F0"/>
<path d="M12.7234 28.383H13.7021V27.4043H12.7234V28.383Z" fill="#F9F6F0"/>
<path d="M12.7234 27.4043H13.7021V26.4255H12.7234V27.4043Z" fill="#F9F6F0"/>
<path d="M11.7447 27.4043H12.7234V26.4255H11.7447V27.4043Z" fill="#F9F6F0"/>
<path d="M6.85106 21.5319H7.82979V22.5106H6.85106V21.5319Z" fill="#F9F6F0"/>
<path d="M6.85106 22.5106H7.82979V23.4894H6.85106V22.5106Z" fill="#F9F6F0"/>
<path d="M5.87234 22.5106H6.85106V23.4894H5.87234V22.5106Z" fill="#F9F6F0"/>
<path d="M7.82979 22.5106H8.80851V23.4894H7.82979V22.5106Z" fill="#F9F6F0"/>
<path d="M6.85106 23.4894H7.82979V24.4681H6.85106V23.4894Z" fill="#F9F6F0"/>
<path d="M6.85106 17.617H7.82979V18.5957H6.85106V17.617Z" fill="#F9F6F0"/>
<path d="M6.85106 18.5957H7.82979V19.5745H6.85106V18.5957Z" fill="#F9F6F0"/>
<path d="M5.87234 18.5957H6.85106V19.5745H5.87234V18.5957Z" fill="#F9F6F0"/>
<path d="M5.87234 27.4043H6.85106V26.4255H5.87234V27.4043Z" fill="#F9F6F0"/>
<path d="M5.87234 19.5745H6.85106V20.5532H5.87234V19.5745Z" fill="#F9F6F0"/>
<path d="M5.87234 26.4255H6.85106V25.4468H5.87234V26.4255Z" fill="#F9F6F0"/>
<path d="M6.85106 27.4043H7.82979V26.4255H6.85106V27.4043Z" fill="#F9F6F0"/>
<path d="M6.85106 28.383H7.82979V27.4043H6.85106V28.383Z" fill="#F9F6F0"/>
<path d="M4.89362 19.5745H5.87234V20.5532H4.89362V19.5745Z" fill="#F9F6F0"/>
<path d="M4.89362 26.4255H5.87234V25.4468H4.89362V26.4255Z" fill="#F9F6F0"/>
<path d="M4.89362 20.5532H5.87234V21.5319H4.89362V20.5532Z" fill="#F9F6F0"/>
<path d="M4.89362 25.4468H5.87234V24.4681H4.89362V25.4468Z" fill="#F9F6F0"/>
<path d="M1.95745 23.4894H2.93617V22.5106H1.95745V23.4894Z" fill="#F9F6F0"/>
<path d="M3.91489 20.5532H4.89362V21.5319H3.91489V20.5532Z" fill="#F9F6F0"/>
<path d="M3.91489 25.4468H4.89362V24.4681H3.91489V25.4468Z" fill="#F9F6F0"/>
<path d="M2.93617 23.4894H3.91489V22.5106H2.93617V23.4894Z" fill="#F9F6F0"/>
<path d="M3.91489 21.5319H4.89362V22.5106H3.91489V21.5319Z" fill="#F9F6F0"/>
<path d="M3.91489 24.4681H4.89362V23.4894H3.91489V24.4681Z" fill="#F9F6F0"/>
<path d="M2.93617 21.5319H3.91489V22.5106H2.93617V21.5319Z" fill="#F9F6F0"/>
<path d="M2.93617 24.4681H3.91489V23.4894H2.93617V24.4681Z" fill="#F9F6F0"/>
<path d="M34.2553 23.4894H24.4681V22.5106H34.2553V23.4894Z" fill="#F9F6F0"/>
<path d="M34.2553 15.6596H33.2766V16.6383H34.2553V15.6596Z" fill="#F9F6F0"/>
<path d="M35.234 15.6596H34.2553V16.6383H35.234V15.6596Z" fill="#F9F6F0"/>
<path d="M36.2128 15.6596H35.234V16.6383H36.2128V15.6596Z" fill="#F9F6F0"/>
<path d="M37.1915 15.6596H36.2128V16.6383H37.1915V15.6596Z" fill="#F9F6F0"/>
<path d="M37.1915 16.6383H36.2128V17.617H37.1915V16.6383Z" fill="#F9F6F0"/>
<path d="M38.1702 16.6383H37.1915V17.617H38.1702V16.6383Z" fill="#F9F6F0"/>
<path d="M38.1702 17.617H37.1915V18.5957H38.1702V17.617Z" fill="#F9F6F0"/>
<path d="M38.1702 18.5957H37.1915V19.5745H38.1702V18.5957Z" fill="#F9F6F0"/>
<path d="M38.1702 19.5745H37.1915V20.5532H38.1702V19.5745Z" fill="#F9F6F0"/>
<path d="M37.1915 19.5745H36.2128V20.5532H37.1915V19.5745Z" fill="#F9F6F0"/>
<path d="M37.1915 20.5532H36.2128V21.5319H37.1915V20.5532Z" fill="#F9F6F0"/>
<path d="M36.2128 20.5532H35.234V21.5319H36.2128V20.5532Z" fill="#F9F6F0"/>
<path d="M36.2128 21.5319H35.234V22.5106H36.2128V21.5319Z" fill="#F9F6F0"/>
<path d="M35.234 21.5319H34.2553V22.5106H35.234V21.5319Z" fill="#F9F6F0"/>
<path d="M34.2553 16.6383H33.2766V17.617H34.2553V16.6383Z" fill="#F9F6F0"/>
<path d="M33.2766 16.6383H32.2979V17.617H33.2766V16.6383Z" fill="#F9F6F0"/>
<path d="M33.2766 17.617H32.2979V18.5957H33.2766V17.617Z" fill="#F9F6F0"/>
<path d="M33.2766 18.5957H32.2979V19.5745H33.2766V18.5957Z" fill="#F9F6F0"/>
<path d="M34.2553 18.5957H33.2766V19.5745H34.2553V18.5957Z" fill="#F9F6F0"/>
<path d="M34.2553 30.3404H33.2766V29.3617H34.2553V30.3404Z" fill="#F9F6F0"/>
<path d="M35.234 30.3404H34.2553V29.3617H35.234V30.3404Z" fill="#F9F6F0"/>
<path d="M36.2128 30.3404H35.234V29.3617H36.2128V30.3404Z" fill="#F9F6F0"/>
<path d="M37.1915 30.3404H36.2128V29.3617H37.1915V30.3404Z" fill="#F9F6F0"/>
<path d="M37.1915 29.3617H36.2128V28.383H37.1915V29.3617Z" fill="#F9F6F0"/>
<path d="M38.1702 29.3617H37.1915V28.383H38.1702V29.3617Z" fill="#F9F6F0"/>
<path d="M38.1702 28.383H37.1915V27.4043H38.1702V28.383Z" fill="#F9F6F0"/>
<path d="M38.1702 27.4043H37.1915V26.4255H38.1702V27.4043Z" fill="#F9F6F0"/>
<path d="M38.1702 26.4255H37.1915V25.4468H38.1702V26.4255Z" fill="#F9F6F0"/>
<path d="M37.1915 26.4255H36.2128V25.4468H37.1915V26.4255Z" fill="#F9F6F0"/>
<path d="M37.1915 25.4468H36.2128V24.4681H37.1915V25.4468Z" fill="#F9F6F0"/>
<path d="M36.2128 25.4468H35.234V24.4681H36.2128V25.4468Z" fill="#F9F6F0"/>
<path d="M36.2128 24.4681H35.234V23.4894H36.2128V24.4681Z" fill="#F9F6F0"/>
<path d="M35.234 24.4681H34.2553V23.4894H35.234V24.4681Z" fill="#F9F6F0"/>
<path d="M34.2553 29.3617H33.2766V28.383H34.2553V29.3617Z" fill="#F9F6F0"/>
<path d="M33.2766 29.3617H32.2979V28.383H33.2766V29.3617Z" fill="#F9F6F0"/>
<path d="M33.2766 28.383H32.2979V27.4043H33.2766V28.383Z" fill="#F9F6F0"/>
<path d="M33.2766 27.4043H32.2979V26.4255H33.2766V27.4043Z" fill="#F9F6F0"/>
<path d="M34.2553 27.4043H33.2766V26.4255H34.2553V27.4043Z" fill="#F9F6F0"/>
<path d="M39.1489 21.5319H38.1702V22.5106H39.1489V21.5319Z" fill="#F9F6F0"/>
<path d="M39.1489 22.5106H38.1702V23.4894H39.1489V22.5106Z" fill="#F9F6F0"/>
<path d="M40.1277 22.5106H39.1489V23.4894H40.1277V22.5106Z" fill="#F9F6F0"/>
<path d="M38.1702 22.5106H37.1915V23.4894H38.1702V22.5106Z" fill="#F9F6F0"/>
<path d="M39.1489 23.4894H38.1702V24.4681H39.1489V23.4894Z" fill="#F9F6F0"/>
<path d="M39.1489 17.617H38.1702V18.5957H39.1489V17.617Z" fill="#F9F6F0"/>
<path d="M39.1489 18.5957H38.1702V19.5745H39.1489V18.5957Z" fill="#F9F6F0"/>
<path d="M40.1277 18.5957H39.1489V19.5745H40.1277V18.5957Z" fill="#F9F6F0"/>
<path d="M40.1277 27.4043H39.1489V26.4255H40.1277V27.4043Z" fill="#F9F6F0"/>
<path d="M40.1277 19.5745H39.1489V20.5532H40.1277V19.5745Z" fill="#F9F6F0"/>
<path d="M40.1277 26.4255H39.1489V25.4468H40.1277V26.4255Z" fill="#F9F6F0"/>
<path d="M39.1489 27.4043H38.1702V26.4255H39.1489V27.4043Z" fill="#F9F6F0"/>
<path d="M39.1489 28.383H38.1702V27.4043H39.1489V28.383Z" fill="#F9F6F0"/>
<path d="M41.1064 19.5745H40.1277V20.5532H41.1064V19.5745Z" fill="#F9F6F0"/>
<path d="M41.1064 26.4255H40.1277V25.4468H41.1064V26.4255Z" fill="#F9F6F0"/>
<path d="M41.1064 20.5532H40.1277V21.5319H41.1064V20.5532Z" fill="#F9F6F0"/>
<path d="M41.1064 25.4468H40.1277V24.4681H41.1064V25.4468Z" fill="#F9F6F0"/>
<path d="M44.0426 23.4894H43.0638V22.5106H44.0426V23.4894Z" fill="#F9F6F0"/>
<path d="M42.0851 20.5532H41.1064V21.5319H42.0851V20.5532Z" fill="#F9F6F0"/>
<path d="M42.0851 25.4468H41.1064V24.4681H42.0851V25.4468Z" fill="#F9F6F0"/>
<path d="M43.0638 23.4894H42.0851V22.5106H43.0638V23.4894Z" fill="#F9F6F0"/>
<path d="M42.0851 21.5319H41.1064V22.5106H42.0851V21.5319Z" fill="#F9F6F0"/>
<path d="M42.0851 24.4681H41.1064V23.4894H42.0851V24.4681Z" fill="#F9F6F0"/>
<path d="M43.0638 21.5319H42.0851V22.5106H43.0638V21.5319Z" fill="#F9F6F0"/>
<path d="M43.0638 24.4681H42.0851V23.4894H43.0638V24.4681Z" fill="#F9F6F0"/>
<path d="M23.4894 11.7447V21.5319H22.5106V11.7447H23.4894Z" fill="#F9F6F0"/>
<path d="M15.6596 11.7447V12.7234H16.6383V11.7447H15.6596Z" fill="#F9F6F0"/>
<path d="M15.6596 10.766V11.7447H16.6383V10.766H15.6596Z" fill="#F9F6F0"/>
<path d="M15.6596 9.78723V10.766H16.6383V9.78723H15.6596Z" fill="#F9F6F0"/>
<path d="M15.6596 8.80851V9.78723H16.6383V8.80851H15.6596Z" fill="#F9F6F0"/>
<path d="M16.6383 8.80851V9.78723H17.617V8.80851H16.6383Z" fill="#F9F6F0"/>
<path d="M16.6383 7.82979V8.80851H17.617V7.82979H16.6383Z" fill="#F9F6F0"/>
<path d="M17.617 7.82979V8.80851H18.5957V7.82979H17.617Z" fill="#F9F6F0"/>
<path d="M18.5957 7.82979V8.80851H19.5745V7.82979H18.5957Z" fill="#F9F6F0"/>
<path d="M19.5745 7.82979V8.80851H20.5532V7.82979H19.5745Z" fill="#F9F6F0"/>
<path d="M19.5745 8.80851V9.78723H20.5532V8.80851H19.5745Z" fill="#F9F6F0"/>
<path d="M20.5532 8.80851V9.78723H21.5319V8.80851H20.5532Z" fill="#F9F6F0"/>
<path d="M20.5532 9.78723V10.766H21.5319V9.78723H20.5532Z" fill="#F9F6F0"/>
<path d="M21.5319 9.78723V10.766H22.5106V9.78723H21.5319Z" fill="#F9F6F0"/>
<path d="M21.5319 10.766V11.7447H22.5106V10.766H21.5319Z" fill="#F9F6F0"/>
<path d="M16.6383 11.7447V12.7234H17.617V11.7447H16.6383Z" fill="#F9F6F0"/>
<path d="M16.6383 12.7234V13.7021H17.617V12.7234H16.6383Z" fill="#F9F6F0"/>
<path d="M17.617 12.7234V13.7021H18.5957V12.7234H17.617Z" fill="#F9F6F0"/>
<path d="M18.5957 12.7234V13.7021H19.5745V12.7234H18.5957Z" fill="#F9F6F0"/>
<path d="M18.5957 11.7447V12.7234H19.5745V11.7447H18.5957Z" fill="#F9F6F0"/>
<path d="M30.3404 11.7447V12.7234H29.3617V11.7447H30.3404Z" fill="#F9F6F0"/>
<path d="M30.3404 10.766V11.7447H29.3617V10.766H30.3404Z" fill="#F9F6F0"/>
<path d="M30.3404 9.78724V10.766H29.3617V9.78724H30.3404Z" fill="#F9F6F0"/>
<path d="M30.3404 8.80851V9.78724H29.3617V8.80851L30.3404 8.80851Z" fill="#F9F6F0"/>
<path d="M29.3617 8.80851V9.78724H28.383V8.80851H29.3617Z" fill="#F9F6F0"/>
<path d="M29.3617 7.82979V8.80851H28.383V7.82979L29.3617 7.82979Z" fill="#F9F6F0"/>
<path d="M28.383 7.82979V8.80851H27.4043V7.82979H28.383Z" fill="#F9F6F0"/>
<path d="M27.4043 7.82979V8.80851H26.4255V7.82979H27.4043Z" fill="#F9F6F0"/>
<path d="M26.4255 7.82979V8.80851L25.4468 8.80851V7.82979L26.4255 7.82979Z" fill="#F9F6F0"/>
<path d="M26.4255 8.80851V9.78724L25.4468 9.78723V8.80851L26.4255 8.80851Z" fill="#F9F6F0"/>
<path d="M25.4468 8.80851V9.78723H24.4681V8.80851H25.4468Z" fill="#F9F6F0"/>
<path d="M25.4468 9.78723V10.766H24.4681V9.78723H25.4468Z" fill="#F9F6F0"/>
<path d="M24.4681 9.78723V10.766H23.4894V9.78723H24.4681Z" fill="#F9F6F0"/>
<path d="M24.4681 10.766V11.7447H23.4894V10.766H24.4681Z" fill="#F9F6F0"/>
<path d="M29.3617 11.7447V12.7234H28.383V11.7447H29.3617Z" fill="#F9F6F0"/>
<path d="M29.3617 12.7234V13.7021H28.383V12.7234H29.3617Z" fill="#F9F6F0"/>
<path d="M28.383 12.7234V13.7021H27.4043V12.7234H28.383Z" fill="#F9F6F0"/>
<path d="M27.4043 12.7234V13.7021H26.4255V12.7234H27.4043Z" fill="#F9F6F0"/>
<path d="M27.4043 11.7447V12.7234H26.4255V11.7447H27.4043Z" fill="#F9F6F0"/>
<path d="M21.5319 6.85106V7.82979H22.5106V6.85106H21.5319Z" fill="#F9F6F0"/>
<path d="M22.5106 6.85106V7.82979H23.4894V6.85106H22.5106Z" fill="#F9F6F0"/>
<path d="M22.5106 5.87234V6.85106H23.4894V5.87234H22.5106Z" fill="#F9F6F0"/>
<path d="M22.5106 7.82979V8.80851H23.4894V7.82979H22.5106Z" fill="#F9F6F0"/>
<path d="M23.4894 6.85106V7.82979H24.4681V6.85106H23.4894Z" fill="#F9F6F0"/>
<path d="M17.617 6.85106V7.82979H18.5957V6.85106H17.617Z" fill="#F9F6F0"/>
<path d="M18.5957 6.85106V7.82979H19.5745V6.85106H18.5957Z" fill="#F9F6F0"/>
<path d="M18.5957 5.87234V6.85106H19.5745V5.87234H18.5957Z" fill="#F9F6F0"/>
<path d="M27.4043 5.87234V6.85106H26.4255V5.87234L27.4043 5.87234Z" fill="#F9F6F0"/>
<path d="M19.5745 5.87234V6.85106H20.5532V5.87234H19.5745Z" fill="#F9F6F0"/>
<path d="M26.4255 5.87234V6.85106H25.4468V5.87234H26.4255Z" fill="#F9F6F0"/>
<path d="M27.4043 6.85106V7.82979H26.4255V6.85106H27.4043Z" fill="#F9F6F0"/>
<path d="M28.383 6.85106V7.82979H27.4043V6.85106L28.383 6.85106Z" fill="#F9F6F0"/>
<path d="M19.5745 4.89362V5.87234H20.5532V4.89362H19.5745Z" fill="#F9F6F0"/>
<path d="M26.4255 4.89362V5.87234H25.4468V4.89362L26.4255 4.89362Z" fill="#F9F6F0"/>
<path d="M20.5532 4.89362V5.87234L21.5319 5.87234V4.89362L20.5532 4.89362Z" fill="#F9F6F0"/>
<path d="M25.4468 4.89362V5.87234H24.4681V4.89362H25.4468Z" fill="#F9F6F0"/>
<path d="M23.4894 1.95745V2.93617L22.5106 2.93617V1.95745H23.4894Z" fill="#F9F6F0"/>
<path d="M20.5532 3.91489V4.89362L21.5319 4.89362V3.91489L20.5532 3.91489Z" fill="#F9F6F0"/>
<path d="M25.4468 3.91489V4.89362H24.4681V3.91489L25.4468 3.91489Z" fill="#F9F6F0"/>
<path d="M23.4894 2.93617V3.91489H22.5106V2.93617L23.4894 2.93617Z" fill="#F9F6F0"/>
<path d="M21.5319 3.91489V4.89362H22.5106V3.91489H21.5319Z" fill="#F9F6F0"/>
<path d="M24.4681 3.91489V4.89362H23.4894V3.91489H24.4681Z" fill="#F9F6F0"/>
<path d="M21.5319 2.93617V3.91489H22.5106V2.93617L21.5319 2.93617Z" fill="#F9F6F0"/>
<path d="M24.4681 2.93617V3.91489H23.4894V2.93617L24.4681 2.93617Z" fill="#F9F6F0"/>
<path d="M23.4894 34.2553V24.4681H22.5106V34.2553H23.4894Z" fill="#F9F6F0"/>
<path d="M15.6596 34.2553V33.2766H16.6383V34.2553H15.6596Z" fill="#F9F6F0"/>
<path d="M15.6596 35.234V34.2553H16.6383V35.234H15.6596Z" fill="#F9F6F0"/>
<path d="M15.6596 36.2128V35.234H16.6383V36.2128H15.6596Z" fill="#F9F6F0"/>
<path d="M15.6596 37.1915V36.2128H16.6383V37.1915H15.6596Z" fill="#F9F6F0"/>
<path d="M16.6383 37.1915V36.2128H17.617V37.1915H16.6383Z" fill="#F9F6F0"/>
<path d="M16.6383 38.1702V37.1915H17.617V38.1702H16.6383Z" fill="#F9F6F0"/>
<path d="M17.617 38.1702V37.1915H18.5957V38.1702H17.617Z" fill="#F9F6F0"/>
<path d="M18.5957 38.1702V37.1915H19.5745V38.1702H18.5957Z" fill="#F9F6F0"/>
<path d="M19.5745 38.1702V37.1915H20.5532V38.1702H19.5745Z" fill="#F9F6F0"/>
<path d="M19.5745 37.1915V36.2128H20.5532V37.1915H19.5745Z" fill="#F9F6F0"/>
<path d="M20.5532 37.1915V36.2128H21.5319V37.1915H20.5532Z" fill="#F9F6F0"/>
<path d="M20.5532 36.2128V35.234H21.5319V36.2128H20.5532Z" fill="#F9F6F0"/>
<path d="M21.5319 36.2128V35.234H22.5106V36.2128H21.5319Z" fill="#F9F6F0"/>
<path d="M21.5319 35.234V34.2553H22.5106V35.234H21.5319Z" fill="#F9F6F0"/>
<path d="M16.6383 34.2553V33.2766H17.617V34.2553H16.6383Z" fill="#F9F6F0"/>
<path d="M16.6383 33.2766V32.2979H17.617V33.2766H16.6383Z" fill="#F9F6F0"/>
<path d="M17.617 33.2766V32.2979H18.5957V33.2766H17.617Z" fill="#F9F6F0"/>
<path d="M18.5957 33.2766V32.2979H19.5745V33.2766H18.5957Z" fill="#F9F6F0"/>
<path d="M18.5957 34.2553V33.2766H19.5745V34.2553H18.5957Z" fill="#F9F6F0"/>
<path d="M30.3404 34.2553V33.2766H29.3617V34.2553H30.3404Z" fill="#F9F6F0"/>
<path d="M30.3404 35.234V34.2553H29.3617V35.234H30.3404Z" fill="#F9F6F0"/>
<path d="M30.3404 36.2128V35.234H29.3617V36.2128H30.3404Z" fill="#F9F6F0"/>
<path d="M30.3404 37.1915V36.2128H29.3617V37.1915H30.3404Z" fill="#F9F6F0"/>
<path d="M29.3617 37.1915V36.2128H28.383V37.1915H29.3617Z" fill="#F9F6F0"/>
<path d="M29.3617 38.1702V37.1915H28.383V38.1702H29.3617Z" fill="#F9F6F0"/>
<path d="M28.383 38.1702V37.1915H27.4043V38.1702H28.383Z" fill="#F9F6F0"/>
<path d="M27.4043 38.1702V37.1915H26.4255V38.1702H27.4043Z" fill="#F9F6F0"/>
<path d="M26.4255 38.1702V37.1915H25.4468V38.1702H26.4255Z" fill="#F9F6F0"/>
<path d="M26.4255 37.1915V36.2128H25.4468V37.1915H26.4255Z" fill="#F9F6F0"/>
<path d="M25.4468 37.1915V36.2128H24.4681V37.1915H25.4468Z" fill="#F9F6F0"/>
<path d="M25.4468 36.2128V35.234H24.4681V36.2128H25.4468Z" fill="#F9F6F0"/>
<path d="M24.4681 36.2128V35.234H23.4894V36.2128H24.4681Z" fill="#F9F6F0"/>
<path d="M24.4681 35.234V34.2553H23.4894V35.234H24.4681Z" fill="#F9F6F0"/>
<path d="M29.3617 34.2553V33.2766H28.383V34.2553H29.3617Z" fill="#F9F6F0"/>
<path d="M29.3617 33.2766V32.2979H28.383V33.2766H29.3617Z" fill="#F9F6F0"/>
<path d="M28.383 33.2766V32.2979H27.4043V33.2766H28.383Z" fill="#F9F6F0"/>
<path d="M27.4043 33.2766V32.2979H26.4255V33.2766H27.4043Z" fill="#F9F6F0"/>
<path d="M27.4043 34.2553V33.2766H26.4255V34.2553H27.4043Z" fill="#F9F6F0"/>
<path d="M21.5319 39.1489V38.1702H22.5106V39.1489H21.5319Z" fill="#F9F6F0"/>
<path d="M22.5106 39.1489V38.1702H23.4894V39.1489H22.5106Z" fill="#F9F6F0"/>
<path d="M22.5106 40.1277V39.1489H23.4894V40.1277H22.5106Z" fill="#F9F6F0"/>
<path d="M22.5106 38.1702V37.1915H23.4894V38.1702H22.5106Z" fill="#F9F6F0"/>
<path d="M23.4894 39.1489V38.1702H24.4681V39.1489H23.4894Z" fill="#F9F6F0"/>
<path d="M17.617 39.1489V38.1702H18.5957V39.1489H17.617Z" fill="#F9F6F0"/>
<path d="M18.5957 39.1489V38.1702H19.5745V39.1489H18.5957Z" fill="#F9F6F0"/>
<path d="M18.5957 40.1277V39.1489H19.5745V40.1277H18.5957Z" fill="#F9F6F0"/>
<path d="M27.4043 40.1277V39.1489H26.4255V40.1277H27.4043Z" fill="#F9F6F0"/>
<path d="M19.5745 40.1277V39.1489H20.5532V40.1277H19.5745Z" fill="#F9F6F0"/>
<path d="M26.4255 40.1277V39.1489H25.4468V40.1277H26.4255Z" fill="#F9F6F0"/>
<path d="M27.4043 39.1489V38.1702H26.4255V39.1489H27.4043Z" fill="#F9F6F0"/>
<path d="M28.383 39.1489V38.1702H27.4043V39.1489H28.383Z" fill="#F9F6F0"/>
<path d="M19.5745 41.1064V40.1277H20.5532V41.1064H19.5745Z" fill="#F9F6F0"/>
<path d="M26.4255 41.1064V40.1277H25.4468V41.1064H26.4255Z" fill="#F9F6F0"/>
<path d="M20.5532 41.1064V40.1277H21.5319V41.1064H20.5532Z" fill="#F9F6F0"/>
<path d="M25.4468 41.1064V40.1277H24.4681V41.1064H25.4468Z" fill="#F9F6F0"/>
<path d="M23.4894 44.0426V43.0638H22.5106V44.0426H23.4894Z" fill="#F9F6F0"/>
<path d="M20.5532 42.0851V41.1064H21.5319V42.0851H20.5532Z" fill="#F9F6F0"/>
<path d="M25.4468 42.0851V41.1064H24.4681V42.0851H25.4468Z" fill="#F9F6F0"/>
<path d="M23.4894 43.0638V42.0851H22.5106V43.0638H23.4894Z" fill="#F9F6F0"/>
<path d="M21.5319 42.0851V41.1064H22.5106V42.0851H21.5319Z" fill="#F9F6F0"/>
<path d="M24.4681 42.0851V41.1064H23.4894V42.0851H24.4681Z" fill="#F9F6F0"/>
<path d="M21.5319 43.0638V42.0851H22.5106V43.0638H21.5319Z" fill="#F9F6F0"/>
<path d="M24.4681 43.0638V42.0851H23.4894V43.0638H24.4681Z" fill="#F9F6F0"/>
</svg>
